<svg width="574" height="149" viewBox="0 0 574 149" fill="none" xmlns="http://www.w3.org/2000/svg">
<path d="M143.414 71.5117V2.55859H154.242C160.523 2.55859 189.117 2.96484 192.023 3.77734C196.148 4.87109 199.43 6.90234 201.867 9.87109C204.305 12.8398 205.523 16.3398 205.523 20.3711C205.523 22.9961 204.961 25.3867 203.836 27.543C202.742 29.668 200.945 31.668 198.445 33.543C202.633 35.5117 205.695 37.9805 207.633 40.9492C209.57 43.8867 210.539 47.3711 210.539 51.4023C210.539 55.2773 209.539 58.8086 207.539 61.9961C205.539 65.1836 202.961 67.5742 199.805 69.168C196.648 70.7305 192.289 71.5117 186.727 71.5117H143.414ZM156.539 15.0742V36.543L162.676 29.6055H183.398C186.586 29.6055 188.945 28.9336 190.477 27.5898C192.039 26.2461 192.82 24.418 192.82 22.1055C192.82 19.9492 192.086 18.2461 190.617 16.9961C189.148 15.7148 186.914 15.0742 183.914 15.0742H156.539ZM156.539 41.3242V58.9961H183.82C189.258 58.9961 192.914 58.3086 194.789 56.9336C196.695 55.5586 197.648 53.5586 197.648 50.9336C197.648 47.9648 196.539 45.6211 194.32 43.9023C192.102 42.1836 188.414 41.3242 183.258 41.3242H156.539Z" fill="#00ADB6"/>
<path d="M223.102 2.55859H236.227V58.9961H271.352V71.5117H223.102V2.55859Z" fill="#00ADB6"/>
<path d="M313.961 0.824219C323.711 0.824219 332.086 4.35547 339.086 11.418C346.117 18.4805 349.633 27.0898 349.633 37.2461C349.633 47.3086 346.164 55.8242 339.227 62.793C332.32 69.7617 323.93 73.2461 314.055 73.2461C303.711 73.2461 295.117 69.668 288.273 62.5117C281.43 55.3555 278.008 46.8555 278.008 37.0117C278.008 30.418 279.602 24.3555 282.789 18.8242C285.977 13.293 290.352 8.91797 295.914 5.69922C301.508 2.44922 307.523 0.824219 313.961 0.824219Z" fill="#00ADB6"/>
<path d="M425.664 13.8086L416.43 22.9492C410.586 16.7617 403.773 13.668 395.992 13.668C389.211 13.668 383.523 15.918 378.93 20.418C374.367 24.918 372.086 30.3867 372.086 36.8242C372.086 43.4805 374.461 49.1211 379.211 53.7461C383.961 58.3711 389.82 60.6836 396.789 60.6836C401.32 60.6836 405.133 59.7305 408.227 57.8242C411.352 55.918 413.867 52.9336 415.773 48.8711H395.805V36.543H430.492L430.586 39.4492C430.586 45.4805 429.023 51.1992 425.898 56.6055C422.773 62.0117 418.727 66.1367 413.758 68.9805C408.789 71.8242 402.961 73.2461 396.273 73.2461C389.117 73.2461 382.727 71.6992 377.102 68.6055C371.508 65.4805 367.07 61.043 363.789 55.293C360.539 49.543 358.914 43.3398 358.914 36.6836C358.914 27.5586 361.93 19.6211 367.961 12.8711C375.117 4.83984 384.43 0.824219 395.898 0.824219C401.898 0.824219 407.508 1.93359 412.727 4.15234C417.133 6.02734 421.445 9.24609 425.664 13.8086Z" fill="#00ADB6"/>
<path d="M306.981 9.06387C306.681 9.17112 306.273 9.38561 306.069 9.52503C305.716 9.78242 305.63 9.79314 304.461 9.76097C303.045 9.71807 302.262 9.90039 301.351 10.4902C300.643 10.9407 299.828 11.8523 299.474 12.5708L299.195 13.1392L298.455 13.1928C296.868 13.3108 295.323 14.5549 294.862 16.0885C294.723 16.5711 294.691 16.6033 293.951 16.8607C292.878 17.236 291.752 18.4372 291.43 19.5418C291.345 19.8314 291.27 20.4212 291.27 20.8395V21.6009L290.723 22.1693C290.229 22.6841 289.661 23.6386 289.661 23.9711C289.661 24.0354 289.403 24.3571 289.092 24.6682C288.245 25.5154 287.913 26.2768 287.859 27.5424C287.816 28.3896 287.763 28.6148 287.548 28.9473C287.173 29.5264 286.98 30.2557 286.98 31.1565C286.98 31.8215 286.937 32.0038 286.701 32.3577C286.09 33.2907 285.929 34.9209 286.336 36.122L286.551 36.7655L286.336 37.409C285.918 38.6423 286.1 40.2939 286.754 41.2698C287.055 41.7203 287.066 41.7632 287.012 42.7713C286.937 43.9832 287.076 44.691 287.516 45.3774C287.773 45.7849 287.816 45.9779 287.859 46.8574C287.913 48.0692 288.234 48.8414 289.017 49.6565L289.532 50.182L289.575 51.1686C289.607 51.9301 289.682 52.284 289.886 52.7452C290.261 53.5388 291.034 54.3646 291.752 54.7399C292.213 54.9866 292.396 55.1475 292.546 55.4799C292.814 56.0805 293.5 56.8098 294.144 57.1959C294.583 57.4533 294.701 57.5927 294.755 57.893C294.862 58.4185 295.281 59.2657 295.688 59.7591C296.085 60.2417 297.136 60.9602 297.608 61.0567C297.779 61.0996 298.165 61.3785 298.487 61.6895C299.152 62.3544 300.074 62.8263 300.911 62.9014C301.254 62.9335 301.64 63.0515 301.812 63.1802C302.691 63.7915 304.472 63.9738 305.641 63.5663L306.273 63.3518L306.97 63.5877C307.989 63.9309 309.416 63.8558 310.316 63.4161C311.132 63.0193 311.947 62.1935 312.354 61.3785L312.665 60.735V11.9381L312.354 11.2946C311.947 10.4688 311.132 9.65372 310.306 9.25691C309.748 8.97807 309.523 8.93517 308.59 8.903C307.775 8.88155 307.389 8.92445 306.981 9.06387ZM309.448 10.9085C309.984 11.1552 310.509 11.7021 310.745 12.2598C310.896 12.603 310.949 13.0963 310.981 14.6407L311.024 16.6033H307.635C304.472 16.6033 304.214 16.614 303.656 16.8285C302.445 17.2789 301.565 18.5659 301.565 19.8743C301.565 20.6143 301.801 20.8931 302.423 20.8931C302.97 20.8931 303.238 20.625 303.335 19.9815C303.431 19.3809 303.753 18.8876 304.246 18.598C304.6 18.3835 304.825 18.3728 307.818 18.3406L311.003 18.3085V35.4893L303.045 35.4571C295.173 35.4249 295.066 35.4249 294.594 35.1997C293.704 34.7815 293.2 34.0522 293.05 32.9797C293.007 32.6902 292.878 32.3684 292.76 32.2505C292.471 31.9609 291.774 31.9716 291.473 32.2719C291.27 32.4757 291.248 32.5936 291.291 33.3336C291.377 34.8136 292.288 36.1435 293.683 36.8299L294.326 37.1409L302.67 37.173L311.003 37.1945V38.9104H307.625C304.472 38.9104 304.214 38.9212 303.656 39.1356C302.445 39.5861 301.565 40.873 301.565 42.1814C301.565 42.9214 301.801 43.2003 302.423 43.2003C302.97 43.2003 303.238 42.9322 303.335 42.2887C303.431 41.6881 303.753 41.1948 304.246 40.9052C304.6 40.6907 304.825 40.68 307.818 40.6478L311.014 40.6156L310.981 50.3C310.949 61.0782 310.992 60.3918 310.22 61.2069C309.394 62.0756 308.311 62.2043 307.067 61.5822L306.284 61.1961L305.501 61.5822C304.364 62.1506 303.56 62.1185 302.616 61.4643C302.337 61.2712 302.026 61.1747 301.597 61.1425C300.707 61.0782 300.182 60.7993 299.581 60.1022C299.184 59.6518 298.97 59.4909 298.68 59.4373C297.543 59.2335 296.525 58.1504 296.525 57.1637C296.525 56.4666 296.321 56.177 295.624 55.866C294.873 55.5228 294.251 54.9008 294.058 54.2895C293.908 53.8176 293.565 53.3886 293.329 53.3886C292.964 53.3886 292.106 52.7988 291.806 52.3376C291.42 51.7478 291.323 51.2973 291.43 50.5144C291.559 49.5278 291.516 49.2811 291.216 49.0452C289.832 47.9834 289.597 47.533 289.693 46.2139C289.757 45.3988 289.747 45.3452 289.457 44.9484C288.932 44.2191 288.803 43.8866 288.803 43.2217C288.803 42.4388 289.21 41.5916 289.8 41.1197C290.165 40.8301 290.294 40.7872 290.819 40.798C291.162 40.8087 291.677 40.8516 291.967 40.8945C292.428 40.9588 292.535 40.9374 292.75 40.7336C292.985 40.5084 293.061 39.9936 292.921 39.6075C292.782 39.2643 292.01 38.9855 291.034 38.9319C290.208 38.889 290.047 38.9104 289.479 39.1678C289.135 39.3287 288.706 39.6075 288.524 39.7791L288.181 40.1116L288.063 39.7577C287.827 39.0927 287.913 38.3849 288.331 37.5484L288.717 36.7655L288.331 35.9826C287.72 34.7493 287.784 33.9986 288.599 32.8725C288.899 32.4542 288.91 32.4113 288.846 31.607C288.728 30.2021 289.157 29.4621 290.337 29.0438C291.237 28.7221 292.031 28.765 292.857 29.151C293.661 29.5264 294.187 29.5586 294.487 29.2583C294.776 28.9687 294.776 28.2609 294.487 27.9713C293.693 27.1777 291.484 26.7595 290.154 27.1563C289.661 27.3064 289.65 27.3064 289.725 27.0812C289.875 26.5771 290.111 26.2447 290.658 25.7728C291.152 25.3438 291.27 25.1829 291.42 24.6145C291.602 23.9603 292.02 23.4563 292.921 22.7699C293.243 22.534 293.264 22.3516 293.146 21.2041C293.05 20.3354 293.189 19.8421 293.715 19.263C294.058 18.8876 294.68 18.4586 294.744 18.5551C294.766 18.5766 294.927 18.9091 295.109 19.3059C295.516 20.2067 296.235 20.9789 297.05 21.4186C298.144 21.9977 298.991 21.8047 298.991 20.9574C298.991 20.3783 298.905 20.2711 298.123 19.8635C297.05 19.2951 296.525 18.5122 296.525 17.4612C296.525 16.496 297.061 15.6595 297.972 15.1876C298.326 15.0053 298.53 14.9731 299.27 15.0267C300.407 15.0911 300.718 14.9195 300.868 14.1366C301.05 13.2036 301.726 12.3563 302.659 11.8844C303.206 11.6163 303.442 11.5627 304.085 11.5627C304.514 11.5627 305.072 11.6378 305.329 11.7236C305.919 11.9381 306.177 11.8737 306.702 11.4018C306.927 11.1981 307.271 10.9621 307.474 10.8763C307.989 10.6511 308.933 10.6726 309.448 10.9085Z" fill="#E0E9F0"/>
<path d="M306.445 21.0969C305.555 21.5044 304.997 22.3838 304.997 23.3598C304.997 24.0354 305.244 24.325 305.834 24.325C306.381 24.325 306.563 24.1641 306.788 23.467C306.981 22.8879 306.992 22.8772 307.571 22.6841C307.893 22.5769 308.225 22.416 308.3 22.3195C308.504 22.0406 308.461 21.3543 308.214 21.1076C307.936 20.8288 307.035 20.818 306.445 21.0969Z" fill="#E0E9F0"/>
<path d="M299.077 23.6708C297.865 24.0569 296.632 25.0864 296.632 25.7084C296.632 26.1696 296.728 26.3519 297.082 26.5342C297.501 26.7487 297.833 26.6629 298.444 26.1589C299.174 25.5476 299.603 25.3653 300.439 25.3116C301.351 25.258 301.919 25.3974 302.605 25.8586C303.463 26.427 303.903 27.2313 304.085 28.5397C304.171 29.2047 304.439 29.4728 304.997 29.4728C305.651 29.4728 305.855 29.2047 305.855 28.3681C305.855 26.2876 304.364 24.3143 302.305 23.6708C301.436 23.4027 299.924 23.4027 299.077 23.6708Z" fill="#E0E9F0"/>
<path d="M300.074 27.9606C299.956 28.0786 299.828 28.4003 299.785 28.6899C299.581 30.1055 298.755 30.9313 297.35 31.1351C297.061 31.1673 296.739 31.296 296.621 31.4139C296.332 31.7035 296.342 32.4006 296.643 32.7009C296.846 32.9047 296.964 32.9261 297.704 32.8832C299.763 32.7652 301.426 31.1029 301.544 29.0438C301.587 28.3038 301.565 28.1858 301.361 27.9821C301.061 27.6818 300.364 27.671 300.074 27.9606Z" fill="#E0E9F0"/>
<path d="M307.303 30.5345C306.413 30.9421 305.855 31.8215 305.855 32.7974C305.855 33.4731 306.102 33.7626 306.692 33.7626C307.238 33.7626 307.421 33.6018 307.646 32.9047C307.839 32.3255 307.85 32.3148 308.429 32.1218C308.751 32.0145 309.083 31.8536 309.158 31.7571C309.362 31.4783 309.319 30.7919 309.072 30.5452C308.794 30.2664 307.893 30.2557 307.303 30.5345Z" fill="#E0E9F0"/>
<path d="M296.643 39.9722C296.525 40.0901 296.396 40.4119 296.353 40.7014C296.149 42.1171 295.323 42.9429 293.919 43.1466C293.629 43.1788 293.307 43.3075 293.189 43.4255C292.9 43.715 292.91 44.4121 293.211 44.7124C293.414 44.9162 293.532 44.9377 294.272 44.8948C296.332 44.7768 297.994 43.1145 298.112 41.0554C298.155 40.3154 298.133 40.1974 297.93 39.9936C297.629 39.6933 296.932 39.6826 296.643 39.9722Z" fill="#E0E9F0"/>
<path d="M303.002 45.6133C300.986 46.053 299.474 47.5866 299.034 49.6136C298.841 50.5359 298.841 50.9649 299.045 51.3402C299.216 51.6834 299.399 51.7799 299.892 51.7799C300.428 51.7799 300.675 51.4368 300.739 50.5681C300.836 49.2275 301.769 47.9513 302.927 47.5545C304.043 47.1684 305.426 47.4258 306.381 48.1872C306.917 48.6162 307.303 48.6591 307.721 48.3374C307.946 48.1658 308 48.0263 308 47.651C308 47.2327 307.946 47.1469 307.496 46.7394C306.842 46.171 305.866 45.7098 304.997 45.5704C304.128 45.431 303.828 45.431 303.002 45.6133Z" fill="#E0E9F0"/>
<path d="M295.184 47.1576C294.637 47.3829 294.508 48.1014 294.905 48.6591C295.034 48.8307 295.13 49.0773 295.13 49.206C295.13 49.3347 295.034 49.5814 294.905 49.753C294.605 50.1713 294.605 50.7718 294.905 51.0614C295.205 51.3617 295.881 51.3724 296.214 51.0829C296.61 50.7182 296.954 49.8602 296.954 49.206C296.954 48.5626 296.61 47.6939 296.235 47.3614C295.978 47.1255 295.474 47.0397 295.184 47.1576Z" fill="#E0E9F0"/>
<path d="M303.506 51.9837C303.388 52.1017 303.26 52.4234 303.217 52.713C303.013 54.1286 302.187 54.9544 300.782 55.1582C300.493 55.1904 300.171 55.3191 300.053 55.437C299.763 55.7266 299.774 56.4237 300.074 56.724C300.278 56.9278 300.396 56.9492 301.136 56.9063C303.195 56.7883 304.858 55.126 304.976 53.0669C305.018 52.3269 304.997 52.2089 304.793 52.0052C304.493 51.7049 303.796 51.6942 303.506 51.9837Z" fill="#E0E9F0"/>
<path d="M306.445 55.4156C305.555 55.8231 304.997 56.7025 304.997 57.6785C304.997 58.3541 305.244 58.6437 305.834 58.6437C306.381 58.6437 306.563 58.4828 306.788 57.7857C306.981 57.2066 306.992 57.1959 307.571 57.0028C307.893 56.8956 308.225 56.7347 308.3 56.6382C308.504 56.3594 308.461 55.673 308.214 55.4263C307.936 55.1475 307.035 55.1368 306.445 55.4156Z" fill="#E0E9F0"/>
<path d="M318.456 9.08532C317.92 9.32126 317.287 10.0076 317.116 10.5439C317.041 10.7691 317.009 11.2624 317.03 11.6699C317.073 12.5601 317.427 13.1499 318.21 13.654L318.714 13.9757V14.8552L318.725 15.7453H316.794C315.003 15.7453 314.853 15.756 314.649 15.9598C314.51 16.0992 314.435 16.3137 314.435 16.6033C314.435 16.8928 314.51 17.1073 314.649 17.2467C314.853 17.4505 315.003 17.4612 317.438 17.4612C320.687 17.4612 320.44 17.6221 320.44 15.4986C320.44 13.9757 320.44 13.9543 320.698 13.8363C321.148 13.6325 321.76 13.0212 321.953 12.5815C322.221 12.0024 322.221 10.8978 321.953 10.3294C321.706 9.80387 321.159 9.26764 320.634 9.05314C320.087 8.8172 318.993 8.83865 318.456 9.08532ZM320.119 10.9192C320.237 11.0372 320.333 11.2731 320.333 11.4555C320.333 11.6378 320.237 11.8737 320.119 11.9917C320.001 12.1097 319.765 12.2062 319.582 12.2062C319.4 12.2062 319.164 12.1097 319.046 11.9917C318.928 11.8737 318.832 11.6378 318.832 11.4555C318.832 11.2731 318.928 11.0372 319.046 10.9192C319.164 10.8013 319.4 10.7047 319.582 10.7047C319.765 10.7047 320.001 10.8013 320.119 10.9192Z" fill="#E0E9F0"/>
<path d="M328.849 14.1795C328.387 14.3833 327.808 14.9088 327.572 15.3592L327.358 15.7453H325.824C324.022 15.7453 324.355 15.5308 322.746 17.7186L321.674 19.1664L318.274 19.1772C315.014 19.1772 314.853 19.1879 314.649 19.3917C314.51 19.5311 314.435 19.7456 314.435 20.0351C314.435 20.3247 314.51 20.5392 314.649 20.6786C314.853 20.8824 315.003 20.8931 318.725 20.8931H322.596L322.832 20.6357C322.961 20.4963 323.551 19.7241 324.14 18.9198L325.213 17.472L326.296 17.4612C327.336 17.4612 327.379 17.472 327.497 17.7186C327.701 18.1691 328.312 18.7804 328.752 18.9734C329.288 19.2201 330.382 19.2415 330.929 19.0056C331.884 18.6088 332.452 17.7186 332.452 16.6033C332.452 15.4879 331.884 14.5978 330.929 14.201C330.436 13.9972 329.299 13.9865 328.849 14.1795ZM330.414 16.067C330.532 16.185 330.629 16.4209 330.629 16.6033C330.629 16.7856 330.532 17.0215 330.414 17.1395C330.296 17.2575 330.06 17.354 329.878 17.354C329.696 17.354 329.46 17.2575 329.342 17.1395C329.224 17.0215 329.127 16.7856 329.127 16.6033C329.127 16.4209 329.224 16.185 329.342 16.067C329.46 15.9491 329.696 15.8525 329.878 15.8525C330.06 15.8525 330.296 15.9491 330.414 16.067Z" fill="#E0E9F0"/>
<path d="M328.752 21.0861C327.819 21.5366 327.304 22.3838 327.304 23.4885C327.315 24.5824 327.883 25.4832 328.827 25.8693C329.374 26.1053 330.468 26.0838 331.004 25.8371C331.444 25.6441 332.055 25.0328 332.259 24.5824C332.377 24.3357 332.431 24.325 333.406 24.325H334.436L335.487 26.427C336.442 28.336 336.527 28.5505 336.377 28.7113C335.873 29.269 335.723 30.6739 336.088 31.4568C336.517 32.3899 337.375 32.9047 338.479 32.9047C340.002 32.8939 341.032 31.8644 341.032 30.3308C341.032 29.9768 340.957 29.505 340.86 29.2797C340.506 28.411 339.573 27.7676 338.672 27.7568H338.19L336.956 25.2795C336.281 23.9174 335.637 22.7592 335.541 22.7056C335.444 22.6519 334.693 22.609 333.878 22.5983H332.398L332.077 22.0943C331.905 21.8261 331.551 21.4508 331.294 21.2685C330.886 20.9896 330.715 20.9467 330.007 20.9146C329.374 20.8931 329.084 20.936 328.752 21.0861ZM330.414 22.9308C330.532 23.0487 330.629 23.2847 330.629 23.467C330.629 23.6493 330.532 23.8853 330.414 24.0032C330.296 24.1212 330.06 24.2177 329.878 24.2177C329.696 24.2177 329.46 24.1212 329.342 24.0032C329.224 23.8853 329.127 23.6493 329.127 23.467C329.127 23.2847 329.224 23.0487 329.342 22.9308C329.46 22.8128 329.696 22.7163 329.878 22.7163C330.06 22.7163 330.296 22.8128 330.414 22.9308ZM338.994 29.7945C339.112 29.9125 339.209 30.1484 339.209 30.3308C339.209 30.5131 339.112 30.749 338.994 30.867C338.876 30.9849 338.64 31.0815 338.458 31.0815C338.275 31.0815 338.04 30.9849 337.922 30.867C337.804 30.749 337.707 30.5131 337.707 30.3308C337.707 30.1484 337.804 29.9125 337.922 29.7945C338.04 29.6765 338.275 29.58 338.458 29.58C338.64 29.58 338.876 29.6765 338.994 29.7945Z" fill="#E0E9F0"/>
<path d="M315.936 22.7806C315.025 23.1774 314.413 24.1105 314.403 25.1293C314.403 26.2125 314.949 27.1241 315.883 27.5531C316.451 27.8212 317.556 27.8212 318.135 27.5531C318.574 27.36 319.186 26.7487 319.389 26.2983C319.507 26.0409 319.507 26.0409 321.449 26.0409H323.39L328.248 30.8992L328.194 31.7249C328.119 32.7223 328.259 33.2049 328.795 33.7948C329.32 34.3846 329.878 34.6206 330.736 34.6206C332.291 34.6206 333.31 33.591 333.31 32.0252C333.31 31.1887 333.063 30.6203 332.484 30.1055C331.894 29.5693 331.422 29.4299 330.425 29.505L329.61 29.5586L326.982 26.9418L324.344 24.325H319.486L319.304 23.9496C319.1 23.5099 318.51 22.9629 318.017 22.7592C317.545 22.5661 316.408 22.5769 315.936 22.7806ZM317.545 24.6467C317.663 24.7647 317.759 25.0006 317.759 25.1829C317.759 25.3653 317.663 25.6012 317.545 25.7192C317.427 25.8371 317.191 25.9337 317.009 25.9337C316.826 25.9337 316.59 25.8371 316.472 25.7192C316.354 25.6012 316.258 25.3653 316.258 25.1829C316.258 25.0006 316.354 24.7647 316.472 24.6467C316.59 24.5287 316.826 24.4322 317.009 24.4322C317.191 24.4322 317.427 24.5287 317.545 24.6467ZM331.272 31.5105C331.39 31.6284 331.487 31.8644 331.487 32.0467C331.487 32.229 331.39 32.4649 331.272 32.5829C331.154 32.7009 330.918 32.7974 330.736 32.7974C330.554 32.7974 330.318 32.7009 330.2 32.5829C330.082 32.4649 329.985 32.229 329.985 32.0467C329.985 31.8644 330.082 31.6284 330.2 31.5105C330.318 31.3925 330.554 31.296 330.736 31.296C330.918 31.296 331.154 31.3925 331.272 31.5105Z" fill="#E0E9F0"/>
<path d="M321.127 29.6229C320.666 29.8267 320.087 30.3522 319.851 30.8026L319.636 31.1887H317.255C315.003 31.1887 314.853 31.1994 314.649 31.4032C314.51 31.5426 314.435 31.7571 314.435 32.0467C314.435 32.3362 314.51 32.5507 314.649 32.6902C314.853 32.8939 315.003 32.9047 317.255 32.9047H319.658L319.776 33.162C319.979 33.6125 320.591 34.2238 321.03 34.4168C321.567 34.6635 322.66 34.6849 323.207 34.449C324.162 34.0522 324.73 33.162 324.73 32.0467C324.73 30.9313 324.162 30.0412 323.207 29.6444C322.714 29.4406 321.577 29.4299 321.127 29.6229ZM322.693 31.5105C322.811 31.6284 322.907 31.8644 322.907 32.0467C322.907 32.229 322.811 32.4649 322.693 32.5829C322.575 32.7009 322.339 32.7974 322.156 32.7974C321.974 32.7974 321.738 32.7009 321.62 32.5829C321.502 32.4649 321.406 32.229 321.406 32.0467C321.406 31.8644 321.502 31.6284 321.62 31.5105C321.738 31.3925 321.974 31.296 322.156 31.296C322.339 31.296 322.575 31.3925 322.693 31.5105Z" fill="#E0E9F0"/>
<path d="M337.814 34.8351C337.611 35.0388 337.6 35.189 337.6 37.4412V39.8435L337.342 39.9614C336.892 40.1652 336.281 40.7765 336.088 41.2162C335.82 41.7953 335.82 42.9 336.088 43.4684C336.517 44.4014 337.375 44.9162 338.479 44.9162C339.316 44.9162 339.884 44.6695 340.399 44.0904C340.914 43.522 341.064 43.0287 341.01 42.1278C340.967 41.2377 340.613 40.6478 339.831 40.1438L339.326 39.822V37.4304C339.316 35.1997 339.305 35.0388 339.101 34.8351C338.962 34.6957 338.747 34.6206 338.458 34.6206C338.168 34.6206 337.954 34.6957 337.814 34.8351ZM338.994 41.8061C339.112 41.924 339.209 42.16 339.209 42.3423C339.209 42.5246 339.112 42.7606 338.994 42.8785C338.876 42.9965 338.64 43.093 338.458 43.093C338.275 43.093 338.04 42.9965 337.922 42.8785C337.804 42.7606 337.707 42.5246 337.707 42.3423C337.707 42.16 337.804 41.924 337.922 41.8061C338.04 41.6881 338.275 41.5916 338.458 41.5916C338.64 41.5916 338.876 41.6881 338.994 41.8061Z" fill="#E0E9F0"/>
<path d="M323.819 37.6235L321.663 39.7684L320.601 39.7577H319.529L319.207 39.2536C318.703 38.4707 318.113 38.1168 317.223 38.0739C316.333 38.0203 315.893 38.1597 315.293 38.6638C314.681 39.1893 314.435 39.7469 314.435 40.6264C314.435 41.7524 315.003 42.6319 315.979 43.0394C316.547 43.2753 317.534 43.2646 318.102 43.0072C318.574 42.8035 319.186 42.2029 319.389 41.7417C319.507 41.4843 319.529 41.4843 321.073 41.4843H322.628L324.87 39.2536C326.103 38.031 327.176 36.8942 327.251 36.7226C327.411 36.358 327.293 35.8217 327.015 35.6073C326.918 35.5429 326.639 35.4786 326.403 35.4786C325.985 35.4786 325.899 35.5536 323.819 37.6235ZM317.545 40.0901C317.663 40.2081 317.759 40.444 317.759 40.6264C317.759 40.8087 317.663 41.0446 317.545 41.1626C317.427 41.2806 317.191 41.3771 317.009 41.3771C316.826 41.3771 316.59 41.2806 316.472 41.1626C316.354 41.0446 316.258 40.8087 316.258 40.6264C316.258 40.444 316.354 40.2081 316.472 40.0901C316.59 39.9722 316.826 39.8756 317.009 39.8756C317.191 39.8756 317.427 39.9722 317.545 40.0901Z" fill="#E0E9F0"/>
<path d="M330.468 36.5403C329.932 36.7762 329.299 37.4626 329.127 37.9988C329.042 38.2562 329.009 38.7067 329.052 39.2322L329.106 40.058L324.248 44.9162H320.408C316.719 44.9162 316.569 44.9269 316.365 45.1307C316.172 45.3237 316.151 45.4953 316.14 46.8681V48.4017L315.636 48.7234C314.853 49.2275 314.499 49.8173 314.456 50.7075C314.403 51.6084 314.553 52.1017 315.067 52.6701C315.593 53.2599 316.151 53.4959 317.009 53.4959C317.867 53.4959 318.424 53.2599 318.95 52.6701C319.465 52.1017 319.615 51.6084 319.561 50.7075C319.518 49.8173 319.164 49.2275 318.381 48.7234L317.877 48.4017V47.5116L317.867 46.6321H325.202L327.84 44.0153L330.468 41.3985L331.283 41.4522C332.291 41.5272 332.763 41.3771 333.374 40.8194C334.425 39.8542 334.5 38.2241 333.535 37.1623C333.01 36.5725 332.452 36.3365 331.594 36.3365C331.144 36.3365 330.747 36.4116 330.468 36.5403ZM332.13 38.3742C332.248 38.4922 332.345 38.7281 332.345 38.9104C332.345 39.0927 332.248 39.3287 332.13 39.4467C332.012 39.5646 331.776 39.6611 331.594 39.6611C331.412 39.6611 331.176 39.5646 331.058 39.4467C330.94 39.3287 330.843 39.0927 330.843 38.9104C330.843 38.7281 330.94 38.4922 331.058 38.3742C331.176 38.2562 331.412 38.1597 331.594 38.1597C331.776 38.1597 332.012 38.2562 332.13 38.3742ZM317.545 50.3857C317.663 50.5037 317.759 50.7397 317.759 50.922C317.759 51.1043 317.663 51.3402 317.545 51.4582C317.084 51.9194 316.258 51.5762 316.258 50.922C316.258 50.5144 316.601 50.1713 317.009 50.1713C317.191 50.1713 317.427 50.2678 317.545 50.3857Z" fill="#E0E9F0"/>
<path d="M330.951 45.1307C330.8 45.2808 330.736 45.4846 330.736 45.7956C330.736 46.2246 330.79 46.289 332.452 47.9727L334.168 49.6994L334.157 50.7611V51.8336L333.653 52.1553C332.87 52.6594 332.516 53.2492 332.473 54.1394C332.42 55.0402 332.57 55.5336 333.085 56.102C333.61 56.6918 334.168 56.9278 335.026 56.9278C335.884 56.9278 336.442 56.6918 336.967 56.102C337.611 55.3941 337.814 54.386 337.493 53.453C337.332 52.9489 336.645 52.1768 336.206 51.9944L335.884 51.8657V48.7342L333.975 46.8252C332.109 44.9591 332.066 44.9162 331.615 44.9162C331.304 44.9162 331.101 44.9806 330.951 45.1307ZM335.562 53.8176C335.68 53.9356 335.777 54.1715 335.777 54.3538C335.777 54.5362 335.68 54.7721 335.562 54.8901C335.101 55.3512 334.275 55.008 334.275 54.3538C334.275 53.9463 334.618 53.6031 335.026 53.6031C335.208 53.6031 335.444 53.6997 335.562 53.8176Z" fill="#E0E9F0"/>
<path d="M327.133 48.4982C326.671 48.702 326.092 49.2275 325.856 49.6779L325.642 50.064H323.69C321.867 50.064 321.717 50.0747 321.513 50.2785C321.309 50.4823 321.298 50.6324 321.298 52.8524V55.2118H318.51C315.861 55.2118 315.711 55.2225 315.507 55.4263C315.368 55.5657 315.293 55.7802 315.293 56.0698C315.293 56.3594 315.368 56.5738 315.507 56.7133C315.711 56.917 315.861 56.9278 319.154 56.9278C322.446 56.9278 322.596 56.917 322.8 56.7133C323.004 56.5095 323.014 56.3594 323.014 54.1394V51.7799H324.333C325.631 51.7799 325.663 51.7907 325.781 52.0373C325.985 52.4878 326.596 53.0991 327.036 53.2921C327.572 53.5388 328.666 53.5602 329.213 53.3243C330.168 52.9275 330.736 52.0373 330.736 50.922C330.736 49.8066 330.168 48.9165 329.213 48.5197C328.72 48.3159 327.583 48.3052 327.133 48.4982ZM328.698 50.3857C328.816 50.5037 328.913 50.7397 328.913 50.922C328.913 51.1043 328.816 51.3402 328.698 51.4582C328.237 51.9194 327.411 51.5762 327.411 50.922C327.411 50.5144 327.755 50.1713 328.162 50.1713C328.344 50.1713 328.58 50.2678 328.698 50.3857Z" fill="#E0E9F0"/>
<path d="M327.84 56.0805C327.68 56.1341 326.886 57.0457 325.91 58.2683L324.248 60.3596H319.507L319.389 60.1022C319.186 59.6518 318.574 59.0405 318.135 58.8475C317.556 58.5793 316.451 58.5793 315.883 58.8475C314.96 59.2764 314.435 60.1344 314.435 61.2176C314.435 62.3008 314.96 63.1587 315.883 63.5877C316.451 63.8558 317.556 63.8558 318.135 63.5877C318.574 63.3947 319.186 62.7834 319.389 62.333L319.507 62.0756H322.307C323.851 62.0756 325.159 62.0327 325.234 61.9898C325.299 61.9469 326.178 60.8851 327.186 59.6196C328.849 57.5391 329.02 57.2924 329.02 56.917C329.02 56.5202 328.741 56.0698 328.495 56.0698C328.441 56.0698 328.334 56.0483 328.248 56.0269C328.173 55.9947 327.991 56.0269 327.84 56.0805ZM317.545 60.6814C318.006 61.1425 317.663 61.9683 317.009 61.9683C316.601 61.9683 316.258 61.6251 316.258 61.2176C316.258 60.8101 316.601 60.4669 317.009 60.4669C317.191 60.4669 317.427 60.5634 317.545 60.6814Z" fill="#E0E9F0"/>
<path d="M38.6049 98.8548V148.828L4.75301 108.131V148.349H0.577148V97.2461L34.3948 137.944V98.8548H38.6049Z" fill="#00ADB6"/>
<path d="M51.9539 148.349V98.2046H80.9111V102.415H56.1298V116.688H72.799V120.898H56.1298V144.139H82.6225V148.349H51.9539Z" fill="#00ADB6"/>
<path d="M109.115 148.897C106.309 148.897 103.707 148.383 101.243 147.356C98.8126 146.33 96.6562 144.926 94.8079 143.146C92.9596 141.367 91.4878 139.313 90.4267 136.951C89.3314 134.589 88.818 132.091 88.818 129.421V98.1703H92.8227V129.421C92.8227 131.509 93.2677 133.494 94.1234 135.377C94.9791 137.259 96.1428 138.868 97.6146 140.237C99.0865 141.606 100.798 142.667 102.817 143.489C104.803 144.276 106.925 144.687 109.15 144.687C111.374 144.687 113.36 144.276 115.311 143.489C117.262 142.701 118.939 141.606 120.411 140.237C121.883 138.868 123.012 137.259 123.834 135.377C124.655 133.494 125.066 131.509 125.066 129.421V98.1703H129.276V129.421C129.276 132.091 128.728 134.589 127.667 136.951C126.572 139.313 125.134 141.367 123.32 143.146C121.506 144.926 119.384 146.33 116.919 147.356C114.489 148.383 111.888 148.897 109.15 148.897" fill="#00ADB6"/>
<path d="M146.869 102.415V124.903H157.069C158.644 124.903 160.15 124.595 161.553 124.013C162.957 123.431 164.155 122.609 165.182 121.617C166.208 120.59 166.996 119.426 167.578 118.091C168.159 116.722 168.433 115.285 168.433 113.779C168.433 112.273 168.159 110.732 167.578 109.329C166.996 107.96 166.208 106.762 165.182 105.735C164.155 104.742 162.957 103.921 161.553 103.339C160.15 102.723 158.678 102.449 157.069 102.449H146.869V102.415ZM146.869 129.113V148.383H142.865V98.2389H157.069C159.294 98.2389 161.348 98.6839 163.231 99.5396C165.113 100.395 166.722 101.525 168.091 102.962C169.46 104.4 170.521 106.043 171.274 107.891C172.027 109.774 172.404 111.691 172.404 113.642C172.404 116.756 171.582 119.597 169.974 122.164C168.365 124.732 166.037 126.58 163.059 127.744L168.296 134.418C169.049 135.377 169.905 136.472 170.829 137.704C171.753 138.936 172.678 140.169 173.636 141.435C174.594 142.667 175.519 143.9 176.443 145.132C177.367 146.33 178.188 147.425 178.873 148.383H173.636L158.781 129.113H146.869Z" fill="#00ADB6"/>
<path d="M228.093 123.362C228.093 120.385 227.545 117.578 226.416 114.976C225.286 112.375 223.78 110.116 221.795 108.165C219.81 106.214 217.551 104.708 214.949 103.578C212.348 102.483 209.61 101.901 206.666 101.901C203.722 101.901 200.916 102.449 198.28 103.578C195.679 104.674 193.42 106.214 191.469 108.165C189.518 110.116 188.012 112.375 186.916 114.976C185.821 117.578 185.239 120.385 185.239 123.362C185.239 126.34 185.787 129.113 186.916 131.714C188.012 134.281 189.552 136.54 191.469 138.491C193.42 140.442 195.679 141.948 198.28 143.078C200.881 144.173 203.654 144.755 206.666 144.755C209.678 144.755 212.348 144.207 214.949 143.078C217.551 141.983 219.81 140.442 221.795 138.491C223.78 136.54 225.286 134.281 226.416 131.714C227.511 129.147 228.093 126.375 228.093 123.362ZM206.7 97.7254C210.26 97.7254 213.614 98.3757 216.729 99.7106C219.844 101.046 222.548 102.86 224.841 105.187C227.135 107.515 228.949 110.219 230.284 113.334C231.619 116.448 232.269 119.768 232.269 123.328C232.269 126.888 231.619 130.208 230.284 133.289C228.949 136.369 227.135 139.073 224.841 141.401C222.548 143.728 219.844 145.542 216.729 146.877C213.614 148.212 210.26 148.863 206.7 148.863C203.141 148.863 199.82 148.212 196.74 146.877C193.625 145.542 190.955 143.728 188.628 141.401C186.3 139.073 184.452 136.369 183.117 133.289C181.782 130.208 181.132 126.888 181.132 123.328C181.132 119.768 181.816 116.448 183.117 113.334C184.452 110.219 186.3 107.515 188.628 105.187C190.955 102.86 193.659 101.046 196.74 99.7106C199.82 98.3757 203.175 97.7254 206.7 97.7254Z" fill="#00ADB6"/>
<path d="M270.297 102.415H246.2V116.893H265.265V121.069H246.2V148.349H242.195V98.2046H270.297V102.415Z" fill="#00ADB6"/>
<path d="M277.074 148.349V98.2046H306.065V102.415H281.284V116.688H297.953V120.898H281.284V144.139H307.777V148.349H277.074Z" fill="#00ADB6"/>
<path d="M314.623 148.349V98.2046H343.614V102.415H318.833V116.688H335.502V120.898H318.833V144.139H345.326V148.349H314.623Z" fill="#00ADB6"/>
<path d="M388.693 123.431C388.693 120.522 388.145 117.783 387.015 115.25C385.92 112.717 384.38 110.493 382.497 108.61C380.58 106.693 378.356 105.221 375.823 104.092C373.29 102.997 370.552 102.415 367.642 102.415H356.313V144.173H367.642C370.552 144.173 373.29 143.626 375.823 142.565C378.356 141.469 380.58 140.032 382.497 138.149C384.414 136.267 385.92 134.076 387.015 131.543C388.111 129.01 388.693 126.306 388.693 123.465M367.642 98.2389C371.133 98.2389 374.419 98.8892 377.466 100.19C380.512 101.491 383.182 103.27 385.441 105.564C387.7 107.857 389.48 110.527 390.781 113.573C392.081 116.62 392.731 119.905 392.731 123.397C392.731 126.888 392.081 130.071 390.781 133.118C389.48 136.164 387.7 138.834 385.441 141.093C383.182 143.352 380.546 145.132 377.466 146.432C374.419 147.733 371.133 148.383 367.642 148.383H352.308V98.2389H367.642Z" fill="#00ADB6"/>
<path d="M432.437 111.246C432.437 109.979 432.231 108.815 431.752 107.754C431.307 106.693 430.691 105.769 429.904 104.913C429.117 104.092 428.158 103.476 427.097 103.031C426.036 102.586 424.872 102.346 423.674 102.346H408.579V120.076H423.674C424.872 120.076 426.036 119.837 427.097 119.358C428.192 118.913 429.117 118.262 429.904 117.441C430.691 116.619 431.307 115.661 431.752 114.6C432.197 113.505 432.437 112.375 432.437 111.211M423.743 98.1703C425.591 98.1703 427.302 98.5468 428.911 99.2656C430.486 99.9844 431.855 100.977 433.019 102.141C434.182 103.339 435.072 104.742 435.688 106.282C436.339 107.823 436.647 109.466 436.647 111.177C436.647 113.265 436.099 115.284 435.038 117.167C433.977 119.084 432.608 120.658 430.931 121.925C433.087 123.123 434.798 124.834 436.065 127.025C437.331 129.25 437.982 131.646 437.982 134.247C437.982 136.164 437.639 137.978 436.921 139.689C436.236 141.401 435.243 142.907 434.011 144.173C432.779 145.474 431.341 146.467 429.664 147.185C428.021 147.904 426.241 148.281 424.325 148.281H404.404V98.1361H423.708L423.743 98.1703ZM424.393 144.105C427.131 144.105 429.39 143.146 431.239 141.23C433.053 139.313 433.977 137.02 433.977 134.281C433.977 132.946 433.737 131.646 433.224 130.413C432.71 129.181 432.026 128.12 431.204 127.23C430.349 126.34 429.322 125.621 428.158 125.074C426.994 124.526 425.728 124.252 424.393 124.252H408.648V144.071H424.393V144.105Z" fill="#00ADB6"/>
<path d="M463.242 97.7254C466.733 105.906 470.19 114.087 473.647 122.267C477.07 130.448 480.527 138.834 484.053 147.493L480.425 148.452L472.244 129.66H454.719L446.538 148.623L442.739 147.665L463.31 97.7254H463.242ZM470.567 126.135L463.242 107.275C462.797 108.405 462.352 109.603 461.873 110.835C461.394 112.067 460.88 113.436 460.333 114.942C459.785 116.448 459.169 118.091 458.484 119.905C457.8 121.719 457.012 123.807 456.191 126.135H470.567Z" fill="#00ADB6"/>
<path d="M529.576 141.778C526.907 144.002 524.066 145.748 521.088 146.98C518.11 148.212 515.064 148.829 511.949 148.829C508.389 148.829 505.069 148.178 501.954 146.843C498.839 145.508 496.135 143.694 493.808 141.367C491.48 139.039 489.632 136.335 488.263 133.255C486.894 130.174 486.209 126.854 486.209 123.294C486.209 119.735 486.894 116.414 488.263 113.3C489.632 110.185 491.48 107.447 493.808 105.119C496.135 102.757 498.839 100.909 501.954 99.574C505.069 98.2391 508.389 97.5888 511.949 97.5888C514.482 97.5888 517.151 98.1022 519.924 99.129C522.696 100.156 525.435 101.559 528.173 103.408L524.853 105.975C520.711 103.168 516.433 101.765 511.983 101.765C509.005 101.765 506.198 102.312 503.597 103.442C500.996 104.537 498.702 106.077 496.717 108.063C494.732 110.048 493.192 112.307 492.096 114.943C491.001 117.544 490.419 120.351 490.419 123.328C490.419 126.306 490.967 129.079 492.096 131.68C493.192 134.247 494.766 136.506 496.717 138.457C498.702 140.408 500.961 141.914 503.597 143.044C506.198 144.139 509.005 144.721 511.983 144.721C514.516 144.721 517.083 144.208 519.616 143.181C522.149 142.154 524.545 140.751 526.77 138.902L529.645 141.846L529.576 141.778Z" fill="#00ADB6"/>
<path d="M573.423 146.056L570.069 148.726L543.85 124.595L542.994 125.451V148.349H538.989V98.2049H542.994V119.666L567.775 97.623L570.753 100.601L546.999 121.754L573.423 146.056Z" fill="#00ADB6"/>
</svg>
