<svg width="197" height="133" viewBox="0 0 197 133" fill="none" xmlns="http://www.w3.org/2000/svg">
<path fill-rule="evenodd" clip-rule="evenodd" d="M184.688 1.7973H12.3125C6.64583 1.7973 2.05208 5.82069 2.05208 10.7838V122.216C2.05208 127.179 6.64583 131.203 12.3125 131.203H184.688C190.354 131.203 194.948 127.179 194.948 122.216V10.7838C194.948 5.82068 190.354 1.7973 184.688 1.7973ZM12.3125 0C5.51249 0 0 4.82807 0 10.7838V122.216C0 128.172 5.51249 133 12.3125 133H184.688C191.487 133 197 128.172 197 122.216V10.7838C197 4.82806 191.487 0 184.688 0H12.3125Z" fill="url(#paint0_linear_1_5)"/>
<path d="M15.9297 21.5061C15.9297 19.5266 17.5344 17.9219 19.514 17.9219H152.53C154.51 17.9219 156.114 19.5266 156.114 21.5061C156.114 23.4857 154.51 25.0904 152.53 25.0904H19.514C17.5344 25.0904 15.9297 23.4857 15.9297 21.5061Z" fill="url(#paint1_linear_1_5)"/>
<path d="M15.9297 39.4261C15.9297 37.4465 17.5344 35.8418 19.514 35.8418H62.5252C64.5047 35.8418 66.1095 37.4465 66.1095 39.4261C66.1095 41.4056 64.5047 43.0103 62.5252 43.0103H19.514C17.5344 43.0103 15.9297 41.4056 15.9297 39.4261Z" fill="url(#paint2_linear_1_5)"/>
<path d="M72.4805 39.4261C72.4805 37.4465 74.0852 35.8418 76.0647 35.8418H92.7913C94.7709 35.8418 96.3756 37.4465 96.3756 39.4261C96.3756 41.4056 94.7709 43.0103 92.7913 43.0103H76.0647C74.0852 43.0103 72.4805 41.4056 72.4805 39.4261Z" fill="url(#paint3_linear_1_5)"/>
<path d="M15.9297 111.112C15.9297 109.132 17.5344 107.527 19.514 107.527H62.5252C64.5047 107.527 66.1095 109.132 66.1095 111.112C66.1095 113.091 64.5047 114.696 62.5252 114.696H19.514C17.5344 114.696 15.9297 113.091 15.9297 111.112Z" fill="url(#paint4_linear_1_5)"/>
<path d="M72.4805 111.112C72.4805 109.132 74.0852 107.527 76.0647 107.527H92.7913C94.7709 107.527 96.3756 109.132 96.3756 111.112C96.3756 113.091 94.7709 114.696 92.7913 114.696H76.0647C74.0852 114.696 72.4805 113.091 72.4805 111.112Z" fill="url(#paint5_linear_1_5)"/>
<path d="M44.6035 75.2698C44.6035 73.2903 46.2082 71.6855 48.1878 71.6855H60.1353C62.1149 71.6855 63.7196 73.2903 63.7196 75.2698C63.7196 77.2494 62.1149 78.8541 60.1353 78.8541H48.1878C46.2083 78.8541 44.6035 77.2494 44.6035 75.2698Z" fill="url(#paint6_linear_1_5)"/>
<path d="M70.8887 75.2698C70.8887 73.2903 72.4934 71.6855 74.4729 71.6855H125.449C127.429 71.6855 129.033 73.2903 129.033 75.2698C129.033 77.2494 127.429 78.8541 125.449 78.8541H74.4729C72.4934 78.8541 70.8887 77.2494 70.8887 75.2698Z" fill="url(#paint7_linear_1_5)"/>
<path d="M15.9297 75.2698C15.9297 73.2903 17.5344 71.6855 19.514 71.6855H36.2405C38.2201 71.6855 39.8248 73.2903 39.8248 75.2698C39.8248 77.2494 38.2201 78.8541 36.2405 78.8541H19.514C17.5344 78.8541 15.9297 77.2494 15.9297 75.2698Z" fill="url(#paint8_linear_1_5)"/>
<path d="M15.9297 57.3479C15.9297 55.3684 17.5344 53.7637 19.514 53.7637H77.6588C79.6383 53.7637 81.243 55.3684 81.243 57.3479C81.243 59.3275 79.6383 60.9322 77.6588 60.9322H19.514C17.5344 60.9322 15.9297 59.3275 15.9297 57.3479Z" fill="url(#paint9_linear_1_5)"/>
<path d="M86.8184 57.3479C86.8184 55.3684 88.4231 53.7637 90.4026 53.7637H117.484C119.463 53.7637 121.068 55.3684 121.068 57.3479C121.068 59.3275 119.463 60.9322 117.484 60.9322H90.4026C88.4231 60.9322 86.8184 59.3275 86.8184 57.3479Z" fill="url(#paint10_linear_1_5)"/>
<path d="M15.9297 93.1917C15.9297 91.2122 17.5344 89.6074 19.514 89.6074H77.6588C79.6383 89.6074 81.243 91.2122 81.243 93.1917C81.243 95.1712 79.6383 96.776 77.6588 96.776H19.514C17.5344 96.776 15.9297 95.1712 15.9297 93.1917Z" fill="url(#paint11_linear_1_5)"/>
<defs>
<linearGradient id="paint0_linear_1_5" x1="98.5" y1="2.46508e-06" x2="180.054" y2="338.854" gradientUnits="userSpaceOnUse">
<stop stop-color="white" stop-opacity="0.17"/>
<stop offset="1" stop-opacity="0"/>
</linearGradient>
<linearGradient id="paint1_linear_1_5" x1="86.0221" y1="17.9219" x2="94.8363" y2="61.3226" gradientUnits="userSpaceOnUse">
<stop stop-color="white" stop-opacity="0.56"/>
<stop offset="1" stop-color="#C4C4C4" stop-opacity="0"/>
</linearGradient>
<linearGradient id="paint2_linear_1_5" x1="41.0196" y1="35.8418" x2="60.4156" y2="70.028" gradientUnits="userSpaceOnUse">
<stop stop-color="#F9C746" stop-opacity="0.52"/>
<stop offset="1" stop-color="#C4C4C4" stop-opacity="0"/>
</linearGradient>
<linearGradient id="paint3_linear_1_5" x1="84.428" y1="35.8418" x2="106.681" y2="54.5189" gradientUnits="userSpaceOnUse">
<stop stop-color="#84EBE5" stop-opacity="0.62"/>
<stop offset="1" stop-color="#C4C4C4" stop-opacity="0"/>
</linearGradient>
<linearGradient id="paint4_linear_1_5" x1="41.0196" y1="107.527" x2="60.4156" y2="141.714" gradientUnits="userSpaceOnUse">
<stop stop-color="white" stop-opacity="0.56"/>
<stop offset="1" stop-color="#C4C4C4" stop-opacity="0"/>
</linearGradient>
<linearGradient id="paint5_linear_1_5" x1="84.428" y1="107.527" x2="106.681" y2="126.204" gradientUnits="userSpaceOnUse">
<stop stop-color="#F47D9E"/>
<stop offset="1" stop-color="#C4C4C4" stop-opacity="0"/>
</linearGradient>
<linearGradient id="paint6_linear_1_5" x1="54.1616" y1="71.6855" x2="75.0758" y2="85.7283" gradientUnits="userSpaceOnUse">
<stop stop-color="#F2C87D"/>
<stop offset="1" stop-color="#C4C4C4" stop-opacity="0"/>
</linearGradient>
<linearGradient id="paint7_linear_1_5" x1="99.9611" y1="71.6855" x2="117.809" y2="108.137" gradientUnits="userSpaceOnUse">
<stop stop-color="white" stop-opacity="0.62"/>
<stop offset="1" stop-color="#C4C4C4" stop-opacity="0"/>
</linearGradient>
<linearGradient id="paint8_linear_1_5" x1="22.3017" y1="69.8934" x2="58.9791" y2="75.0723" gradientUnits="userSpaceOnUse">
<stop stop-color="#F37D9D"/>
<stop offset="1" stop-color="#C4C4C4" stop-opacity="0"/>
</linearGradient>
<linearGradient id="paint9_linear_1_5" x1="48.5864" y1="53.7637" x2="65.1398" y2="91.7388" gradientUnits="userSpaceOnUse">
<stop stop-color="white" stop-opacity="0.58"/>
<stop offset="1" stop-color="#C4C4C4" stop-opacity="0"/>
</linearGradient>
<linearGradient id="paint10_linear_1_5" x1="103.943" y1="53.7637" x2="126.158" y2="80.4883" gradientUnits="userSpaceOnUse">
<stop stop-color="white" stop-opacity="0.45"/>
<stop offset="1" stop-color="#C4C4C4" stop-opacity="0"/>
</linearGradient>
<linearGradient id="paint11_linear_1_5" x1="48.5864" y1="89.6074" x2="65.1398" y2="127.583" gradientUnits="userSpaceOnUse">
<stop stop-color="#70D1E7"/>
<stop offset="1" stop-color="#C4C4C4" stop-opacity="0"/>
</linearGradient>
</defs>
</svg>
