<svg width="244" height="62" viewBox="0 0 244 62" fill="none" xmlns="http://www.w3.org/2000/svg">
<g clip-path="url(#clip0_2003_2035)">
<path d="M63.9443 37.0801V53.9768L52.5475 40.2164V53.8147H51.1416V36.5361L62.5269 50.2965V37.0801H63.9443Z" fill="white"/>
<path d="M68.4385 53.8149V36.8604H78.1874V38.2838H69.8443V43.1098H75.4563V44.5333H69.8443V52.3914H78.7636V53.8149H68.4385Z" fill="white"/>
<path d="M87.6828 53.9999C86.7379 53.9999 85.8621 53.8263 85.0324 53.4791C84.2143 53.132 83.4883 52.6575 82.866 52.0557C82.2437 51.4539 81.7482 50.7595 81.391 49.9609C81.0222 49.1624 80.8494 48.3176 80.8494 47.4149V36.8486H82.1976V47.4149C82.1976 48.1208 82.3474 48.7921 82.6355 49.4286C82.9236 50.0651 83.3154 50.609 83.8109 51.072C84.3064 51.5349 84.8826 51.8936 85.5625 52.1714C86.2309 52.4376 86.9453 52.5765 87.6944 52.5765C88.4434 52.5765 89.1118 52.4376 89.7686 52.1714C90.4254 51.9052 90.9901 51.5349 91.4856 51.072C91.9811 50.609 92.3614 50.0651 92.638 49.4286C92.9145 48.7921 93.0528 48.1208 93.0528 47.4149V36.8486H94.4702V47.4149C94.4702 48.3176 94.2858 49.1624 93.9286 49.9609C93.5599 50.7595 93.0759 51.4539 92.4651 52.0557C91.8544 52.6575 91.1399 53.132 90.3102 53.4791C89.492 53.8263 88.6162 53.9999 87.6944 53.9999" fill="white"/>
<path d="M100.393 38.2837V45.8873H103.827C104.358 45.8873 104.865 45.7831 105.337 45.5864C105.809 45.3896 106.213 45.1119 106.559 44.7762C106.904 44.429 107.169 44.0356 107.365 43.5842C107.561 43.1213 107.653 42.6352 107.653 42.126C107.653 41.6168 107.561 41.096 107.365 40.6215C107.169 40.1586 106.904 39.7535 106.559 39.4063C106.213 39.0707 105.809 38.793 105.337 38.5962C104.865 38.3879 104.369 38.2953 103.827 38.2953H100.393V38.2837ZM100.393 47.3107V53.8264H99.0452V36.8718H103.827C104.576 36.8718 105.268 37.0223 105.902 37.3116C106.535 37.6009 107.077 37.9828 107.538 38.4689C107.999 38.955 108.356 39.5105 108.61 40.1354C108.863 40.772 108.99 41.42 108.99 42.0797C108.99 43.1329 108.713 44.0934 108.172 44.9614C107.63 45.8294 106.847 46.4543 105.844 46.8478L107.607 49.1046C107.861 49.4286 108.149 49.799 108.46 50.2156C108.771 50.6322 109.082 51.0489 109.405 51.4771C109.728 51.8937 110.039 52.3103 110.35 52.7269C110.661 53.132 110.937 53.5023 111.168 53.8264H109.405L104.404 47.3107H100.393Z" fill="white"/>
<path d="M127.739 45.3665C127.739 44.3596 127.554 43.4106 127.174 42.5311C126.794 41.6515 126.287 40.8877 125.618 40.228C124.95 39.5684 124.19 39.0591 123.314 38.6772C122.438 38.3069 121.516 38.1102 120.525 38.1102C119.534 38.1102 118.589 38.2953 117.702 38.6772C116.826 39.0476 116.065 39.5684 115.409 40.228C114.752 40.8877 114.245 41.6515 113.876 42.5311C113.507 43.4106 113.311 44.3596 113.311 45.3665C113.311 46.3733 113.496 47.3108 113.876 48.1903C114.245 49.0583 114.763 49.8221 115.409 50.4818C116.065 51.1414 116.826 51.6507 117.702 52.0326C118.578 52.4029 119.511 52.5997 120.525 52.5997C121.539 52.5997 122.438 52.4145 123.314 52.0326C124.19 51.6622 124.95 51.1414 125.618 50.4818C126.287 49.8221 126.794 49.0583 127.174 48.1903C127.543 47.3223 127.739 46.3849 127.739 45.3665ZM120.537 36.6982C121.735 36.6982 122.864 36.9181 123.913 37.3695C124.962 37.8208 125.872 38.4342 126.644 39.2212C127.416 40.0081 128.027 40.9224 128.476 41.9756C128.926 43.0287 129.145 44.1513 129.145 45.3549C129.145 46.5585 128.926 47.6811 128.476 48.7227C128.027 49.7643 127.416 50.6785 126.644 51.4655C125.872 52.2525 124.962 52.8658 123.913 53.3172C122.864 53.7685 121.735 53.9884 120.537 53.9884C119.338 53.9884 118.22 53.7685 117.183 53.3172C116.135 52.8658 115.236 52.2525 114.452 51.4655C113.669 50.6785 113.046 49.7643 112.597 48.7227C112.147 47.6811 111.928 46.5585 111.928 45.3549C111.928 44.1513 112.159 43.0287 112.597 41.9756C113.046 40.9224 113.669 40.0081 114.452 39.2212C115.236 38.4342 116.146 37.8208 117.183 37.3695C118.22 36.9181 119.35 36.6982 120.537 36.6982Z" fill="white"/>
<path d="M141.947 38.2838H133.835V43.1793H140.253V44.5912H133.835V53.8149H132.487V36.8604H141.947V38.2838Z" fill="white"/>
<path d="M144.229 53.8149V36.8604H153.989V38.2838H145.646V43.1098H151.258V44.5333H145.646V52.3914H154.566V53.8149H144.229Z" fill="white"/>
<path d="M156.87 53.8149V36.8604H166.631V38.2838H158.288V43.1098H163.9V44.5333H158.288V52.3914H167.207V53.8149H156.87Z" fill="white"/>
<path d="M181.807 45.3896C181.807 44.4059 181.623 43.4801 181.243 42.6236C180.874 41.7672 180.355 41.015 179.722 40.3785C179.076 39.7304 178.327 39.2327 177.475 38.8508C176.622 38.4805 175.7 38.2837 174.72 38.2837H170.906V52.4029H174.72C175.7 52.4029 176.622 52.2177 177.475 51.859C178.327 51.4886 179.076 51.0026 179.722 50.366C180.367 49.7295 180.874 48.9888 181.243 48.1324C181.612 47.276 181.807 46.3618 181.807 45.4012M174.72 36.8718C175.896 36.8718 177.002 37.0917 178.028 37.5315C179.053 37.9713 179.952 38.5731 180.713 39.3485C181.473 40.1239 182.072 41.0266 182.51 42.0566C182.948 43.0866 183.167 44.1976 183.167 45.378C183.167 46.5585 182.948 47.6348 182.51 48.6648C182.072 49.6948 181.473 50.5975 180.713 51.3613C179.952 52.1251 179.065 52.7269 178.028 53.1667C177.002 53.6065 175.896 53.8264 174.72 53.8264H169.558V36.8718H174.72Z" fill="white"/>
<path d="M196.534 41.2696C196.534 40.8414 196.465 40.448 196.304 40.0892C196.154 39.7304 195.947 39.418 195.682 39.1286C195.417 38.8509 195.094 38.6426 194.737 38.4921C194.38 38.3417 193.988 38.2606 193.584 38.2606H188.503V44.2555H193.584C193.988 44.2555 194.38 44.1745 194.737 44.0125C195.106 43.862 195.417 43.6421 195.682 43.3644C195.947 43.0866 196.154 42.7626 196.304 42.4038C196.454 42.0335 196.534 41.6516 196.534 41.2581M193.607 36.8487C194.23 36.8487 194.806 36.976 195.348 37.2191C195.878 37.4621 196.339 37.7977 196.73 38.1912C197.122 38.5963 197.422 39.0708 197.629 39.5916C197.848 40.1123 197.952 40.6678 197.952 41.2465C197.952 41.9525 197.767 42.6353 197.41 43.2718C197.053 43.9199 196.592 44.4522 196.027 44.8804C196.753 45.2855 197.33 45.8642 197.756 46.6048C198.182 47.3571 198.401 48.1672 198.401 49.0468C198.401 49.6949 198.286 50.3082 198.044 50.8869C197.814 51.4655 197.479 51.9747 197.065 52.403C196.65 52.8427 196.166 53.1784 195.601 53.4214C195.048 53.6644 194.449 53.7917 193.803 53.7917H187.097V36.8372H193.596L193.607 36.8487ZM193.826 52.3798C194.748 52.3798 195.509 52.0558 196.131 51.4077C196.742 50.7596 197.053 49.9842 197.053 49.0583C197.053 48.607 196.972 48.1672 196.8 47.7506C196.627 47.3339 196.396 46.9752 196.12 46.6743C195.832 46.3734 195.486 46.1303 195.094 45.9452C194.702 45.76 194.276 45.6674 193.826 45.6674H188.526V52.3682H193.826V52.3798Z" fill="white"/>
<path d="M206.906 36.6982C208.081 39.4642 209.245 42.2302 210.409 44.9961C211.561 47.7621 212.725 50.5975 213.912 53.5255L212.69 53.8495L209.936 47.4959H204.036L201.282 53.9074L200.003 53.5834L206.929 36.6982H206.906ZM209.372 46.3039L206.906 39.9271C206.756 40.309 206.606 40.7141 206.445 41.1307C206.283 41.5474 206.11 42.0103 205.926 42.5195C205.742 43.0287 205.534 43.5842 205.304 44.1976C205.073 44.811 204.808 45.5169 204.532 46.3039H209.372Z" fill="white"/>
<path d="M229.238 51.5928C228.339 52.3451 227.383 52.9353 226.38 53.3519C225.378 53.7686 224.352 53.9769 223.304 53.9769C222.105 53.9769 220.987 53.757 219.939 53.3056C218.89 52.8543 217.98 52.2409 217.196 51.4539C216.413 50.667 215.79 49.7527 215.329 48.7111C214.868 47.6696 214.638 46.547 214.638 45.3434C214.638 44.1398 214.868 43.0172 215.329 41.964C215.79 40.9109 216.413 39.985 217.196 39.1981C217.98 38.3995 218.89 37.7746 219.939 37.3232C220.987 36.8719 222.105 36.652 223.304 36.652C224.156 36.652 225.055 36.8256 225.989 37.1728C226.922 37.52 227.844 37.9945 228.766 38.6194L227.648 39.4874C226.254 38.5384 224.813 38.0639 223.315 38.0639C222.313 38.0639 221.368 38.2491 220.492 38.631C219.616 39.0013 218.844 39.5221 218.176 40.1933C217.507 40.8646 216.989 41.6284 216.62 42.5195C216.251 43.3991 216.055 44.3481 216.055 45.3549C216.055 46.3618 216.24 47.2992 216.62 48.1788C216.989 49.0467 217.519 49.8106 218.176 50.4702C218.844 51.1299 219.605 51.6391 220.492 52.021C221.368 52.3914 222.313 52.5881 223.315 52.5881C224.168 52.5881 225.032 52.4145 225.885 52.0673C226.738 51.7201 227.544 51.2456 228.293 50.6207L229.261 51.616L229.238 51.5928Z" fill="white"/>
<path d="M244 53.0395L242.871 53.9422L234.044 45.7832L233.755 46.0725V53.8149H232.407V36.8603H233.755V44.1166L242.099 36.6636L243.101 37.6704L235.104 44.8226L244 53.0395Z" fill="white"/>
<path d="M31.1022 44.4869C33.5221 40.8645 35.4466 37.7282 33.3032 34.0595C33.3032 34.0595 31.7475 31.2704 31.1598 30.3909C31.1368 30.3561 31.1137 30.3214 31.0907 30.2867C29.4543 27.9374 29.7885 24.7085 31.7475 22.7642C33.8333 20.681 37.1175 20.519 39.3991 22.2781C40.9318 23.0998 42.2224 24.1183 43.0175 24.4423C50.2313 28.7706 54.8753 16.6768 61.0404 22.8915C63.3221 25.2061 63.299 28.9211 61.0058 31.2241C54.1954 37.9712 49.0328 22.417 39.9753 31.3167C35.1239 36.0848 38.3275 41.2811 40.4708 44.5332C42.038 46.9172 41.9574 50.0882 39.8831 52.1598C37.6015 54.4397 33.9024 54.4166 31.6438 52.1251C29.5811 50.0304 29.535 46.8709 31.1137 44.4984" fill="white"/>
<path d="M19.0024 31.0159C16.6862 33.3073 12.9986 33.2842 10.7054 30.9811C8.42377 28.655 8.44681 24.9516 10.74 22.6485C13.0562 20.3571 16.7438 20.3802 19.037 22.6832C21.3186 25.0094 21.2956 28.7128 19.0024 31.0159Z" fill="white"/>
<path d="M61.0751 1.81701C63.3452 4.10848 63.3222 7.82344 61.0405 10.0918C56.7768 14.3275 51.7755 9.23535 49.805 8.43681C47.6847 7.16377 45.1956 7.1522 43.0637 8.40209C40.5862 9.46681 36.1496 14.3854 31.8167 10.0107C29.9614 8.12434 29.6273 5.31208 30.8027 3.09005C30.8027 3.07847 30.8142 3.0669 30.8257 3.05533C34.5133 -3.76122 41.6694 2.85859 43.0868 3.33308C45.2071 4.60612 47.7077 4.61769 49.8281 3.3678C51.8216 2.58083 56.8574 -2.46503 61.0751 1.81701Z" fill="white"/>
<path d="M45.2646 10.7513C48.5027 10.1032 49.632 11.8739 53.5501 13.9571C55.6704 15.2301 58.171 15.2417 60.2913 13.9918C62.2849 13.2048 67.3207 8.15894 71.5383 12.441C73.8085 14.7325 73.7854 18.4474 71.5038 20.7157C67.24 24.9515 62.2388 19.8709 60.2683 19.0608C58.148 17.7877 55.6473 17.7762 53.527 19.0261C49.3555 21.4217 48.9752 21.873 47.5348 22.1392C44.2851 22.7873 43.1673 21.0166 39.2493 18.9335C35.3198 16.5726 30.6988 19.5006 29.4773 20.7042C24.6259 25.4723 27.8295 30.6686 29.9613 33.9206C31.5285 36.3047 31.4479 39.4757 29.3736 41.5473C27.092 43.8272 23.3929 43.804 21.1343 41.5126C19.0716 39.4178 19.0255 36.2584 20.6042 33.8859C24.7527 27.6827 24.7527 26.0162 20.6618 19.7783C20.6388 19.7436 20.6157 19.7089 20.6042 19.6742C18.9678 17.3248 19.302 14.0959 21.261 12.1517C23.3353 10.0801 26.6195 9.89491 28.9127 11.6656C31.5746 13.1007 34.8704 16.4453 39.2724 13.8645C43.4439 11.4688 43.8242 11.0175 45.2646 10.7513Z" fill="white"/>
</g>
<defs>
<clipPath id="clip0_2003_2035">
<rect width="244" height="62" fill="white"/>
</clipPath>
</defs>
</svg>
