<svg width="34" height="37" viewBox="0 0 34 37" fill="none" xmlns="http://www.w3.org/2000/svg">
<g clip-path="url(#clip0_150_1850)">
<circle cx="14.877" cy="22.5352" r="14.4473" fill="#9EF4F9"/>
<path d="M23.9481 21.296C25.3176 20.3832 25.0916 19.3613 25.7382 17.2465C26.0368 16.0506 26.9139 15.1653 28.1016 14.8586C29.0815 14.4334 32.6343 14.4369 32.6116 11.4416C32.604 9.83411 31.2868 8.53308 29.6833 8.53778C26.6881 8.54763 26.7161 12.1005 26.3072 13.0804C26.0086 14.2762 25.1314 15.1615 23.9438 15.4683C21.6295 16.0941 21.3364 16.069 20.735 16.4828C19.3614 17.3996 19.5915 18.4175 18.9449 20.5324C18.3921 22.7491 15.7319 23.3457 14.8773 23.352C11.4873 23.3814 10.7851 20.4213 10.3903 18.524C10.1025 17.1315 8.95656 16.0425 7.49557 16.0434C5.88807 16.0441 4.59267 17.3558 4.60425 18.9592C4.61553 20.4243 5.71268 21.5539 7.10509 21.8337C10.753 22.5577 11.3403 23.145 12.0969 26.7849C12.101 26.8053 12.1052 26.8256 12.1133 26.8419C12.3646 28.2465 13.6202 29.2666 14.9957 29.2614C16.4567 29.2604 17.6793 28.1683 17.8635 26.7362C18.2958 25.2924 18.2786 22.9524 20.7394 22.3106C23.0536 21.6847 23.3467 21.7098 23.9481 21.296Z" fill="#00ADB6"/>
</g>
<defs>
<clipPath id="clip0_150_1850">
<rect width="33.4766" height="36.9912" fill="white" transform="translate(0.429688 -0.00878906)"/>
</clipPath>
</defs>
</svg>
