<svg width="35" height="36" viewBox="0 0 35 36" fill="none" xmlns="http://www.w3.org/2000/svg">
<g clip-path="url(#clip0_2030_2322)">
<path d="M23.9121 9.50146H19.5645C18.764 9.50146 18.1152 10.1503 18.1152 10.9507V15.2983H23.9121C24.0769 15.2947 24.2333 15.3714 24.3312 15.504C24.4292 15.6366 24.4567 15.8085 24.4048 15.965L23.3324 19.1533C23.2336 19.4459 22.9601 19.6437 22.6513 19.646H18.1152V30.5151C18.1152 30.9153 17.7908 31.2397 17.3906 31.2397H13.7676C13.3674 31.2397 13.043 30.9153 13.043 30.5151V19.646H10.8691C10.469 19.646 10.1445 19.3215 10.1445 18.9214V16.0229C10.1445 15.6228 10.469 15.2983 10.8691 15.2983H13.043V10.9507C13.043 7.74916 15.6384 5.15381 18.8398 5.15381H23.9121C24.3122 5.15381 24.6367 5.47823 24.6367 5.87842V8.77685C24.6367 9.17704 24.3122 9.50146 23.9121 9.50146Z" fill="white"/>
</g>
<defs>
<clipPath id="clip0_2030_2322">
<rect width="34.7812" height="34.7812" fill="white" transform="translate(0 0.806152)"/>
</clipPath>
</defs>
</svg>
