<svg width="34" height="38" viewBox="0 0 34 38" fill="none" xmlns="http://www.w3.org/2000/svg">
<g clip-path="url(#clip0_150_1851)">
<circle cx="14.877" cy="23.5264" r="14.4473" fill="#9EF4F9"/>
<path d="M23.9481 22.2872C25.3176 21.3744 25.0916 20.3525 25.7382 18.2377C26.0368 17.0418 26.9139 16.1565 28.1016 15.8498C29.0815 15.4246 32.6343 15.4281 32.6116 12.4328C32.604 10.8253 31.2868 9.52429 29.6833 9.52899C26.6881 9.53885 26.7161 13.0917 26.3072 14.0716C26.0086 15.2674 25.1314 16.1527 23.9438 16.4595C21.6295 17.0853 21.3364 17.0602 20.735 17.4741C19.3614 18.3908 19.5915 19.4087 18.9449 21.5236C18.3921 23.7403 15.7319 24.3369 14.8773 24.3432C11.4873 24.3726 10.7851 21.4125 10.3903 19.5152C10.1025 18.1227 8.95656 17.0337 7.49557 17.0346C5.88807 17.0353 4.59267 18.347 4.60425 19.9504C4.61553 21.4155 5.71268 22.5452 7.10509 22.8249C10.753 23.549 11.3403 24.1362 12.0969 27.7761C12.101 27.7965 12.1052 27.8168 12.1133 27.8331C12.3646 29.2377 13.6202 30.2578 14.9957 30.2526C16.4567 30.2516 17.6793 29.1595 17.8635 27.7274C18.2958 26.2836 18.2786 23.9436 20.7394 23.3018C23.0536 22.6759 23.3467 22.701 23.9481 22.2872Z" fill="#00ADB6"/>
</g>
<defs>
<clipPath id="clip0_150_1851">
<rect width="33.4766" height="36.9912" fill="white" transform="translate(0.429688 0.982422)"/>
</clipPath>
</defs>
</svg>
