<svg width="34" height="38" viewBox="0 0 34 38" fill="none" xmlns="http://www.w3.org/2000/svg">
<g clip-path="url(#clip0_150_1838)">
<circle cx="14.4473" cy="23.5088" r="14.4473" fill="#9EF4F9"/>
<path d="M23.5184 22.2696C24.8879 21.3569 24.6619 20.3349 25.3085 18.2201C25.6071 17.0243 26.4842 16.139 27.6719 15.8322C28.6518 15.407 32.2046 15.4106 32.1819 12.4153C32.1744 10.8077 30.8571 9.50671 29.2537 9.51141C26.2584 9.52127 26.2864 13.0741 25.8775 14.054C25.5789 15.2498 24.7017 16.1351 23.5141 16.4419C21.1998 17.0677 20.9067 17.0427 20.3053 17.4565C18.9317 18.3733 19.1618 19.3912 18.5152 21.506C17.9624 23.7227 15.3022 24.3193 14.4476 24.3257C11.0576 24.355 10.3554 21.3949 9.96063 19.4976C9.67277 18.1052 8.52687 17.0161 7.06588 17.0171C5.45838 17.0177 4.16298 18.3294 4.17456 19.9329C4.18584 21.3979 5.28299 22.5276 6.6754 22.8073C10.3233 23.5314 10.9106 24.1187 11.6672 27.7585C11.6714 27.7789 11.6755 27.7992 11.6836 27.8155C11.9349 29.2201 13.1905 30.2402 14.5661 30.235C16.027 30.2341 17.2497 29.142 17.4338 27.7098C17.8661 26.2661 17.8489 23.926 20.3097 23.2842C22.6239 22.6584 22.917 22.6834 23.5184 22.2696Z" fill="#00ADB6"/>
</g>
<defs>
<clipPath id="clip0_150_1838">
<rect width="33.4766" height="36.9912" fill="white" transform="translate(0 0.964844)"/>
</clipPath>
</defs>
</svg>
