<svg width="17" height="23" viewBox="0 0 17 23" fill="none" xmlns="http://www.w3.org/2000/svg">
<g clip-path="url(#clip0_2035_2349)">
<path d="M15.3304 8.2C15.3304 9.11349 14.9797 10.4044 14.3435 11.9065C13.7187 13.3819 12.8626 14.9599 11.9527 16.4123C11.0422 17.8656 10.0952 19.1656 9.2997 20.0896C8.89948 20.5544 8.55808 20.9 8.29491 21.1198C8.26037 21.1486 8.22874 21.174 8.2 21.1961C8.17126 21.174 8.13963 21.1486 8.10509 21.1198C7.84192 20.9 7.50052 20.5544 7.1003 20.0896C6.3048 19.1656 5.35778 17.8656 4.4473 16.4123C3.53743 14.9599 2.68133 13.3819 2.05647 11.9065C1.42028 10.4044 1.06957 9.11349 1.06957 8.2C1.06957 4.26197 4.26197 1.06957 8.2 1.06957C12.138 1.06957 15.3304 4.26197 15.3304 8.2ZM7.99973 21.3281C7.99978 21.3279 8.00319 21.3262 8.00974 21.3237C8.00296 21.327 7.99969 21.3283 7.99973 21.3281ZM8.39027 21.3237C8.39684 21.3262 8.40024 21.3279 8.40027 21.3281C8.40029 21.3283 8.39703 21.327 8.39027 21.3237Z" stroke="white" stroke-width="2.13913"/>
<circle cx="8.19993" cy="8.19993" r="2.65771" stroke="white" stroke-width="2.13913"/>
</g>
<defs>
<clipPath id="clip0_2035_2349">
<rect width="16.4" height="22.3636" fill="white"/>
</clipPath>
</defs>
</svg>
