<svg width="451" height="104" viewBox="0 0 451 104" fill="none" xmlns="http://www.w3.org/2000/svg">
<g clip-path="url(#clip0_2030_2316)">
<path d="M105.438 71.2183V103.56L83.5645 77.2214V103.249H80.8663V70.1772L102.717 96.5154V71.2183H105.438Z" fill="white"/>
<path d="M114.063 103.249V70.7975H132.774V73.5221H116.761V82.7593H127.532V85.484H116.761V100.525H133.879V103.249H114.063Z" fill="white"/>
<path d="M150.998 103.604C149.184 103.604 147.503 103.271 145.911 102.607C144.341 101.942 142.947 101.034 141.753 99.8821C140.559 98.7303 139.608 97.4012 138.922 95.8727C138.214 94.3442 137.883 92.7272 137.883 90.9994V70.775H140.47V90.9994C140.47 92.3506 140.758 93.6354 141.311 94.8537C141.863 96.0721 142.615 97.1132 143.566 97.9993C144.517 98.8853 145.623 99.572 146.928 100.104C148.211 100.613 149.582 100.879 151.02 100.879C152.457 100.879 153.74 100.613 155.001 100.104C156.261 99.5942 157.345 98.8853 158.296 97.9993C159.247 97.1132 159.977 96.0721 160.508 94.8537C161.038 93.6354 161.304 92.3506 161.304 90.9994V70.775H164.024V90.9994C164.024 92.7272 163.67 94.3442 162.985 95.8727C162.277 97.4012 161.348 98.7303 160.176 99.8821C159.004 101.034 157.633 101.942 156.04 102.607C154.47 103.271 152.789 103.604 151.02 103.604" fill="white"/>
<path d="M175.392 73.522V88.0756H181.983C183 88.0756 183.973 87.8762 184.88 87.4996C185.787 87.123 186.561 86.5914 187.224 85.949C187.888 85.2845 188.397 84.5313 188.773 83.6674C189.148 82.7813 189.325 81.851 189.325 80.8763C189.325 79.9016 189.148 78.9048 188.773 77.9966C188.397 77.1105 187.888 76.3352 187.224 75.6707C186.561 75.0283 185.787 74.4967 184.88 74.1201C183.973 73.7214 183.022 73.5442 181.983 73.5442H175.392V73.522ZM175.392 90.8002V103.272H172.804V70.8195H181.983C183.42 70.8195 184.747 71.1075 185.964 71.6613C187.18 72.2151 188.22 72.9461 189.104 73.8764C189.989 74.8068 190.675 75.8701 191.161 77.0662C191.648 78.2846 191.891 79.5251 191.891 80.7877C191.891 82.8035 191.36 84.6421 190.321 86.3034C189.281 87.9648 187.777 89.161 185.853 89.9141L189.237 94.2337C189.724 94.8539 190.276 95.5628 190.874 96.3602C191.471 97.1577 192.068 97.9552 192.687 98.7748C193.306 99.5722 193.904 100.37 194.501 101.167C195.098 101.942 195.629 102.651 196.071 103.272H192.687L183.089 90.8002H175.392Z" fill="white"/>
<path d="M227.874 87.0788C227.874 85.1517 227.521 83.3352 226.791 81.6517C226.061 79.9682 225.088 78.5062 223.805 77.2436C222.522 75.9809 221.063 75.0062 219.382 74.2752C217.701 73.5664 215.932 73.1898 214.03 73.1898C212.128 73.1898 210.314 73.5442 208.611 74.2752C206.93 74.9841 205.47 75.9809 204.21 77.2436C202.949 78.5062 201.976 79.9682 201.268 81.6517C200.561 83.3352 200.185 85.1517 200.185 87.0788C200.185 89.006 200.538 90.8003 201.268 92.4838C201.976 94.1452 202.971 95.6072 204.21 96.8698C205.47 98.1325 206.93 99.1071 208.611 99.8381C210.292 100.547 212.083 100.924 214.03 100.924C215.976 100.924 217.701 100.569 219.382 99.8381C221.063 99.1293 222.522 98.1325 223.805 96.8698C225.088 95.6072 226.061 94.1452 226.791 92.4838C227.498 90.8225 227.874 89.0282 227.874 87.0788ZM214.052 70.4873C216.352 70.4873 218.519 70.9082 220.532 71.7721C222.544 72.636 224.292 73.8101 225.773 75.3164C227.255 76.8227 228.427 78.5726 229.29 80.5884C230.152 82.6042 230.573 84.7529 230.573 87.0567C230.573 89.3604 230.152 91.5091 229.29 93.5028C228.427 95.4964 227.255 97.2464 225.773 98.7527C224.292 100.259 222.544 101.433 220.532 102.297C218.519 103.161 216.352 103.582 214.052 103.582C211.752 103.582 209.606 103.161 207.616 102.297C205.603 101.433 203.878 100.259 202.374 98.7527C200.87 97.2464 199.676 95.4964 198.813 93.5028C197.951 91.5091 197.531 89.3604 197.531 87.0567C197.531 84.7529 197.973 82.6042 198.813 80.5884C199.676 78.5726 200.87 76.8227 202.374 75.3164C203.878 73.8101 205.625 72.636 207.616 71.7721C209.606 70.9082 211.774 70.4873 214.052 70.4873Z" fill="white"/>
<path d="M255.144 73.5221H239.574V82.8922H251.893V85.5947H239.574V103.249H236.987V70.7975H255.144V73.5221Z" fill="white"/>
<path d="M259.523 103.249V70.7975H278.256V73.5221H262.243V82.7593H273.014V85.484H262.243V100.525H279.362V103.249H259.523Z" fill="white"/>
<path d="M283.785 103.249V70.7975H302.518V73.5221H286.505V82.7593H297.276V85.484H286.505V100.525H303.623V103.249H283.785Z" fill="white"/>
<path d="M331.645 87.123C331.645 85.2402 331.291 83.468 330.561 81.8288C329.854 80.1896 328.858 78.7498 327.642 77.5314C326.403 76.2909 324.966 75.3384 323.329 74.6074C321.693 73.8986 319.923 73.522 318.043 73.522H310.723V100.547H318.043C319.923 100.547 321.693 100.192 323.329 99.5058C324.966 98.7969 326.403 97.8665 327.642 96.6482C328.881 95.4299 329.854 94.0122 330.561 92.373C331.269 90.7337 331.645 88.9838 331.645 87.1452M318.043 70.8195C320.299 70.8195 322.423 71.2404 324.391 72.0822C326.359 72.9239 328.084 74.0758 329.544 75.5599C331.004 77.0441 332.154 78.7719 332.994 80.7434C333.835 82.7149 334.255 84.8414 334.255 87.1009C334.255 89.3603 333.835 91.4204 332.994 93.3919C332.154 95.3634 331.004 97.0912 329.544 98.5532C328.084 100.015 326.381 101.167 324.391 102.009C322.423 102.851 320.299 103.272 318.043 103.272H308.135V70.8195H318.043Z" fill="white"/>
<path d="M359.91 79.237C359.91 78.4174 359.777 77.6643 359.468 76.9776C359.18 76.2909 358.782 75.6928 358.273 75.139C357.765 74.6074 357.145 74.2086 356.46 73.9207C355.774 73.6327 355.022 73.4776 354.248 73.4776H344.495V84.9521H354.248C355.022 84.9521 355.774 84.7971 356.46 84.4869C357.168 84.199 357.765 83.7781 358.273 83.2465C358.782 82.7148 359.18 82.0946 359.468 81.4079C359.755 80.699 359.91 79.968 359.91 79.2149M354.292 70.7751C355.487 70.7751 356.593 71.0188 357.632 71.484C358.649 71.9492 359.534 72.5916 360.286 73.3447C361.038 74.12 361.613 75.0282 362.011 76.025C362.431 77.0219 362.63 78.0851 362.63 79.1927C362.63 80.544 362.276 81.8509 361.591 83.0692C360.905 84.3097 360.021 85.3287 358.937 86.1483C360.33 86.9236 361.436 88.0312 362.254 89.4489C363.073 90.8887 363.493 92.4393 363.493 94.1229C363.493 95.3634 363.272 96.5374 362.807 97.645C362.365 98.7525 361.724 99.7272 360.927 100.547C360.131 101.389 359.202 102.031 358.119 102.496C357.057 102.961 355.907 103.205 354.668 103.205H341.797V70.753H354.27L354.292 70.7751ZM354.713 100.503C356.482 100.503 357.942 99.8823 359.136 98.6418C360.308 97.4013 360.905 95.9171 360.905 94.145C360.905 93.2811 360.75 92.4393 360.419 91.6419C360.087 90.8444 359.645 90.1577 359.114 89.5818C358.561 89.0059 357.897 88.5407 357.145 88.1862C356.393 87.8318 355.575 87.6546 354.713 87.6546H344.539V100.48H354.713V100.503Z" fill="white"/>
<path d="M379.815 70.4873C382.071 75.7816 384.304 81.0758 386.538 86.37C388.75 91.6642 390.984 97.0913 393.262 102.696L390.917 103.316L385.631 91.1547H374.308L369.022 103.427L366.567 102.806L379.859 70.4873H379.815ZM384.548 88.8731L379.815 76.6676C379.527 77.3986 379.24 78.1739 378.93 78.9714C378.62 79.7688 378.289 80.6549 377.935 81.6296C377.581 82.6042 377.183 83.6675 376.741 84.8415C376.298 86.0156 375.79 87.3668 375.259 88.8731H384.548Z" fill="white"/>
<path d="M422.677 98.9964C420.951 100.436 419.116 101.566 417.192 102.363C415.268 103.161 413.299 103.56 411.287 103.56C408.986 103.56 406.841 103.139 404.829 102.275C402.816 101.411 401.069 100.237 399.565 98.7306C398.061 97.2243 396.867 95.4743 395.982 93.4807C395.097 91.4871 394.655 89.3384 394.655 87.0346C394.655 84.7308 395.097 82.5821 395.982 80.5663C396.867 78.5506 398.061 76.7784 399.565 75.2721C401.069 73.7437 402.816 72.5475 404.829 71.6836C406.841 70.8197 408.986 70.3988 411.287 70.3988C412.923 70.3988 414.648 70.7311 416.44 71.3956C418.231 72.0602 420 72.9684 421.77 74.1646L419.624 75.8259C416.948 74.0095 414.184 73.1013 411.309 73.1013C409.385 73.1013 407.571 73.4557 405.89 74.1867C404.209 74.8956 402.727 75.8924 401.445 77.1772C400.162 78.462 399.167 79.924 398.459 81.6296C397.751 83.3131 397.375 85.1296 397.375 87.0567C397.375 88.9839 397.729 90.7782 398.459 92.4617C399.167 94.1231 400.184 95.5851 401.445 96.8477C402.727 98.1104 404.187 99.085 405.89 99.816C407.571 100.525 409.385 100.901 411.309 100.901C412.945 100.901 414.604 100.569 416.241 99.9046C417.877 99.2401 419.425 98.3319 420.863 97.1357L422.721 99.0407L422.677 98.9964Z" fill="white"/>
<path d="M451.008 101.765L448.84 103.493L431.899 87.8762L431.346 88.43V103.249H428.759V70.7974H431.346V84.6864L447.359 70.4208L449.283 72.348L433.934 86.0376L451.008 101.765Z" fill="white"/>
<path d="M42.4056 85.395C47.0501 78.4615 50.7435 72.4585 46.6299 65.4364C46.6299 65.4364 43.6441 60.0979 42.5162 58.4144C42.472 58.3479 42.4277 58.2815 42.3835 58.215C39.243 53.7183 39.8844 47.538 43.6442 43.8165C47.6472 39.8292 53.9504 39.5191 58.3295 42.8862C61.271 44.4589 63.748 46.4083 65.2741 47.0285C79.119 55.3132 88.0319 32.1648 99.8643 44.0602C104.243 48.4905 104.199 55.6011 99.7979 60.0093C86.7271 72.9236 76.8189 43.152 59.4353 60.1865C50.1243 69.3129 56.2727 79.259 60.3863 85.4836C63.3942 90.0468 63.2394 96.1163 59.2584 100.081C54.8793 104.445 47.7799 104.401 43.4451 100.015C39.4863 96.0056 39.3978 89.9582 42.4277 85.4171" fill="white"/>
<path d="M19.1834 59.611C14.738 63.997 7.66073 63.9527 3.25955 59.5445C-1.11952 55.0921 -1.07528 48.0036 3.3259 43.5954C7.77131 39.2094 14.8486 39.2537 19.2498 43.6619C23.6288 48.1143 23.5846 55.2028 19.1834 59.611Z" fill="white"/>
<path d="M99.9306 3.7223C104.288 8.10831 104.243 15.219 99.8643 19.5607C91.6812 27.6681 82.0826 17.9214 78.3007 16.393C74.2313 13.9563 69.4541 13.9342 65.3626 16.3265C60.6075 18.3645 52.0927 27.7789 43.7769 19.4056C40.2161 15.7949 39.5748 10.4121 41.8306 6.15897C41.8306 6.13682 41.8528 6.11467 41.8749 6.09252C48.9522 -6.95474 62.6865 5.71594 65.4068 6.62415C69.4762 9.06082 74.2755 9.08297 78.345 6.69061C82.1711 5.1843 91.836 -4.47377 99.9306 3.7223Z" fill="white"/>
<path d="M69.5869 20.8232C75.8016 19.5827 77.9691 22.9719 85.4887 26.9592C89.5581 29.3958 94.3574 29.418 98.4268 27.0256C102.253 25.5193 111.918 15.8612 120.012 24.0573C124.369 28.4433 124.325 35.554 119.946 39.8957C111.763 48.0031 102.164 38.2786 98.3826 36.728C94.3131 34.2913 89.5139 34.2692 85.4444 36.6615C77.4383 41.2469 76.7084 42.1108 73.9439 42.6203C67.707 43.8608 65.5617 40.4716 58.0421 36.4843C50.5004 31.9654 41.6317 37.5698 39.2873 39.8735C29.9763 48.9999 36.1247 58.946 40.2162 65.1706C43.2241 69.7338 43.0692 75.8033 39.0883 79.7684C34.7092 84.1323 27.6098 84.088 23.275 79.702C19.3161 75.6926 19.2277 69.6452 22.2576 65.1041C30.2196 53.2309 30.2196 50.0411 22.3682 38.1014C22.324 38.0349 22.2797 37.9685 22.2576 37.902C19.1171 33.4053 19.7585 27.225 23.5183 23.5035C27.4992 19.5384 33.8024 19.184 38.2036 22.5732C43.3125 25.32 49.6378 31.7217 58.0863 26.782C66.0925 22.1966 66.8223 21.3327 69.5869 20.8232Z" fill="white"/>
</g>
<defs>
<clipPath id="clip0_2030_2316">
<rect width="451.008" height="103.374" fill="white" transform="translate(0 0.229492)"/>
</clipPath>
</defs>
</svg>
