<svg width="35" height="37" viewBox="0 0 35 37" fill="none" xmlns="http://www.w3.org/2000/svg">
<g clip-path="url(#clip0_150_1845)">
<circle cx="15.4004" cy="22.5352" r="14.4473" fill="#9EF4F9"/>
<path d="M24.4716 21.296C25.8411 20.3832 25.615 19.3613 26.2616 17.2465C26.5602 16.0506 27.4374 15.1653 28.625 14.8586C29.6049 14.4334 33.1577 14.4369 33.135 11.4416C33.1275 9.83411 31.8102 8.53308 30.2068 8.53778C27.2116 8.54763 27.2395 12.1005 26.8306 13.0804C26.532 14.2762 25.6549 15.1615 24.4672 15.4683C22.1529 16.0941 21.8599 16.069 21.2584 16.4828C19.8849 17.3996 20.115 18.4175 19.4683 20.5324C18.9156 22.7491 16.2553 23.3457 15.4007 23.352C12.0108 23.3814 11.3085 20.4213 10.9138 18.524C10.6259 17.1315 9.48 16.0425 8.019 16.0434C6.4115 16.0441 5.11611 17.3558 5.12768 18.9592C5.13897 20.4243 6.23612 21.5539 7.62853 21.8337C11.2765 22.5577 11.8637 23.145 12.6204 26.7849C12.6245 26.8053 12.6286 26.8256 12.6368 26.8419C12.888 28.2465 14.1437 29.2666 15.5192 29.2614C16.9802 29.2604 18.2028 28.1683 18.3869 26.7362C18.8193 25.2924 18.802 22.9524 21.2628 22.3106C23.5771 21.6847 23.8701 21.7098 24.4716 21.296Z" fill="#00ADB6"/>
</g>
<defs>
<clipPath id="clip0_150_1845">
<rect width="33.4766" height="36.9912" fill="white" transform="translate(0.953125 -0.00878906)"/>
</clipPath>
</defs>
</svg>
