<svg width="34" height="37" viewBox="0 0 34 37" fill="none" xmlns="http://www.w3.org/2000/svg">
<g clip-path="url(#clip0_150_1839)">
<circle cx="14.9238" cy="22.544" r="14.4473" fill="#9EF4F9"/>
<path d="M23.995 21.3048C25.3645 20.392 25.1385 19.3701 25.7851 17.2552C26.0837 16.0594 26.9608 15.1741 28.1485 14.8674C29.1283 14.4422 32.6811 14.4457 32.6584 11.4504C32.6509 9.8429 31.3336 8.54187 29.7302 8.54657C26.735 8.55642 26.763 12.1093 26.354 13.0892C26.0554 14.285 25.1783 15.1703 23.9906 15.477C21.6764 16.1029 21.3833 16.0778 20.7819 16.4916C19.4083 17.4084 19.6384 18.4263 18.9918 20.5411C18.439 22.7579 15.7787 23.3545 14.9241 23.3608C11.5342 23.3902 10.8319 20.43 10.4372 18.5328C10.1493 17.1403 9.00344 16.0513 7.54244 16.0522C5.93494 16.0528 4.63955 17.3646 4.65112 18.968C4.6624 20.4331 5.75955 21.5627 7.15196 21.8425C10.7999 22.5665 11.3872 23.1538 12.1438 26.7937C12.1479 26.814 12.152 26.8344 12.1602 26.8507C12.4115 28.2553 13.6671 29.2754 15.0426 29.2702C16.5036 29.2692 17.7262 28.1771 17.9104 26.745C18.3427 25.3012 18.3255 22.9611 20.7862 22.3193C23.1005 21.6935 23.3936 21.7186 23.995 21.3048Z" fill="#00ADB6"/>
</g>
<defs>
<clipPath id="clip0_150_1839">
<rect width="33.4766" height="36.9912" fill="white" transform="translate(0.476562)"/>
</clipPath>
</defs>
</svg>
