<svg width="34" height="38" viewBox="0 0 34 38" fill="none" xmlns="http://www.w3.org/2000/svg">
<g clip-path="url(#clip0_150_1842)">
<circle cx="14.9238" cy="23.5176" r="14.4473" fill="#9EF4F9"/>
<path d="M23.995 22.2784C25.3645 21.3657 25.1385 20.3437 25.7851 18.2289C26.0837 17.033 26.9608 16.1478 28.1485 15.841C29.1283 15.4158 32.6811 15.4193 32.6584 12.4241C32.6509 10.8165 31.3336 9.5155 29.7302 9.5202C26.735 9.53006 26.763 13.0829 26.354 14.0628C26.0554 15.2586 25.1783 16.1439 23.9906 16.4507C21.6764 17.0765 21.3833 17.0515 20.7819 17.4653C19.4083 18.3821 19.6384 19.4 18.9918 21.5148C18.439 23.7315 15.7787 24.3281 14.9241 24.3344C11.5342 24.3638 10.8319 21.4037 10.4372 19.5064C10.1493 18.114 9.00344 17.0249 7.54244 17.0259C5.93494 17.0265 4.63955 18.3382 4.65112 19.9416C4.6624 21.4067 5.75955 22.5364 7.15196 22.8161C10.7999 23.5402 11.3872 24.1274 12.1438 27.7673C12.1479 27.7877 12.152 27.808 12.1602 27.8243C12.4115 29.2289 13.6671 30.249 15.0426 30.2438C16.5036 30.2429 17.7262 29.1507 17.9104 27.7186C18.3427 26.2748 18.3255 23.9348 20.7862 23.293C23.1005 22.6672 23.3936 22.6922 23.995 22.2784Z" fill="#00ADB6"/>
</g>
<defs>
<clipPath id="clip0_150_1842">
<rect width="33.4766" height="36.9912" fill="white" transform="translate(0.476562 0.973633)"/>
</clipPath>
</defs>
</svg>
