<svg width="34" height="38" viewBox="0 0 34 38" fill="none" xmlns="http://www.w3.org/2000/svg">
<g clip-path="url(#clip0_150_1841)">
<circle cx="14.9238" cy="23.5264" r="14.4473" fill="#9EF4F9"/>
<path d="M23.995 22.2872C25.3645 21.3744 25.1385 20.3525 25.7851 18.2377C26.0837 17.0418 26.9608 16.1565 28.1485 15.8498C29.1283 15.4246 32.6811 15.4281 32.6584 12.4328C32.6509 10.8253 31.3336 9.52429 29.7302 9.52899C26.735 9.53885 26.763 13.0917 26.354 14.0716C26.0554 15.2674 25.1783 16.1527 23.9906 16.4595C21.6764 17.0853 21.3833 17.0602 20.7819 17.4741C19.4083 18.3908 19.6384 19.4087 18.9918 21.5236C18.439 23.7403 15.7787 24.3369 14.9241 24.3432C11.5342 24.3726 10.8319 21.4125 10.4372 19.5152C10.1493 18.1227 9.00344 17.0337 7.54244 17.0346C5.93494 17.0353 4.63955 18.347 4.65112 19.9504C4.6624 21.4155 5.75955 22.5452 7.15196 22.8249C10.7999 23.549 11.3872 24.1362 12.1438 27.7761C12.1479 27.7965 12.152 27.8168 12.1602 27.8331C12.4115 29.2377 13.6671 30.2578 15.0426 30.2526C16.5036 30.2516 17.7262 29.1595 17.9104 27.7274C18.3427 26.2836 18.3255 23.9436 20.7862 23.3018C23.1005 22.6759 23.3936 22.701 23.995 22.2872Z" fill="#00ADB6"/>
</g>
<defs>
<clipPath id="clip0_150_1841">
<rect width="33.4766" height="36.9912" fill="white" transform="translate(0.476562 0.982422)"/>
</clipPath>
</defs>
</svg>
