<svg width="22" height="22" viewBox="0 0 22 22" fill="none" xmlns="http://www.w3.org/2000/svg">
<g clip-path="url(#clip0_2035_2348)">
<path d="M16.0235 22H16.0543C16.6351 22 17.184 21.7712 17.5998 21.3554L20.5831 18.372C20.6854 18.2699 20.7665 18.1487 20.8218 18.0153C20.8772 17.8818 20.9057 17.7388 20.9057 17.5943C20.9057 17.4498 20.8772 17.3067 20.8218 17.1733C20.7665 17.0398 20.6854 16.9186 20.5831 16.8165L16.183 12.4163C16.0809 12.3141 15.9597 12.233 15.8262 12.1776C15.6928 12.1223 15.5497 12.0938 15.4052 12.0938C15.2608 12.0938 15.1177 12.1223 14.9843 12.1776C14.8508 12.233 14.7296 12.3141 14.6275 12.4163L12.874 14.1698C12.0611 13.9278 10.5442 13.3778 9.58271 12.4163C8.62128 11.4549 8.07125 9.9379 7.82924 9.12496L9.58271 7.37147C9.68496 7.2694 9.76607 7.14817 9.82142 7.01471C9.87676 6.88126 9.90525 6.7382 9.90525 6.59373C9.90525 6.44926 9.87676 6.3062 9.82142 6.17275C9.76607 6.03929 9.68496 5.91806 9.58271 5.81599L5.18254 1.41577C4.97224 1.21727 4.694 1.10669 4.40481 1.10669C4.11562 1.10669 3.83738 1.21727 3.62708 1.41577L0.644863 4.39912C0.226847 4.81714 -0.00856214 5.39137 0.000238209 5.9777C0.0255392 7.54418 0.440255 12.985 4.72822 17.2731C9.01619 21.5611 14.457 21.9747 16.0235 22ZM4.40591 3.74899L7.25062 6.59373L5.82827 8.0161C5.69883 8.14518 5.60374 8.3046 5.55168 8.47983C5.49961 8.65506 5.49221 8.84053 5.53015 9.01935C5.55656 9.14586 6.20228 12.1457 8.02835 13.9718C9.85442 15.7979 12.8542 16.4436 12.9807 16.47C13.1596 16.5082 13.3451 16.5009 13.5203 16.4488C13.6956 16.3967 13.855 16.3015 13.984 16.1719L15.4063 14.7495L18.2511 17.5943L16.0444 19.7999C14.6715 19.7768 9.97433 19.4083 6.28368 15.7165C2.58094 12.0137 2.22233 7.29997 2.20032 5.9546L4.40591 3.74899ZM19.7999 9.89939H22C22 4.25611 17.7395 0 12.0886 0V2.20011C16.557 2.20011 19.7999 5.43757 19.7999 9.89939Z" fill="white"/>
<path d="M12.0997 6.60033C14.4131 6.60033 15.3998 7.58708 15.3998 9.90049H17.5999C17.5999 6.35282 15.6473 4.40022 12.0997 4.40022V6.60033Z" fill="white"/>
</g>
<defs>
<clipPath id="clip0_2035_2348">
<rect width="22" height="22" fill="white"/>
</clipPath>
</defs>
</svg>
