<svg width="1350" height="122" viewBox="0 0 1350 122" fill="none" xmlns="http://www.w3.org/2000/svg">
<g clip-path="url(#clip0_72_1367)">
<path d="M89.7251 3.79055V121.539L9.96256 25.6466V120.41H0.123291V0L79.8052 95.8925V3.79055H89.7251Z" fill="white"/>
<path d="M121.179 120.41V2.25853H189.408V12.1784H131.018V45.8094H170.294V55.7293H131.018V110.49H193.441V120.41H121.179Z" fill="white"/>
<path d="M255.864 121.701C249.25 121.701 243.121 120.491 237.314 118.071C231.588 115.652 226.507 112.345 222.152 108.151C217.797 103.958 214.329 99.1186 211.829 93.5538C209.248 87.989 208.038 82.1016 208.038 75.8109V2.17774H217.474V75.8109C217.474 80.7305 218.523 85.4082 220.539 89.8439C222.555 94.2797 225.297 98.0702 228.765 101.296C232.233 104.522 236.266 107.022 241.024 108.958C245.702 110.813 250.702 111.781 255.944 111.781C261.187 111.781 265.864 110.813 270.461 108.958C275.058 107.103 279.01 104.522 282.478 101.296C285.946 98.0702 288.607 94.2797 290.543 89.8439C292.479 85.4082 293.446 80.7305 293.446 75.8109V2.17774H303.366V75.8109C303.366 82.1016 302.076 87.989 299.576 93.5538C296.995 99.1186 293.608 103.958 289.333 108.151C285.059 112.345 280.059 115.652 274.252 118.071C268.526 120.491 262.396 121.701 255.944 121.701" fill="white"/>
<path d="M344.821 12.1785V65.1654H368.854C372.564 65.1654 376.113 64.4395 379.419 63.0684C382.726 61.6974 385.549 59.7618 387.968 57.423C390.388 55.0035 392.243 52.2614 393.614 49.1161C394.985 45.8901 395.63 42.5028 395.63 38.9542C395.63 35.4056 394.985 31.7764 393.614 28.4697C392.243 25.2437 390.388 22.421 387.968 20.0015C385.549 17.6627 382.726 15.7271 379.419 14.356C376.113 12.9043 372.645 12.2592 368.854 12.2592H344.821V12.1785ZM344.821 75.0853V120.491H335.385V2.33924H368.854C374.096 2.33924 378.935 3.3877 383.371 5.40394C387.807 7.42018 391.598 10.0816 394.823 13.4689C398.049 16.8562 400.55 20.7274 402.324 25.0825C404.098 29.5182 404.985 34.0346 404.985 38.6316C404.985 45.9707 403.05 52.6646 399.259 58.7134C395.469 64.7621 389.984 69.1172 382.968 71.8593L395.307 87.586C397.082 89.8442 399.098 92.4249 401.275 95.3283C403.453 98.2317 405.631 101.135 407.889 104.119C410.147 107.023 412.324 109.926 414.502 112.829C416.68 115.652 418.615 118.233 420.228 120.491H407.889L372.887 75.0853H344.821Z" fill="white"/>
<path d="M536.202 61.536C536.202 54.5194 534.911 47.9062 532.25 41.7768C529.588 35.6474 526.04 30.3245 521.362 25.7275C516.684 21.1304 511.362 17.5819 505.232 14.9204C499.103 12.3396 492.651 10.9686 485.715 10.9686C478.779 10.9686 472.166 12.259 465.956 14.9204C459.826 17.5012 454.504 21.1304 449.907 25.7275C445.309 30.3245 441.761 35.6474 439.18 41.7768C436.599 47.9062 435.228 54.5194 435.228 61.536C435.228 68.5525 436.519 75.0851 439.18 81.2145C441.761 87.2632 445.39 92.5861 449.907 97.1831C454.504 101.78 459.826 105.329 465.956 107.99C472.085 110.571 478.618 111.942 485.715 111.942C492.812 111.942 499.103 110.652 505.232 107.99C511.362 105.409 516.684 101.78 521.362 97.1831C526.04 92.5861 529.588 87.2632 532.25 81.2145C534.831 75.1657 536.202 68.6331 536.202 61.536ZM485.796 1.12932C494.183 1.12932 502.087 2.66168 509.426 5.80702C516.765 8.95236 523.136 13.2268 528.54 18.711C533.943 24.1951 538.218 30.5665 541.363 37.9056C544.509 45.2447 546.041 53.0677 546.041 61.4553C546.041 69.8429 544.509 77.6659 541.363 84.9244C538.218 92.1828 533.943 98.5542 528.54 104.038C523.136 109.523 516.765 113.797 509.426 116.942C502.087 120.088 494.183 121.62 485.796 121.62C477.408 121.62 469.585 120.088 462.327 116.942C454.987 113.797 448.697 109.523 443.213 104.038C437.728 98.5542 433.373 92.1828 430.228 84.9244C427.083 77.6659 425.55 69.8429 425.55 61.4553C425.55 53.0677 427.163 45.2447 430.228 37.9056C433.373 30.5665 437.728 24.1951 443.213 18.711C448.697 13.2268 455.068 8.95236 462.327 5.80702C469.585 2.66168 477.489 1.12932 485.796 1.12932Z" fill="white"/>
<path d="M635.644 12.1784H578.866V46.2933H623.788V56.1325H578.866V120.41H569.43V2.25853H635.644V12.1784Z" fill="white"/>
<path d="M651.612 120.41V2.25853H719.922V12.1784H661.532V45.8094H700.808V55.7293H661.532V110.49H723.954V120.41H651.612Z" fill="white"/>
<path d="M740.085 120.41V2.25853H808.395V12.1784H750.005V45.8094H789.281V55.7293H750.005V110.49H812.428V120.41H740.085Z" fill="white"/>
<path d="M914.61 61.6974C914.61 54.8422 913.32 48.3902 910.658 42.4221C908.078 36.4541 904.448 31.2118 900.013 26.7761C895.496 22.2597 890.254 18.7918 884.286 16.1303C878.318 13.5495 871.866 12.1785 865.011 12.1785H838.316V110.571H865.011C871.866 110.571 878.318 109.281 884.286 106.781C890.254 104.2 895.496 100.813 900.013 96.3768C904.529 91.941 908.078 86.7795 910.658 80.8114C913.239 74.8433 914.61 68.472 914.61 61.7781M865.011 2.33924C873.237 2.33924 880.979 3.87159 888.157 6.93627C895.335 10.001 901.626 14.1947 906.948 19.5983C912.271 25.0018 916.465 31.2925 919.53 38.4703C922.595 45.6481 924.127 53.3905 924.127 61.6167C924.127 69.843 922.595 77.3434 919.53 84.5213C916.465 91.6991 912.271 97.9898 906.948 103.313C901.626 108.636 895.416 112.829 888.157 115.894C880.979 118.959 873.237 120.491 865.011 120.491H828.88V2.33924H865.011Z" fill="white"/>
<path d="M1017.68 32.9859C1017.68 30.0018 1017.2 27.2597 1016.07 24.7596C1015.02 22.2594 1013.57 20.0819 1011.71 18.0657C1009.86 16.1301 1007.6 14.6784 1005.1 13.6299C1002.6 12.5815 999.858 12.0169 997.035 12.0169H961.468V53.7935H997.035C999.858 53.7935 1002.6 53.2289 1005.1 52.0998C1007.68 51.0514 1009.86 49.5191 1011.71 47.5835C1013.57 45.6479 1015.02 43.3897 1016.07 40.8895C1017.12 38.3087 1017.68 35.6473 1017.68 32.9052M997.196 2.17768C1001.55 2.17768 1005.58 3.06482 1009.37 4.75846C1013.08 6.45211 1016.31 8.79095 1019.05 11.533C1021.79 14.3558 1023.89 17.6624 1025.34 21.2916C1026.88 24.9209 1027.6 28.7921 1027.6 32.8246C1027.6 37.7442 1026.31 42.5025 1023.81 46.9382C1021.31 51.4546 1018.08 55.1645 1014.13 58.1486C1019.21 60.9713 1023.25 65.0038 1026.23 70.1654C1029.21 75.4076 1030.75 81.0531 1030.75 87.1825C1030.75 91.6988 1029.94 95.9733 1028.25 100.006C1026.63 104.038 1024.29 107.587 1021.39 110.571C1018.49 113.636 1015.1 115.974 1011.15 117.668C1007.28 119.362 1003.08 120.249 998.567 120.249H951.629V2.09702H997.116L997.196 2.17768ZM998.728 110.41C1005.18 110.41 1010.5 108.151 1014.86 103.635C1019.13 99.1186 1021.31 93.7151 1021.31 87.2631C1021.31 84.1178 1020.75 81.0531 1019.54 78.1497C1018.33 75.2463 1016.71 72.7462 1014.78 70.6493C1012.76 68.5524 1010.34 66.8587 1007.6 65.5683C1004.86 64.2779 1001.87 63.6327 998.728 63.6327H961.63V110.329H998.728V110.41Z" fill="white"/>
<path d="M1090.27 1.12932C1098.49 20.4046 1106.64 39.6799 1114.78 58.9552C1122.85 78.2304 1130.99 97.9896 1139.3 118.394L1130.75 120.652L1111.48 76.3755H1070.18L1050.91 121.055L1041.96 118.797L1090.43 1.12932H1090.27ZM1107.52 68.0686L1090.27 23.6306C1089.22 26.292 1088.17 29.1148 1087.04 32.0182C1085.91 34.9216 1084.7 38.1475 1083.41 41.6961C1082.12 45.2447 1080.67 49.1159 1079.06 53.3903C1077.44 57.6647 1075.59 62.5844 1073.65 68.0686H1107.52Z" fill="white"/>
<path d="M1246.56 104.926C1240.27 110.168 1233.58 114.281 1226.56 117.185C1219.55 120.088 1212.37 121.54 1205.03 121.54C1196.64 121.54 1188.82 120.008 1181.48 116.862C1174.14 113.717 1167.77 109.443 1162.29 103.958C1156.8 98.4741 1152.45 92.1028 1149.22 84.8444C1145.99 77.5859 1144.38 69.7629 1144.38 61.3753C1144.38 52.9877 1145.99 45.1647 1149.22 37.8256C1152.45 30.4865 1156.8 24.0345 1162.29 18.5503C1167.77 12.9855 1174.14 8.6304 1181.48 5.48506C1188.82 2.33972 1196.64 0.80738 1205.03 0.80738C1211 0.80738 1217.29 2.01712 1223.82 4.43661C1230.35 6.8561 1236.81 10.1627 1243.26 14.5178L1235.43 20.5665C1225.68 13.9533 1215.59 10.6466 1205.11 10.6466C1198.09 10.6466 1191.48 11.937 1185.35 14.5985C1179.22 17.1793 1173.82 20.8085 1169.14 25.4862C1164.46 30.1639 1160.83 35.4868 1158.25 41.6968C1155.67 47.8262 1154.3 54.4394 1154.3 61.4559C1154.3 68.4725 1155.59 75.0051 1158.25 81.1345C1160.83 87.1832 1164.54 92.5061 1169.14 97.1031C1173.82 101.7 1179.14 105.249 1185.35 107.91C1191.48 110.491 1198.09 111.862 1205.11 111.862C1211.08 111.862 1217.13 110.652 1223.1 108.233C1229.06 105.813 1234.71 102.507 1239.95 98.1516L1246.73 105.087L1246.56 104.926Z" fill="white"/>
<path d="M1349.88 115.007L1341.97 121.298L1280.2 64.4401L1278.18 66.4563V120.411H1268.74V2.25914H1278.18V52.8265L1336.57 0.888099L1343.59 7.90461L1287.62 57.7461L1349.88 115.007Z" fill="white"/>
</g>
<defs>
<clipPath id="clip0_72_1367">
<rect width="1349.75" height="121.701" fill="white" transform="translate(0.123291)"/>
</clipPath>
</defs>
</svg>
