<svg width="34" height="37" viewBox="0 0 34 37" fill="none" xmlns="http://www.w3.org/2000/svg">
<g clip-path="url(#clip0_150_1849)">
<circle cx="14.877" cy="22.544" r="14.4473" fill="#9EF4F9"/>
<path d="M23.9481 21.3048C25.3176 20.392 25.0916 19.3701 25.7382 17.2552C26.0368 16.0594 26.9139 15.1741 28.1016 14.8674C29.0815 14.4422 32.6343 14.4457 32.6116 11.4504C32.604 9.8429 31.2868 8.54187 29.6833 8.54657C26.6881 8.55642 26.7161 12.1093 26.3072 13.0892C26.0086 14.285 25.1314 15.1703 23.9438 15.477C21.6295 16.1029 21.3364 16.0778 20.735 16.4916C19.3614 17.4084 19.5915 18.4263 18.9449 20.5411C18.3921 22.7579 15.7319 23.3545 14.8773 23.3608C11.4873 23.3902 10.7851 20.43 10.3903 18.5328C10.1025 17.1403 8.95656 16.0513 7.49557 16.0522C5.88807 16.0528 4.59267 17.3646 4.60425 18.968C4.61553 20.4331 5.71268 21.5627 7.10509 21.8425C10.753 22.5665 11.3403 23.1538 12.0969 26.7937C12.101 26.814 12.1052 26.8344 12.1133 26.8507C12.3646 28.2553 13.6202 29.2754 14.9957 29.2702C16.4567 29.2692 17.6793 28.1771 17.8635 26.745C18.2958 25.3012 18.2786 22.9611 20.7394 22.3193C23.0536 21.6935 23.3467 21.7186 23.9481 21.3048Z" fill="#00ADB6"/>
</g>
<defs>
<clipPath id="clip0_150_1849">
<rect width="33.4766" height="36.9912" fill="white" transform="translate(0.429688)"/>
</clipPath>
</defs>
</svg>
