<svg width="174" height="85" viewBox="0 0 174 85" fill="none" xmlns="http://www.w3.org/2000/svg">
<g clip-path="url(#clip0_143_1600)">
<path fill-rule="evenodd" clip-rule="evenodd" d="M61.0793 50.2161C61.0793 34.3698 73.9253 21.5238 89.7713 21.5238C105.618 21.5238 118.464 34.3698 118.464 50.2161C118.464 66.0624 105.618 78.9083 89.7713 78.9083C73.9252 78.9083 61.0793 66.0625 61.0793 50.2161ZM46.9987 44.3616C52.8489 44.3616 57.6536 40.0124 60.3704 34.8313C65.916 24.255 77.0011 17.0397 89.7713 17.0397C108.094 17.0397 122.948 31.8933 122.948 50.2161C122.948 68.539 108.094 83.3924 89.7713 83.3924C77.0013 83.3924 65.9163 76.1774 60.3706 65.6014C57.6537 60.4202 52.8489 56.071 46.9986 56.071C41.7254 56.071 37.3079 59.8148 33.6797 63.6414C30.1232 67.3923 25.0925 69.7317 19.5155 69.7317C8.73738 69.7317 0 60.9943 0 50.2161C0 39.438 8.73738 30.7006 19.5155 30.7006C25.0927 30.7006 30.1234 33.0401 33.6799 36.7912C37.308 40.6178 41.7256 44.3616 46.9987 44.3616Z" fill="#00393D"/>
<circle cx="90.2542" cy="50.0956" r="27.0167" stroke="white" stroke-width="1.286"/>
<path fill-rule="evenodd" clip-rule="evenodd" d="M19.3572 37.3143C12.3567 37.3143 6.68178 42.9893 6.68178 49.9897C6.68178 56.9901 12.3567 62.6651 19.3572 62.6651C26.3576 62.6651 32.0325 56.9901 32.0325 49.9897C32.0325 42.9893 26.3576 37.3143 19.3572 37.3143ZM3.51294 49.9897C3.51294 41.2392 10.6066 34.1455 19.3572 34.1455C28.1077 34.1455 35.2014 41.2392 35.2014 49.9897C35.2014 58.7402 28.1077 65.8339 19.3572 65.8339C10.6066 65.8339 3.51294 58.7402 3.51294 49.9897Z" fill="white"/>
<path d="M27.2641 43.9614C27.934 44.5244 28.0207 45.5238 27.4578 46.1938L19.4691 55.7003C19.1873 56.0356 18.7793 56.2393 18.342 56.2631C17.9047 56.2868 17.477 56.1285 17.1606 55.8257L11.5685 50.474C10.9363 49.869 10.9143 48.866 11.5193 48.2339C12.1243 47.6017 13.1273 47.5796 13.7595 48.1846L18.1305 52.3677L25.0318 44.1551C25.5947 43.4852 26.5942 43.3985 27.2641 43.9614Z" fill="#00ADB6"/>
<path d="M107.508 45.7052C106.969 44.8675 106.668 43.0515 106.735 41.9464C106.892 39.3651 105.52 36.8018 103.4 35.7142C102.991 35.5039 102.624 35.398 102.299 35.3047C101.742 35.1439 101.511 35.077 101.3 34.639C100.406 32.7819 99.42 32.1239 97.5315 32.1239C97.255 32.1239 96.9549 32.1364 96.6123 32.158C96.4167 32.158 96.1117 31.8314 95.8171 31.5167C95.3011 30.9645 94.6118 30.2271 93.5185 30.1017L93.1669 30.0669C91.9956 30.0669 90.8627 30.4158 90.0591 31.0237C89.8725 31.1643 89.6511 31.2848 89.3579 31.0278C88.7424 30.4861 87.7543 29.9081 86.8302 29.9081C86.5113 29.9081 86.2258 29.9771 85.9744 30.1163C84.8902 30.3308 84.1953 31.0188 83.6821 31.5264C83.3409 31.8641 83.0463 32.1559 82.7915 32.1559C82.4642 32.135 82.1634 32.1225 81.8869 32.1225C79.9985 32.1225 79.0125 32.7805 78.1177 34.6376C78.0891 34.6975 78.0578 34.7358 78.0279 34.7825H78.5682C80.488 34.7825 82.0499 36.3444 82.0499 38.2642C82.0499 38.6492 81.7379 38.9605 81.3535 38.9605C80.9692 38.9605 80.6572 38.6492 80.6572 38.2642C80.6572 37.1124 79.7199 36.1751 78.5682 36.1751H75.2808C73.5894 37.4272 72.547 39.6784 72.6842 41.9457C72.751 43.0515 72.4502 44.8668 71.9112 45.7045C70.5826 47.7719 70.5826 50.6582 71.9112 52.7249C72.1167 53.0439 72.4175 53.415 72.7657 53.8453C73.0978 54.2555 73.5462 54.8125 73.8895 55.3327L75.2133 53.454C76.2035 51.8065 77.9889 50.7982 79.9609 50.7982C82.265 50.7982 84.1389 48.9243 84.1389 46.6202C84.1389 46.2351 84.4508 45.9238 84.8352 45.9238C85.2196 45.9238 85.5316 46.2351 85.5316 46.6202C85.5316 49.6917 83.0324 52.1908 79.9609 52.1908C78.4812 52.1908 77.1421 52.9478 76.3789 54.2144L74.386 57.0436C74.464 59.5024 75.9709 62.161 77.9297 63.1665C78.3092 63.3614 78.3732 63.5585 78.5167 64.1553C78.5327 64.22 78.5501 64.2904 78.5675 64.3614V64.0285C78.5675 61.3414 80.754 59.1542 83.4419 59.1542C83.8262 59.1542 84.1382 59.4655 84.1382 59.8505C84.1382 60.2356 83.8262 60.5469 83.4419 60.5469C81.5221 60.5469 79.9602 62.1087 79.9602 64.0285V66.5938C80.332 66.8508 80.7129 66.997 81.0353 67.1203C81.6871 67.3675 81.9566 67.4705 82.0555 68.185C82.327 70.1528 83.4927 71.3282 85.1736 71.3282C86.6708 71.3282 88.2904 70.3164 89.2994 68.7504C89.4227 68.5596 89.6274 68.538 89.7089 68.538C89.7903 68.538 89.9951 68.5589 90.1183 68.7504C91.1273 70.3164 92.747 71.3282 94.2441 71.3282C95.5414 71.3282 97.042 70.5024 97.3623 68.185C97.4612 67.4705 97.7306 67.3675 98.3824 67.1203C99.0384 66.8703 99.9373 66.5284 100.511 65.3369C100.723 64.8955 100.822 64.4846 100.902 64.1553C101.046 63.5592 101.109 63.3614 101.489 63.1665C103.597 62.0837 105.185 59.0866 105.028 56.4844C104.992 55.8967 106.032 54.6127 106.653 53.846C107.002 53.4157 107.302 53.0445 107.508 52.7256C108.836 50.6589 108.836 47.7719 107.508 45.7052ZM86.3595 57.8562C86.6318 58.1285 86.6318 58.5686 86.3595 58.8408C86.2237 58.9766 86.0455 59.0449 85.8672 59.0449C85.6889 59.0449 85.5107 58.9766 85.3749 58.8408C84.4843 57.9502 83.9934 56.7665 83.9934 55.5089C83.9934 54.2513 84.4843 53.0675 85.3749 52.1769C85.6471 51.9046 86.0872 51.9046 86.3595 52.1769C86.6318 52.4492 86.6318 52.8893 86.3595 53.1615C85.7321 53.7889 85.386 54.6231 85.386 55.5089C85.386 56.3946 85.7321 57.2281 86.3595 57.8562ZM86.3651 40.404C84.5637 40.0892 82.8374 41.2967 82.5206 43.0995C82.1188 45.3842 80.1252 46.9976 77.8816 46.9976C77.6114 46.9976 77.3385 46.9746 77.0641 46.9259C76.6853 46.859 76.4319 46.4983 76.4987 46.1195C76.5656 45.7407 76.9235 45.4907 77.3051 45.5534C79.1079 45.8695 80.832 44.6621 81.1495 42.8586C81.5987 40.2995 84.0442 38.5872 86.606 39.0315C86.9848 39.0984 87.2383 39.4591 87.1714 39.8379C87.1046 40.2167 86.7446 40.466 86.3651 40.404ZM105.029 39.2968C105.413 39.2968 105.725 39.6088 105.725 39.9931C105.725 40.3775 105.413 40.6895 105.029 40.6895C104.645 40.6895 104.333 40.3775 104.333 39.9931C104.333 39.6081 104.645 39.2968 105.029 39.2968ZM92.4949 56.0088C92.1105 56.0088 91.7986 55.6969 91.7986 55.3125C91.7986 54.9281 92.1105 54.6162 92.4949 54.6162C92.8793 54.6162 93.1912 54.9281 93.1912 55.3125C93.1912 55.6969 92.88 56.0088 92.4949 56.0088ZM93.1912 60.8832C93.1912 61.2676 92.8793 61.5795 92.4949 61.5795C92.1105 61.5795 91.7986 61.2676 91.7986 60.8832C91.7986 60.4988 92.1105 60.1869 92.4949 60.1869C92.8793 60.1869 93.1912 60.4981 93.1912 60.8832ZM100.851 50.4382C100.467 50.4382 100.155 50.1262 100.155 49.7418C100.155 49.3575 100.467 49.0455 100.851 49.0455C101.235 49.0455 101.547 49.3575 101.547 49.7418C101.547 50.1262 101.236 50.4382 100.851 50.4382ZM101.547 52.5272C101.547 52.9116 101.235 53.2235 100.851 53.2235C100.467 53.2235 100.155 52.9116 100.155 52.5272C100.155 52.1428 100.467 51.8308 100.851 51.8308C101.235 51.8308 101.547 52.1421 101.547 52.5272ZM100.851 47.6528C100.467 47.6528 100.155 47.3409 100.155 46.9565C100.155 46.5721 100.467 46.2602 100.851 46.2602C101.235 46.2602 101.547 46.5721 101.547 46.9565C101.547 47.3409 101.236 47.6528 100.851 47.6528ZM99.4582 46.2602C99.0739 46.2602 98.7619 45.9482 98.7619 45.5638C98.7619 45.1795 99.0739 44.8675 99.4582 44.8675C99.8426 44.8675 100.155 45.1795 100.155 45.5638C100.155 45.9482 99.8433 46.2602 99.4582 46.2602ZM100.851 44.8675C100.467 44.8675 100.155 44.5555 100.155 44.1712C100.155 43.7868 100.467 43.4748 100.851 43.4748C101.235 43.4748 101.547 43.7868 101.547 44.1712C101.547 44.5555 101.236 44.8675 100.851 44.8675ZM99.4582 39.2968C99.8426 39.2968 100.155 39.6088 100.155 39.9931C100.155 40.3775 99.8426 40.6895 99.4582 40.6895C99.0739 40.6895 98.7619 40.3775 98.7619 39.9931C98.7619 39.6081 99.0739 39.2968 99.4582 39.2968ZM98.7619 37.2078C98.7619 36.8234 99.0739 36.5115 99.4582 36.5115C99.8426 36.5115 100.155 36.8234 100.155 37.2078C100.155 37.5922 99.8426 37.9041 99.4582 37.9041C99.0739 37.9041 98.7619 37.5922 98.7619 37.2078ZM98.0656 39.2968C97.6812 39.2968 97.3692 38.9849 97.3692 38.6005C97.3692 38.2161 97.6812 37.9041 98.0656 37.9041C98.45 37.9041 98.7619 38.2161 98.7619 38.6005C98.7619 38.9849 98.4507 39.2968 98.0656 39.2968ZM98.0656 43.4748C98.45 43.4748 98.7619 43.7868 98.7619 44.1712C98.7619 44.5555 98.45 44.8675 98.0656 44.8675C97.6812 44.8675 97.3692 44.5555 97.3692 44.1712C97.3692 43.7861 97.6812 43.4748 98.0656 43.4748ZM95.2802 44.8675C94.8959 44.8675 94.5839 44.5555 94.5839 44.1712C94.5839 43.7868 94.8959 43.4748 95.2802 43.4748C95.6646 43.4748 95.9766 43.7868 95.9766 44.1712C95.9766 44.5555 95.6653 44.8675 95.2802 44.8675ZM96.6729 47.6528C97.0573 47.6528 97.3692 47.9648 97.3692 48.3492C97.3692 48.7335 97.0573 49.0455 96.6729 49.0455C96.2885 49.0455 95.9766 48.7335 95.9766 48.3492C95.9766 47.9641 96.2885 47.6528 96.6729 47.6528ZM95.2802 49.0455C95.6646 49.0455 95.9766 49.3575 95.9766 49.7418C95.9766 50.1262 95.6646 50.4382 95.2802 50.4382C94.8959 50.4382 94.5839 50.1262 94.5839 49.7418C94.5839 49.3568 94.8959 49.0455 95.2802 49.0455ZM93.8876 47.6528C94.2719 47.6528 94.5839 47.9648 94.5839 48.3492C94.5839 48.7335 94.2719 49.0455 93.8876 49.0455C93.5032 49.0455 93.1912 48.7335 93.1912 48.3492C93.1912 47.9641 93.5032 47.6528 93.8876 47.6528ZM93.1912 45.5638C93.1912 45.1795 93.5032 44.8675 93.8876 44.8675C94.2719 44.8675 94.5839 45.1795 94.5839 45.5638C94.5839 45.9482 94.2719 46.2602 93.8876 46.2602C93.5032 46.2602 93.1912 45.9482 93.1912 45.5638ZM93.8876 50.4382C94.2719 50.4382 94.5839 50.7501 94.5839 51.1345C94.5839 51.5189 94.2719 51.8308 93.8876 51.8308C93.5032 51.8308 93.1912 51.5189 93.1912 51.1345C93.1912 50.7494 93.5032 50.4382 93.8876 50.4382ZM95.2802 54.6162C95.6646 54.6162 95.9766 54.9281 95.9766 55.3125C95.9766 55.6969 95.6646 56.0088 95.2802 56.0088C94.8959 56.0088 94.5839 55.6969 94.5839 55.3125C94.5839 54.9274 94.8959 54.6162 95.2802 54.6162ZM96.6729 51.8308C96.2885 51.8308 95.9766 51.5189 95.9766 51.1345C95.9766 50.7501 96.2885 50.4382 96.6729 50.4382C97.0573 50.4382 97.3692 50.7501 97.3692 51.1345C97.3692 51.5189 97.058 51.8308 96.6729 51.8308ZM97.3692 59.4905C97.3692 59.8749 97.0573 60.1869 96.6729 60.1869C96.2885 60.1869 95.9766 59.8749 95.9766 59.4905C95.9766 59.1061 96.2885 58.7942 96.6729 58.7942C97.0573 58.7942 97.3692 59.1054 97.3692 59.4905ZM98.0656 51.8308C98.45 51.8308 98.7619 52.1428 98.7619 52.5272C98.7619 52.9116 98.45 53.2235 98.0656 53.2235C97.6812 53.2235 97.3692 52.9116 97.3692 52.5272C97.3692 52.1421 97.6812 51.8308 98.0656 51.8308ZM96.6729 40.6895C96.2885 40.6895 95.9766 40.3775 95.9766 39.9931C95.9766 39.6088 96.2885 39.2968 96.6729 39.2968C97.0573 39.2968 97.3692 39.6088 97.3692 39.9931C97.3692 40.3775 97.058 40.6895 96.6729 40.6895ZM95.2802 37.9041C95.6646 37.9041 95.9766 38.2161 95.9766 38.6005C95.9766 38.9849 95.6646 39.2968 95.2802 39.2968C94.8959 39.2968 94.5839 38.9849 94.5839 38.6005C94.5839 38.2154 94.8959 37.9041 95.2802 37.9041ZM94.5839 35.8151C94.5839 35.4308 94.8959 35.1188 95.2802 35.1188C95.6646 35.1188 95.9766 35.4308 95.9766 35.8151C95.9766 36.1995 95.6646 36.5115 95.2802 36.5115C94.8959 36.5115 94.5839 36.1995 94.5839 35.8151ZM95.2802 40.6895C95.6646 40.6895 95.9766 41.0014 95.9766 41.3858C95.9766 41.7702 95.6646 42.0822 95.2802 42.0822C94.8959 42.0822 94.5839 41.7702 94.5839 41.3858C94.5839 41.0007 94.8959 40.6895 95.2802 40.6895ZM93.8876 40.6895C93.5032 40.6895 93.1912 40.3775 93.1912 39.9931C93.1912 39.6088 93.5032 39.2968 93.8876 39.2968C94.2719 39.2968 94.5839 39.6088 94.5839 39.9931C94.5839 40.3775 94.2726 40.6895 93.8876 40.6895ZM92.4949 39.2968C92.1105 39.2968 91.7986 38.9849 91.7986 38.6005C91.7986 38.2161 92.1105 37.9041 92.4949 37.9041C92.8793 37.9041 93.1912 38.2161 93.1912 38.6005C93.1912 38.9849 92.88 39.2968 92.4949 39.2968ZM92.4949 40.6895C92.8793 40.6895 93.1912 41.0014 93.1912 41.3858C93.1912 41.7702 92.8793 42.0822 92.4949 42.0822C92.1105 42.0822 91.7986 41.7702 91.7986 41.3858C91.7986 41.0007 92.1105 40.6895 92.4949 40.6895ZM92.4949 43.4748C92.8793 43.4748 93.1912 43.7868 93.1912 44.1712C93.1912 44.5555 92.8793 44.8675 92.4949 44.8675C92.1105 44.8675 91.7986 44.5555 91.7986 44.1712C91.7986 43.7861 92.1105 43.4748 92.4949 43.4748ZM92.4949 46.2602C92.8793 46.2602 93.1912 46.5721 93.1912 46.9565C93.1912 47.3409 92.8793 47.6528 92.4949 47.6528C92.1105 47.6528 91.7986 47.3409 91.7986 46.9565C91.7986 46.5714 92.1105 46.2602 92.4949 46.2602ZM92.4949 51.8308C92.8793 51.8308 93.1912 52.1428 93.1912 52.5272C93.1912 52.9116 92.8793 53.2235 92.4949 53.2235C92.1105 53.2235 91.7986 52.9116 91.7986 52.5272C91.7986 52.1421 92.1105 51.8308 92.4949 51.8308ZM93.8876 58.7942C94.2719 58.7942 94.5839 59.1061 94.5839 59.4905C94.5839 59.8749 94.2719 60.1869 93.8876 60.1869C93.5032 60.1869 93.1912 59.8749 93.1912 59.4905C93.1912 59.1054 93.5032 58.7942 93.8876 58.7942ZM95.2802 58.7942C94.8959 58.7942 94.5839 58.4822 94.5839 58.0979C94.5839 57.7135 94.8959 57.4015 95.2802 57.4015C95.6646 57.4015 95.9766 57.7135 95.9766 58.0979C95.9766 58.4822 95.6653 58.7942 95.2802 58.7942ZM95.9766 66.4539C95.9766 66.8382 95.6646 67.1502 95.2802 67.1502C94.8959 67.1502 94.5839 66.8382 94.5839 66.4539C94.5839 66.0695 94.8959 65.7575 95.2802 65.7575C95.6646 65.7575 95.9766 66.0688 95.9766 66.4539ZM96.6729 62.9722C96.2885 62.9722 95.9766 62.6602 95.9766 62.2759C95.9766 61.8915 96.2885 61.5795 96.6729 61.5795C97.0573 61.5795 97.3692 61.8915 97.3692 62.2759C97.3692 62.6602 97.058 62.9722 96.6729 62.9722ZM97.3692 65.0612C97.3692 65.4456 97.0573 65.7575 96.6729 65.7575C96.2885 65.7575 95.9766 65.4456 95.9766 65.0612C95.9766 64.6768 96.2885 64.3649 96.6729 64.3649C97.0573 64.3649 97.3692 64.6761 97.3692 65.0612ZM98.0656 62.9722C98.45 62.9722 98.7619 63.2842 98.7619 63.6685C98.7619 64.0529 98.45 64.3649 98.0656 64.3649C97.6812 64.3649 97.3692 64.0529 97.3692 63.6685C97.3692 63.2835 97.6812 62.9722 98.0656 62.9722ZM98.0656 56.0088C97.6812 56.0088 97.3692 55.6969 97.3692 55.3125C97.3692 54.9281 97.6812 54.6162 98.0656 54.6162C98.45 54.6162 98.7619 54.9281 98.7619 55.3125C98.7619 55.6969 98.4507 56.0088 98.0656 56.0088ZM99.4582 58.7942C99.8426 58.7942 100.155 59.1061 100.155 59.4905C100.155 59.8749 99.8426 60.1869 99.4582 60.1869C99.0739 60.1869 98.7619 59.8749 98.7619 59.4905C98.7619 59.1054 99.0739 58.7942 99.4582 58.7942ZM99.4582 49.0455C99.0739 49.0455 98.7619 48.7335 98.7619 48.3492C98.7619 47.9648 99.0739 47.6528 99.4582 47.6528C99.8426 47.6528 100.155 47.9648 100.155 48.3492C100.155 48.7335 99.8433 49.0455 99.4582 49.0455ZM100.851 56.0088C100.467 56.0088 100.155 55.6969 100.155 55.3125C100.155 54.9281 100.467 54.6162 100.851 54.6162C101.235 54.6162 101.547 54.9281 101.547 55.3125C101.547 55.6969 101.236 56.0088 100.851 56.0088ZM101.547 58.0979C101.547 58.4822 101.235 58.7942 100.851 58.7942C100.467 58.7942 100.155 58.4822 100.155 58.0979C100.155 57.7135 100.467 57.4015 100.851 57.4015C101.235 57.4015 101.547 57.7128 101.547 58.0979ZM102.244 56.0088C102.628 56.0088 102.94 56.3208 102.94 56.7052C102.94 57.0896 102.628 57.4015 102.244 57.4015C101.859 57.4015 101.547 57.0896 101.547 56.7052C101.547 56.3201 101.859 56.0088 102.244 56.0088ZM102.244 46.2602C101.859 46.2602 101.547 45.9482 101.547 45.5638C101.547 45.1795 101.859 44.8675 102.244 44.8675C102.628 44.8675 102.94 45.1795 102.94 45.5638C102.94 45.9482 102.629 46.2602 102.244 46.2602ZM102.244 42.0822C102.628 42.0822 102.94 42.3941 102.94 42.7785C102.94 43.1629 102.628 43.4748 102.244 43.4748C101.859 43.4748 101.547 43.1629 101.547 42.7785C101.547 42.3934 101.859 42.0822 102.244 42.0822ZM101.547 39.9931C101.547 39.6088 101.859 39.2968 102.244 39.2968C102.628 39.2968 102.94 39.6088 102.94 39.9931C102.94 40.3775 102.628 40.6895 102.244 40.6895C101.859 40.6895 101.547 40.3775 101.547 39.9931ZM103.636 50.4382C103.252 50.4382 102.94 50.1262 102.94 49.7418C102.94 49.3575 103.252 49.0455 103.636 49.0455C104.021 49.0455 104.333 49.3575 104.333 49.7418C104.333 50.1262 104.021 50.4382 103.636 50.4382ZM104.333 52.5272C104.333 52.9116 104.021 53.2235 103.636 53.2235C103.252 53.2235 102.94 52.9116 102.94 52.5272C102.94 52.1428 103.252 51.8308 103.636 51.8308C104.021 51.8308 104.333 52.1421 104.333 52.5272ZM103.636 42.0822C103.252 42.0822 102.94 41.7702 102.94 41.3858C102.94 41.0014 103.252 40.6895 103.636 40.6895C104.021 40.6895 104.333 41.0014 104.333 41.3858C104.333 41.7702 104.021 42.0822 103.636 42.0822ZM105.029 46.2602C104.645 46.2602 104.333 45.9482 104.333 45.5638C104.333 45.1795 104.645 44.8675 105.029 44.8675C105.413 44.8675 105.725 45.1795 105.725 45.5638C105.725 45.9482 105.414 46.2602 105.029 46.2602ZM105.725 48.3492C105.725 48.7335 105.413 49.0455 105.029 49.0455C104.645 49.0455 104.333 48.7335 104.333 48.3492C104.333 47.9648 104.645 47.6528 105.029 47.6528C105.413 47.6528 105.725 47.9641 105.725 48.3492ZM105.029 43.4748C104.645 43.4748 104.333 43.1629 104.333 42.7785C104.333 42.3941 104.645 42.0822 105.029 42.0822C105.413 42.0822 105.725 42.3941 105.725 42.7785C105.725 43.1629 105.414 43.4748 105.029 43.4748ZM103.636 37.9041C104.021 37.9041 104.333 38.2161 104.333 38.6005C104.333 38.9849 104.021 39.2968 103.636 39.2968C103.252 39.2968 102.94 38.9849 102.94 38.6005C102.94 38.2154 103.252 37.9041 103.636 37.9041ZM102.244 36.5115C102.628 36.5115 102.94 36.8234 102.94 37.2078C102.94 37.5922 102.628 37.9041 102.244 37.9041C101.859 37.9041 101.547 37.5922 101.547 37.2078C101.547 36.8227 101.859 36.5115 102.244 36.5115ZM100.851 35.1188C101.235 35.1188 101.547 35.4308 101.547 35.8151C101.547 36.1995 101.235 36.5115 100.851 36.5115C100.467 36.5115 100.155 36.1995 100.155 35.8151C100.155 35.4301 100.467 35.1188 100.851 35.1188ZM99.4582 33.7261C99.8426 33.7261 100.155 34.0381 100.155 34.4225C100.155 34.8068 99.8426 35.1188 99.4582 35.1188C99.0739 35.1188 98.7619 34.8068 98.7619 34.4225C98.7619 34.0374 99.0739 33.7261 99.4582 33.7261ZM98.0656 32.3335C98.45 32.3335 98.7619 32.6454 98.7619 33.0298C98.7619 33.4142 98.45 33.7261 98.0656 33.7261C97.6812 33.7261 97.3692 33.4142 97.3692 33.0298C97.3692 32.6447 97.6812 32.3335 98.0656 32.3335ZM96.6729 33.7261C97.0573 33.7261 97.3692 34.0381 97.3692 34.4225C97.3692 34.8068 97.0573 35.1188 96.6729 35.1188C96.2885 35.1188 95.9766 34.8068 95.9766 34.4225C95.9766 34.0374 96.2885 33.7261 96.6729 33.7261ZM95.2802 32.3335C95.6646 32.3335 95.9766 32.6454 95.9766 33.0298C95.9766 33.4142 95.6646 33.7261 95.2802 33.7261C94.8959 33.7261 94.5839 33.4142 94.5839 33.0298C94.5839 32.6447 94.8959 32.3335 95.2802 32.3335ZM93.8876 30.9408C94.2719 30.9408 94.5839 31.2528 94.5839 31.6371C94.5839 32.0215 94.2719 32.3335 93.8876 32.3335C93.5032 32.3335 93.1912 32.0215 93.1912 31.6371C93.1912 31.2521 93.5032 30.9408 93.8876 30.9408ZM92.4949 32.3335C92.8793 32.3335 93.1912 32.6454 93.1912 33.0298C93.1912 33.4142 92.8793 33.7261 92.4949 33.7261C92.1105 33.7261 91.7986 33.4142 91.7986 33.0298C91.7986 32.6447 92.1105 32.3335 92.4949 32.3335ZM91.1022 30.9408C91.4866 30.9408 91.7986 31.2528 91.7986 31.6371C91.7986 32.0215 91.4866 32.3335 91.1022 32.3335C90.7179 32.3335 90.4059 32.0215 90.4059 31.6371C90.4059 31.2521 90.7179 30.9408 91.1022 30.9408ZM91.1022 33.7261C91.4866 33.7261 91.7986 34.0381 91.7986 34.4225C91.7986 34.8068 91.4866 35.1188 91.1022 35.1188C90.7179 35.1188 90.4059 34.8068 90.4059 34.4225C90.4059 34.0374 90.7179 33.7261 91.1022 33.7261ZM91.1022 36.5115C91.4866 36.5115 91.7986 36.8234 91.7986 37.2078C91.7986 37.5922 91.4866 37.9041 91.1022 37.9041C90.7179 37.9041 90.4059 37.5922 90.4059 37.2078C90.4059 36.8227 90.7179 36.5115 91.1022 36.5115ZM91.1022 42.0822C91.4866 42.0822 91.7986 42.3941 91.7986 42.7785C91.7986 43.1629 91.4866 43.4748 91.1022 43.4748C90.7179 43.4748 90.4059 43.1629 90.4059 42.7785C90.4059 42.3934 90.7179 42.0822 91.1022 42.0822ZM91.1022 47.6528C91.4866 47.6528 91.7986 47.9648 91.7986 48.3492C91.7986 48.7335 91.4866 49.0455 91.1022 49.0455C90.7179 49.0455 90.4059 48.7335 90.4059 48.3492C90.4059 47.9641 90.7179 47.6528 91.1022 47.6528ZM91.1022 50.4382C91.4866 50.4382 91.7986 50.7501 91.7986 51.1345C91.7986 51.5189 91.4866 51.8308 91.1022 51.8308C90.7179 51.8308 90.4059 51.5189 90.4059 51.1345C90.4059 50.7494 90.7179 50.4382 91.1022 50.4382ZM91.1022 53.2235C91.4866 53.2235 91.7986 53.5355 91.7986 53.9198C91.7986 54.3042 91.4866 54.6162 91.1022 54.6162C90.7179 54.6162 90.4059 54.3042 90.4059 53.9198C90.4059 53.5348 90.7179 53.2235 91.1022 53.2235ZM91.1022 56.0088C91.4866 56.0088 91.7986 56.3208 91.7986 56.7052C91.7986 57.0896 91.4866 57.4015 91.1022 57.4015C90.7179 57.4015 90.4059 57.0896 90.4059 56.7052C90.4059 56.3201 90.7179 56.0088 91.1022 56.0088ZM91.1022 58.7942C91.4866 58.7942 91.7986 59.1061 91.7986 59.4905C91.7986 59.8749 91.4866 60.1869 91.1022 60.1869C90.7179 60.1869 90.4059 59.8749 90.4059 59.4905C90.4059 59.1054 90.7179 58.7942 91.1022 58.7942ZM91.1022 61.5795C91.4866 61.5795 91.7986 61.8915 91.7986 62.2759C91.7986 62.6602 91.4866 62.9722 91.1022 62.9722C90.7179 62.9722 90.4059 62.6602 90.4059 62.2759C90.4059 61.8908 90.7179 61.5795 91.1022 61.5795ZM91.1022 64.3649C91.4866 64.3649 91.7986 64.6768 91.7986 65.0612C91.7986 65.4456 91.4866 65.7575 91.1022 65.7575C90.7179 65.7575 90.4059 65.4456 90.4059 65.0612C90.4059 64.6761 90.7179 64.3649 91.1022 64.3649ZM91.1022 68.5429C90.7179 68.5429 90.4059 68.2309 90.4059 67.8465C90.4059 67.4622 90.7179 67.1502 91.1022 67.1502C91.4866 67.1502 91.7986 67.4622 91.7986 67.8465C91.7986 68.2309 91.4873 68.5429 91.1022 68.5429ZM92.4949 69.9355C92.1105 69.9355 91.7986 69.6236 91.7986 69.2392C91.7986 68.8548 92.1105 68.5429 92.4949 68.5429C92.8793 68.5429 93.1912 68.8548 93.1912 69.2392C93.1912 69.6236 92.88 69.9355 92.4949 69.9355ZM92.4949 67.1502C92.1105 67.1502 91.7986 66.8382 91.7986 66.4539C91.7986 66.0695 92.1105 65.7575 92.4949 65.7575C92.8793 65.7575 93.1912 66.0695 93.1912 66.4539C93.1912 66.8382 92.88 67.1502 92.4949 67.1502ZM93.8876 65.7575C93.5032 65.7575 93.1912 65.4456 93.1912 65.0612C93.1912 64.6768 93.5032 64.3649 93.8876 64.3649C94.2719 64.3649 94.5839 64.6768 94.5839 65.0612C94.5839 65.4456 94.2726 65.7575 93.8876 65.7575ZM95.2802 69.9355C94.8959 69.9355 94.5839 69.6236 94.5839 69.2392C94.5839 68.8548 94.8959 68.5429 95.2802 68.5429C95.6646 68.5429 95.9766 68.8548 95.9766 69.2392C95.9766 69.6236 95.6653 69.9355 95.2802 69.9355ZM96.6729 68.5429C96.2885 68.5429 95.9766 68.2309 95.9766 67.8465C95.9766 67.4622 96.2885 67.1502 96.6729 67.1502C97.0573 67.1502 97.3692 67.4622 97.3692 67.8465C97.3692 68.2309 97.058 68.5429 96.6729 68.5429ZM98.0656 67.1502C97.6812 67.1502 97.3692 66.8382 97.3692 66.4539C97.3692 66.0695 97.6812 65.7575 98.0656 65.7575C98.45 65.7575 98.7619 66.0695 98.7619 66.4539C98.7619 66.8382 98.4507 67.1502 98.0656 67.1502ZM99.4582 65.7575C99.0739 65.7575 98.7619 65.4456 98.7619 65.0612C98.7619 64.6768 99.0739 64.3649 99.4582 64.3649C99.8426 64.3649 100.155 64.6768 100.155 65.0612C100.155 65.4456 99.8433 65.7575 99.4582 65.7575ZM99.4582 62.9722C99.0739 62.9722 98.7619 62.6602 98.7619 62.2759C98.7619 61.8915 99.0739 61.5795 99.4582 61.5795C99.8426 61.5795 100.155 61.8915 100.155 62.2759C100.155 62.6602 99.8433 62.9722 99.4582 62.9722ZM100.851 61.5795C100.467 61.5795 100.155 61.2676 100.155 60.8832C100.155 60.4988 100.467 60.1869 100.851 60.1869C101.235 60.1869 101.547 60.4988 101.547 60.8832C101.547 61.2676 101.236 61.5795 100.851 61.5795ZM102.244 60.1869C101.859 60.1869 101.547 59.8749 101.547 59.4905C101.547 59.1061 101.859 58.7942 102.244 58.7942C102.628 58.7942 102.94 59.1061 102.94 59.4905C102.94 59.8749 102.629 60.1869 102.244 60.1869ZM103.636 58.7942C103.252 58.7942 102.94 58.4822 102.94 58.0979C102.94 57.7135 103.252 57.4015 103.636 57.4015C104.021 57.4015 104.333 57.7135 104.333 58.0979C104.333 58.4822 104.021 58.7942 103.636 58.7942ZM103.636 56.0088C103.252 56.0088 102.94 55.6969 102.94 55.3125C102.94 54.9281 103.252 54.6162 103.636 54.6162C104.021 54.6162 104.333 54.9281 104.333 55.3125C104.333 55.6969 104.021 56.0088 103.636 56.0088ZM105.029 54.6162C104.645 54.6162 104.333 54.3042 104.333 53.9198C104.333 53.5355 104.645 53.2235 105.029 53.2235C105.413 53.2235 105.725 53.5355 105.725 53.9198C105.725 54.3042 105.414 54.6162 105.029 54.6162ZM106.422 53.2235C106.037 53.2235 105.725 52.9116 105.725 52.5272C105.725 52.1428 106.037 51.8308 106.422 51.8308C106.806 51.8308 107.118 52.1428 107.118 52.5272C107.118 52.9116 106.807 53.2235 106.422 53.2235ZM106.422 50.4382C106.037 50.4382 105.725 50.1262 105.725 49.7418C105.725 49.3575 106.037 49.0455 106.422 49.0455C106.806 49.0455 107.118 49.3575 107.118 49.7418C107.118 50.1262 106.807 50.4382 106.422 50.4382ZM106.422 47.6528C106.037 47.6528 105.725 47.3409 105.725 46.9565C105.725 46.5721 106.037 46.2602 106.422 46.2602C106.806 46.2602 107.118 46.5721 107.118 46.9565C107.118 47.3409 106.807 47.6528 106.422 47.6528Z" fill="#00ADB6"/>
<path d="M139.019 48.2407C137.928 48.2407 137.044 49.1251 137.044 50.216C137.044 51.307 137.928 52.1914 139.019 52.1914C140.11 52.1914 140.995 51.307 140.995 50.216C140.995 49.1251 140.11 48.2407 139.019 48.2407ZM132.682 50.216C132.682 46.7159 135.519 43.8785 139.019 43.8785C142.52 43.8785 145.357 46.7159 145.357 50.216C145.357 53.7162 142.52 56.5536 139.019 56.5536C135.519 56.5536 132.682 53.7162 132.682 50.216Z" fill="#00393D" stroke="#00ADB6" stroke-width="1.1797"/>
<path d="M164.665 48.2606C163.585 48.2606 162.709 49.1361 162.709 50.216C162.709 51.2959 163.585 52.1713 164.665 52.1713C165.745 52.1713 166.62 51.2959 166.62 50.216C166.62 49.1361 165.745 48.2606 164.665 48.2606ZM158.427 50.216C158.427 46.7711 161.22 43.9784 164.665 43.9784C168.11 43.9784 170.902 46.7711 170.902 50.216C170.902 53.6609 168.11 56.4535 164.665 56.4535C161.22 56.4535 158.427 53.6609 158.427 50.216Z" fill="#00393D" stroke="#00ADB6" stroke-width="1.1797"/>
</g>
<defs>
<clipPath id="clip0_143_1600">
<rect width="173.887" height="84.3017" fill="white"/>
</clipPath>
</defs>
</svg>
