<svg width="35" height="36" viewBox="0 0 35 36" fill="none" xmlns="http://www.w3.org/2000/svg">
<g clip-path="url(#clip0_2030_2324)">
<path d="M30.5399 10.5411C29.8669 11.439 29.0533 12.2221 28.1306 12.8604C28.1306 13.0949 28.1306 13.3295 28.1306 13.577C28.138 17.8361 26.4368 21.92 23.4083 24.9132C20.3798 27.9064 16.2773 29.5585 12.0207 29.4991C9.55988 29.5073 7.13053 28.9455 4.92301 27.8574C4.80397 27.8054 4.7272 27.6877 4.72765 27.5577V27.4144C4.72765 27.2273 4.87925 27.0757 5.06626 27.0757C7.48522 26.9958 9.81789 26.1572 11.7342 24.6783C9.54472 24.6341 7.57474 23.337 6.66813 21.3426C6.62234 21.2338 6.63659 21.1087 6.70576 21.0129C6.77492 20.9171 6.88899 20.8644 7.00674 20.8736C7.67217 20.9404 8.34426 20.8786 8.9863 20.6912C6.56927 20.1895 4.75314 18.1829 4.49323 15.7269C4.48399 15.6091 4.53679 15.495 4.63255 15.4257C4.7283 15.3566 4.85318 15.3423 4.96208 15.3882C5.61069 15.6744 6.31088 15.8251 7.01976 15.8311C4.90188 14.4411 3.98709 11.7971 4.79276 9.39454C4.87594 9.16109 5.07574 8.98862 5.31876 8.94053C5.56176 8.89243 5.81216 8.97581 5.97789 9.16002C8.83585 12.2017 12.7627 14.0143 16.9305 14.2155C16.8238 13.7895 16.7714 13.3517 16.7742 12.9125C16.8132 10.6097 18.2381 8.55833 20.3818 7.71874C22.5253 6.87916 24.9635 7.41753 26.5549 9.08183C27.6395 8.87519 28.6881 8.51085 29.6674 8.00038C29.7391 7.9556 29.8301 7.9556 29.9018 8.00038C29.9466 8.07215 29.9466 8.16314 29.9018 8.23491C29.4275 9.32107 28.6262 10.232 27.6098 10.8408C28.4999 10.7376 29.3743 10.5276 30.2144 10.2154C30.2852 10.1673 30.3781 10.1673 30.4488 10.2154C30.5081 10.2425 30.5524 10.2943 30.5699 10.3571C30.5875 10.4199 30.5765 10.4872 30.5399 10.5411Z" fill="white"/>
</g>
<defs>
<clipPath id="clip0_2030_2324">
<rect width="34.7812" height="34.7812" fill="white" transform="translate(0.146484 0.806152)"/>
</clipPath>
</defs>
</svg>
