<svg width="34" height="37" viewBox="0 0 34 37" fill="none" xmlns="http://www.w3.org/2000/svg">
<g clip-path="url(#clip0_150_1835)">
<circle cx="14.4473" cy="22.5352" r="14.4473" fill="#9EF4F9"/>
<path d="M23.5184 21.296C24.8879 20.3832 24.6619 19.3613 25.3085 17.2465C25.6071 16.0506 26.4842 15.1653 27.6719 14.8586C28.6518 14.4334 32.2046 14.4369 32.1819 11.4416C32.1744 9.83411 30.8571 8.53308 29.2537 8.53778C26.2584 8.54763 26.2864 12.1005 25.8775 13.0804C25.5789 14.2762 24.7017 15.1615 23.5141 15.4683C21.1998 16.0941 20.9067 16.069 20.3053 16.4828C18.9317 17.3996 19.1618 18.4175 18.5152 20.5324C17.9624 22.7491 15.3022 23.3457 14.4476 23.352C11.0576 23.3814 10.3554 20.4213 9.96063 18.524C9.67277 17.1315 8.52687 16.0425 7.06588 16.0434C5.45838 16.0441 4.16298 17.3558 4.17456 18.9592C4.18584 20.4243 5.28299 21.5539 6.6754 21.8337C10.3233 22.5577 10.9106 23.145 11.6672 26.7849C11.6714 26.8053 11.6755 26.8256 11.6836 26.8419C11.9349 28.2465 13.1905 29.2666 14.5661 29.2614C16.027 29.2604 17.2497 28.1683 17.4338 26.7362C17.8661 25.2924 17.8489 22.9524 20.3097 22.3106C22.6239 21.6847 22.917 21.7098 23.5184 21.296Z" fill="#00ADB6"/>
</g>
<defs>
<clipPath id="clip0_150_1835">
<rect width="33.4766" height="36.9912" fill="white" transform="translate(0 -0.00878906)"/>
</clipPath>
</defs>
</svg>
