<svg width="133" height="112" viewBox="0 0 133 112" fill="none" xmlns="http://www.w3.org/2000/svg">
<g clip-path="url(#clip0_146_1617)">
<path d="M44.3209 13.7439C41.0845 14.6069 38.3228 17.3686 37.5029 20.4972C37.2656 21.4681 37.244 21.4897 36.1868 21.6623C31.9794 22.3527 27.9663 23.4531 27.2327 24.1004C26.6717 24.6182 26.6717 25.9775 27.2543 26.56C27.8368 27.1426 28.3762 27.0994 30.9869 26.3443C33.8566 25.5028 36.3378 25.0929 40.2646 24.7908C48.032 24.2082 55.1521 25.8049 60.8482 29.4081L62.2075 30.2711L61.5602 30.9184C61.1934 31.2852 60.7619 31.8462 60.5677 32.1914L60.244 32.8171H53.8144L53.4907 32.213C51.6784 28.7392 46.3922 28.7392 44.6014 32.213L44.2778 32.8171H37.8481L37.5245 32.213C37.3519 31.8893 36.8988 31.3283 36.4888 30.94C33.4035 27.9841 28.1173 30.1417 28.1173 34.3706C28.1173 36.334 29.1314 38.0385 30.7712 38.9015C33.0367 40.0666 36.5104 39.031 37.395 36.9165L37.6539 36.2693H41.0845C44.2994 36.2693 44.4935 36.2908 44.623 36.7008C44.8603 37.4344 45.8097 38.4269 46.759 38.9015C49.0029 40.0666 52.4767 39.031 53.3613 36.9165L53.6202 36.2693H57.0508C60.2656 36.2693 60.4598 36.2908 60.5893 36.7008C60.9776 37.9306 62.5958 39.0957 64.3003 39.3978C65.5733 39.592 67.3857 39.031 68.3566 38.1248L69.1118 37.3912L69.5002 37.9738C70.1474 38.9015 71.0321 40.4982 71.4636 41.5338L71.8951 42.4832L70.73 43.0657C69.867 43.4757 69.3707 43.9072 68.8745 44.7055L68.184 45.7627H61.7975L61.4739 45.1586C59.6615 41.6848 54.3754 41.6848 52.5846 45.1586L52.2609 45.7627H45.8312L45.5076 45.1586C45.335 44.8349 44.8819 44.274 44.472 43.8856C41.3866 40.9297 36.1005 43.0873 36.1005 47.3162C36.1005 49.2796 37.1145 50.9841 38.7543 51.8472C41.0198 53.0123 44.4935 51.9766 45.3782 49.8622L45.6371 49.2149H49.0677C52.2825 49.2149 52.4767 49.2365 52.6061 49.6464C52.8435 50.38 53.7928 51.3725 54.7421 51.8472C56.9861 53.0123 60.4598 51.9766 61.3444 49.8622L61.6033 49.2149H65.0339C68.2488 49.2149 68.4429 49.2365 68.5724 49.6464C68.8097 50.38 69.7591 51.3725 70.7084 51.8472C72.9523 53.0123 76.4261 51.9766 77.3107 49.8622L77.5696 49.2149H80.6334C84.064 49.2149 84.5171 49.0854 85.1859 47.8772L85.639 47.0788L87.0199 49.8837C87.7966 51.4372 88.5949 52.8612 88.8107 53.0554C89.307 53.5085 90.5584 53.5085 91.0546 53.0338C91.2704 52.8397 91.8314 51.9119 92.306 50.941L93.1475 49.2149H94.8952C96.9233 49.2149 97.5274 48.956 98.1316 47.8772L98.5847 47.0788L99.9655 49.8837C100.742 51.4372 101.541 52.8612 101.756 53.0554C102.253 53.5085 103.504 53.5085 104 53.0338C104.216 52.8397 104.777 51.9119 105.252 50.941L106.093 49.2149H129.638C131.191 49.2149 131.601 49.1501 132.076 48.7618C132.788 48.2008 132.874 46.8631 132.205 46.1942C131.817 45.8059 131.493 45.7627 128.947 45.7627C127.394 45.7627 104.302 45.849 104.087 45.9569C103.871 46.0863 103.526 46.561 103.31 47.0573L102.9 47.9635L101.411 44.9644C100.591 43.3246 99.7713 41.8574 99.5771 41.7064C99.1672 41.4043 98.1531 41.3612 97.6353 41.6417C97.4411 41.7496 96.837 42.7205 96.2976 43.7993L95.3483 45.7627H93.428C92.3923 45.7627 91.3567 45.849 91.1409 45.9569C90.9252 46.0863 90.58 46.561 90.3642 47.0573L89.9542 47.9635L88.4655 44.9644C87.6456 43.3246 86.8257 41.8574 86.6315 41.7064C86.2216 41.4043 85.2075 41.3612 84.6897 41.6417C84.4955 41.7496 83.8914 42.7205 83.352 43.7993L82.4026 45.7627H80.0724C77.8932 45.7627 77.7422 45.7411 77.5049 45.2665C77.3754 45.0075 76.9439 44.4466 76.5555 44.0366C76.1887 43.6267 75.6493 42.6558 75.3904 41.879C75.1099 41.1023 74.4195 39.5704 73.837 38.4484C73.2544 37.3265 72.7797 36.3987 72.7797 36.3556C72.7797 36.3124 75.2394 36.2693 78.2385 36.2693C84.2582 36.2693 84.4524 36.2261 85.1859 34.9315L85.639 34.1332L87.0199 36.9381C87.7966 38.4916 88.5949 39.9156 88.8107 40.1098C89.307 40.5629 90.5584 40.5629 91.0546 40.0882C91.2704 39.894 91.8314 38.9663 92.306 37.9953L93.1475 36.2693H94.8952C96.9233 36.2693 97.5274 36.0103 98.1316 34.9315L98.5847 34.1332L99.9655 36.9381C100.742 38.4916 101.541 39.9156 101.756 40.1098C102.253 40.5629 103.504 40.5629 104 40.0882C104.216 39.894 104.777 38.9663 105.252 37.9953L106.093 36.2693H115.193C116.746 36.2693 117.156 36.2045 117.631 35.8162C118.343 35.2552 118.429 33.9175 117.76 33.2486C117.372 32.8602 117.048 32.8171 114.502 32.8171C112.949 32.8171 104.302 32.9034 104.087 33.0113C103.871 33.1407 103.526 33.6154 103.31 34.1116L102.9 35.0178L101.411 32.0188C100.591 30.379 99.7713 28.9118 99.5771 28.7608C99.1672 28.4587 98.1531 28.4156 97.6353 28.6961C97.4411 28.8039 96.837 29.7749 96.2976 30.8537L95.3483 32.8171H93.428C92.3923 32.8171 91.3567 32.9034 91.1409 33.0113C90.9252 33.1407 90.58 33.6154 90.3642 34.1116L89.9542 35.0178L88.4655 32.0188C87.6456 30.379 86.8257 28.9118 86.6315 28.7608C86.2216 28.4587 85.2075 28.4156 84.6897 28.6961C84.4955 28.8039 83.8914 29.7749 83.352 30.8537L82.4026 32.8171H70.2337L68.1193 30.7026C63.7178 26.3658 57.8923 23.3021 51.6568 22.0291C49.0245 21.5112 44.2346 21.0797 42.3575 21.2092L40.8903 21.3171L41.1277 20.6482C41.2571 20.2814 41.9044 19.4184 42.5733 18.7495C44.213 17.1313 45.4645 16.7214 48.3988 16.9371C51.3116 17.1529 53.8575 17.7354 57.4607 19.0084C66.7816 22.3527 68.0761 22.6979 72.3482 23.0863C73.7075 23.2157 76.9007 23.3236 79.4251 23.3236H83.9993L84.8191 22.59L85.6175 21.8349L87.473 23.6688C89.7601 25.8912 90.019 25.9343 91.6372 24.4024L92.7807 23.3236H94.8736C96.9449 23.3236 96.9449 23.3236 97.7648 22.59L98.5631 21.8349L100.419 23.6688C102.706 25.8912 102.965 25.9343 104.583 24.4024L105.726 23.3236H107.776C109.524 23.3236 109.912 23.2589 110.408 22.8705C111.12 22.3096 111.207 20.9718 110.538 20.303C110.149 19.9146 109.826 19.8715 107.193 19.8715H104.281L103.59 20.4972L102.878 21.1444L101.131 19.4184C99.5772 17.908 99.2751 17.7139 98.5847 17.7139C97.9158 17.7139 97.5922 17.908 96.6428 18.7927L95.4993 19.8715H93.428C91.4214 19.8715 91.3135 19.893 90.6447 20.4972L89.9327 21.1444L88.185 19.4184C86.6315 17.908 86.3295 17.7139 85.639 17.7139C84.9702 17.7139 84.6465 17.908 83.6756 18.8142L82.4889 19.9362L77.2675 19.8067C70.0611 19.6557 68.3782 19.3105 60.9129 16.5272C58.6043 15.6641 55.6915 14.6932 54.4401 14.3911C50.4485 13.4202 46.5001 13.1613 44.3209 13.7439ZM74.0527 46.5394C74.6137 47.2515 74.6137 47.7261 74.1174 48.3734C73.2976 49.3659 71.4852 48.7186 71.4852 47.4241C71.4852 46.7768 72.3266 45.9785 73.0171 45.9785C73.4054 45.9785 73.7722 46.1727 74.0527 46.5394Z" fill="#00393D"/>
<path d="M20.2421 27.7251C15.1933 31.5657 11.9569 37.2186 11.0291 43.7777C10.7918 45.547 10.727 45.698 9.92873 46.4531C9.17357 47.1652 9.08726 47.3378 9.21672 47.9635C9.34617 48.6323 9.88558 49.2796 10.4681 49.4738C10.8349 49.6032 10.3387 52.8612 9.79927 53.94C9.56194 54.3931 8.26737 55.774 6.92966 57.0038C0.737336 62.7215 0.5 63.0235 0.5 65.3538C0.5 67.5977 1.44935 69.1943 3.90901 71.0067C4.90151 71.7403 5.24673 72.1286 5.33303 72.6249C5.37618 72.9701 5.6351 74.9767 5.87243 77.048C6.92966 85.7431 8.76362 91.6981 11.2233 94.3304C13.0788 96.3369 15.5169 96.9627 21.3209 96.9842C23.4569 97.0058 26.1971 96.9195 27.4269 96.8332L29.6277 96.6606V112.023L30.167 112.541C30.4475 112.843 30.8575 113.08 31.0732 113.08C31.289 113.08 33.7918 112.584 36.6399 111.958C42.2928 110.728 42.789 110.512 42.789 109.196C42.789 108.42 41.9691 107.47 41.2787 107.47C40.9335 107.47 36.4025 108.42 33.5761 109.088L33.1014 109.196L33.0367 101.558C32.9719 94.2656 32.9504 93.8988 32.5404 93.4458C32.0657 92.9063 31.9147 92.9063 26.1755 93.4458C23.1764 93.7478 18.3002 93.6184 16.4663 93.23C13.8987 92.669 12.9278 91.5471 11.6117 87.685C10.9212 85.6784 9.7777 80.759 9.7777 79.8529C9.7777 79.4429 9.92873 79.4213 11.9137 79.4213C14.2008 79.4213 15.2796 79.1624 15.6032 78.5583C15.9484 77.911 15.8406 76.9401 15.3875 76.4438C14.9775 75.9907 14.7402 75.9692 12.0432 75.9692H9.17357L9.02254 74.2862C8.93623 73.38 8.80677 72.0855 8.72047 71.4382L8.59101 70.2515L6.58444 68.6333C4.44841 66.9072 3.97374 66.3247 3.95217 65.3106C3.95217 64.6202 4.53472 63.9945 9.49721 59.3988C11.7627 57.3059 12.2374 56.7449 12.9062 55.4072C13.5967 54.0263 13.7045 53.5085 13.9419 51.2215L14.1792 48.5892L15.1717 48.4597C16.38 48.2871 18.7102 48.6539 20.0263 49.2149C21.3209 49.7759 22.3349 49.7759 22.8096 49.2365C23.3274 48.6755 23.349 47.4025 22.8528 46.8631C21.9034 45.8059 17.1567 44.6623 15.1286 45.0075C14.6755 45.0939 14.3087 45.1154 14.3087 45.0507C14.3087 44.8134 14.7618 42.591 14.9559 41.8359L15.1933 41.016H18.2355C21.6661 41.016 22.5939 41.2749 23.7374 42.591C24.0826 42.9794 27.6427 48.6323 31.6558 55.1483C35.6689 61.6858 39.1858 67.2309 39.4663 67.4898C40.1568 68.1155 40.8903 68.1155 41.6239 67.4682C42.8106 66.4541 42.8538 66.562 34.6117 53.2064C30.2965 46.2374 26.6286 40.4982 26.1108 39.9803C25.6145 39.4625 24.5789 38.7505 23.8021 38.3621C22.486 37.7149 22.2702 37.6717 19.5301 37.607C16.2721 37.5207 16.4015 37.6501 17.6098 35.6651C18.516 34.1332 20.652 31.8246 22.2055 30.6595C23.91 29.3865 24.2336 28.9981 24.2336 28.1998C24.2336 27.272 23.4785 26.56 22.486 26.56C21.925 26.56 21.3856 26.8405 20.2421 27.7251Z" fill="#00393D"/>
<path d="M74.1822 55.6877C73.9664 55.925 73.6859 56.6802 73.5565 57.349L73.2975 58.6005L71.5499 58.6652C69.8022 58.7299 69.7806 58.7083 69.457 58.1258C67.6446 54.6305 62.3585 54.6305 60.5677 58.1042L60.244 58.7083H53.8144L53.4907 58.1042C53.3181 57.7806 52.865 57.2196 52.4551 56.8312C49.3697 53.8753 44.0836 56.0329 44.0836 60.2618C44.0836 62.2252 45.0977 63.9297 46.7374 64.7928C49.0029 65.9579 52.4767 64.9222 53.3613 62.8078L53.6202 62.1605H57.0508C60.2656 62.1605 60.4598 62.1821 60.5893 62.592C60.8266 63.3256 61.7759 64.3181 62.7253 64.7928C64.9692 65.9579 68.4429 64.9222 69.3276 62.8078C69.5865 62.1821 69.6512 62.1605 70.9673 62.1605H72.3482L71.9167 63.2393C71.2694 64.9007 69.8238 67.6624 68.5508 69.7553L67.3641 71.6539H61.7975L61.4739 71.0498C61.3013 70.7262 60.8482 70.1652 60.4382 69.7768C57.3528 66.8209 52.0667 68.9785 52.0667 73.2074C52.0667 75.1708 53.0808 76.8754 54.7206 77.7384C56.9861 78.9035 60.4598 77.8679 61.3444 75.7534C61.6033 75.1061 61.6249 75.1061 63.3294 75.1061H65.0339L64.1925 76.336C62.9195 78.2346 61.4739 80.8669 60.6971 82.7225C59.8988 84.6212 59.7909 84.6643 57.6549 84.0386C55.5405 83.4129 53.987 82.442 52.0667 80.5001C50.578 78.9682 49.7797 77.8894 47.7731 74.6099C46.4138 72.3875 45.184 70.4673 45.0114 70.3162C44.4935 69.8847 43.2637 69.9926 42.7459 70.532C41.8613 71.4166 42.077 72.107 44.623 76.1849C47.471 80.8022 48.3556 81.9673 50.3622 83.8228C52.1746 85.5058 55.0011 86.9945 57.3529 87.5555L58.8632 87.9007L58.7985 95.6897C58.7553 99.9833 58.6906 103.5 58.6474 103.543C58.6258 103.565 55.9504 104.191 52.6924 104.903C49.154 105.679 46.6511 106.327 46.4138 106.542C46.1765 106.758 46.0254 107.19 46.0254 107.729C46.0254 108.765 46.6296 109.412 47.6005 109.412C48.0104 109.412 51.2253 108.765 54.7853 107.988C59.5752 106.952 61.3444 106.478 61.6681 106.154C62.078 105.744 62.0996 105.356 62.2075 97.2647C62.2722 92.6259 62.4016 88.6343 62.5095 88.4185C62.6821 88.0733 63.3941 88.0517 73.3407 88.0517H83.9993L84.8191 87.3182L85.6175 86.563L87.473 88.397C89.7601 90.6193 90.019 90.6624 91.6372 89.1305L92.7807 88.0517H94.8736C96.9449 88.0517 96.9449 88.0518 97.7648 87.3182L98.5631 86.563L100.419 88.397C102.706 90.6193 102.965 90.6624 104.583 89.1305L105.726 88.0517H107.776C109.524 88.0517 109.912 87.987 110.408 87.5986C111.12 87.0377 111.207 85.7 110.538 85.0311C110.149 84.6427 109.826 84.5996 107.193 84.5996H104.281L103.59 85.2253L102.878 85.8726L101.131 84.1465C99.5772 82.6362 99.2751 82.442 98.5847 82.442C97.9158 82.442 97.5921 82.6362 96.6428 83.5208L95.4993 84.5996H93.428C91.4214 84.5996 91.3135 84.6212 90.6447 85.2253L89.9327 85.8726L88.185 84.1465C86.6315 82.6362 86.3295 82.442 85.639 82.442C84.9702 82.442 84.6465 82.6362 83.6972 83.5208L82.5537 84.5996H73.1465C67.9467 84.5996 63.7178 84.5564 63.7178 84.4917C63.7178 84.0818 65.7891 80.3707 67.3641 77.9757L69.2197 75.1061H83.9993L84.8191 74.3725L85.6175 73.6174L87.473 75.4513C89.7601 77.6737 90.019 77.7168 91.6372 76.1849L92.7807 75.1061H94.8736C96.9449 75.1061 96.9449 75.1061 97.7648 74.3725L98.5631 73.6174L100.419 75.4513C102.706 77.6737 102.965 77.7168 104.583 76.1849L105.726 75.1061H114.998C116.746 75.1061 117.134 75.0414 117.631 74.653C118.343 74.092 118.429 72.7543 117.76 72.0855C117.372 71.6971 117.048 71.6539 114.416 71.6539H104.281L103.59 72.2797L102.878 72.9269L101.131 71.2009C99.5772 69.6905 99.2751 69.4964 98.5847 69.4964C97.9158 69.4964 97.5921 69.6905 96.6428 70.5752L95.4993 71.6539H93.428C91.4214 71.6539 91.3135 71.6755 90.6447 72.2797L89.9327 72.9269L88.185 71.2009C86.6315 69.6905 86.3295 69.4964 85.639 69.4964C84.9702 69.4964 84.6465 69.6905 83.6972 70.5752L82.5537 71.6539H71.4852L72.3914 70.1868C73.3839 68.5686 74.8294 65.5479 75.5846 63.4982L76.0593 62.1605H79.9214C83.5462 62.1605 83.8482 62.1389 84.9918 61.6211C85.6606 61.319 86.2863 61.1249 86.3726 61.1896C86.4805 61.2543 87.3435 62.7215 88.3145 64.4907C90.1484 67.8134 90.8173 68.6333 91.6372 68.6333C92.6297 68.6333 93.1691 67.8997 94.2479 64.987C95.3267 62.1605 95.3267 62.1605 96.0171 62.1605C96.4055 62.1605 97.2685 61.9232 97.9374 61.6211C98.6062 61.319 99.2319 61.1249 99.3182 61.1896C99.4261 61.2543 100.289 62.7215 101.26 64.4907C102.231 66.2384 103.245 67.8782 103.547 68.1371C104.238 68.7628 104.971 68.7628 105.683 68.1371C106.223 67.684 106.287 67.4682 106.46 65.289C106.546 63.9729 106.633 62.743 106.633 62.5273C106.654 62.2036 128.537 62.1605 129.918 62.1605C131.946 62.1605 132.637 61.7074 132.637 60.4128C132.637 59.8519 132.486 59.4203 132.205 59.1399C131.817 58.7515 131.493 58.7083 128.947 58.7083C127.394 58.7083 104.281 58.7946 104.065 58.9241C103.849 59.032 103.547 59.4851 103.418 59.9166L103.159 60.6933L102.404 59.3125C101.994 58.5789 101.497 57.7806 101.303 57.5648C100.807 57.0038 99.5987 57.1117 97.6137 57.9532C96.276 58.5142 95.5209 58.7083 94.5931 58.7083C93.0828 58.7083 92.8886 58.8809 92.0471 61.0385C91.3135 62.8725 91.4646 62.9372 89.8248 60.0029C89.1991 58.8809 88.5518 57.7806 88.3576 57.5648C87.8614 57.0038 86.6531 57.1117 84.6681 57.9532C82.9205 58.6868 82.8342 58.7083 79.8567 58.7083H76.8576L76.987 57.5432C77.1381 56.4644 77.0949 56.3134 76.5987 55.8171C75.9082 55.1267 74.7431 55.062 74.1822 55.6877Z" fill="#00393D"/>
<path d="M22.9607 57.7158C21.9466 58.471 20.3715 58.7946 18.4944 58.622C17.092 58.4926 16.8762 58.5141 16.4878 58.9025C15.4953 59.895 15.7543 61.319 17.0057 61.8369C17.9334 62.2468 20.5226 62.2468 21.9682 61.8584C24.6652 61.1464 26.046 60.1108 26.046 58.8162C26.046 57.2412 24.4062 56.6586 22.9607 57.7158Z" fill="#00393D"/>
<path d="M26.96 25.2473C34.8181 22.9689 52.9895 20.365 62.81 28.1767C74.5918 37.5485 74.2767 44.8306 75.1137 47.7599" stroke="white" stroke-width="4.56131" stroke-linecap="round"/>
<path d="M75.6727 56.2144C75.2193 59.479 73.1699 67.5863 68.5993 73.8981C62.886 81.7877 61.3896 80.6995 61.1175 86.8208C57.8075 86.2313 48.9839 82.3318 43.978 71.4496" stroke="white" stroke-width="4.56131" stroke-linecap="round"/>
<circle cx="33.0475" cy="34.4789" r="3.1906" fill="white"/>
<circle cx="56.4913" cy="47.5863" r="2.37875" fill="white"/>
<circle cx="40.9952" cy="47.7269" r="2.37875" fill="white"/>
<circle cx="49.1664" cy="60.8282" r="2.37875" fill="white"/>
<circle cx="48.8844" cy="34.7664" r="2.37875" fill="white"/>
<circle cx="73.256" cy="47.8678" r="2.37875" fill="#00ADB6"/>
<circle cx="64.8031" cy="60.265" r="2.37875" fill="white"/>
<circle cx="56.6327" cy="73.2249" r="2.37875" fill="white"/>
<circle cx="64.5763" cy="34.7577" r="3.56016" fill="white"/>
<circle cx="73.2274" cy="47.4488" r="5.08059" fill="white" stroke="#00ADB6" stroke-width="3.04088"/>
<circle cx="65.6234" cy="34.2599" r="5.08059" fill="white" stroke="#00ADB6" stroke-width="3.04088"/>
<path d="M37.2038 31.0375C36.1992 29.794 34.6619 28.9988 32.9389 28.9988C29.9124 28.9988 27.459 31.4522 27.459 34.4787C27.459 37.5051 29.9124 39.9586 32.9389 39.9586C34.9623 39.9586 36.7297 38.8618 37.6788 37.2304" stroke="#00ADB6" stroke-width="1.52044"/>
<path d="M60.6053 44.2662C59.6362 43.0667 58.1532 42.2996 56.4911 42.2996C53.5716 42.2996 51.2048 44.6663 51.2048 47.5858C51.2048 50.5053 53.5716 52.872 56.4911 52.872C58.443 52.872 60.1479 51.814 61.0635 50.2402" stroke="#00ADB6" stroke-width="1.52044"/>
<path d="M45.1097 44.4071C44.1406 43.2076 42.6576 42.4404 40.9955 42.4404C38.076 42.4404 35.7092 44.8072 35.7092 47.7267C35.7092 50.6462 38.076 53.0129 40.9955 53.0129C42.9474 53.0129 44.6523 51.9549 45.5679 50.3811" stroke="#00ADB6" stroke-width="1.52044"/>
<path d="M53.2803 57.5084C52.3113 56.3089 50.8283 55.5417 49.1661 55.5417C46.2466 55.5417 43.8799 57.9085 43.8799 60.828C43.8799 63.7475 46.2466 66.1142 49.1661 66.1142C51.1181 66.1142 52.8229 65.0562 53.7385 63.4824" stroke="#00ADB6" stroke-width="1.52044"/>
<path d="M52.9988 31.4472C52.0298 30.2476 50.5468 29.4805 48.8846 29.4805C45.9651 29.4805 43.5984 31.8472 43.5984 34.7667C43.5984 37.6862 45.9651 40.0529 48.8846 40.0529C50.8366 40.0529 52.5414 38.9949 53.4571 37.4212" stroke="#00ADB6" stroke-width="1.52044"/>
<path d="M68.917 56.9452C67.948 55.7457 66.465 54.9785 64.8028 54.9785C61.8833 54.9785 59.5166 57.3452 59.5166 60.2647C59.5166 63.1842 61.8833 65.551 64.8028 65.551C66.7548 65.551 68.4597 64.493 69.3753 62.9192" stroke="#00ADB6" stroke-width="1.52044"/>
<path d="M60.7466 69.9056C59.7776 68.7061 58.2946 67.939 56.6324 67.939C53.7129 67.939 51.3462 70.3057 51.3462 73.2252C51.3462 76.1447 53.7129 78.5114 56.6324 78.5114C58.5844 78.5114 60.2892 77.4534 61.2049 75.8796" stroke="#00ADB6" stroke-width="1.52044"/>
</g>
<defs>
<clipPath id="clip0_146_1617">
<rect width="132.137" height="111.215" fill="white"/>
</clipPath>
</defs>
</svg>
