<svg width="34" height="37" viewBox="0 0 34 37" fill="none" xmlns="http://www.w3.org/2000/svg">
<g clip-path="url(#clip0_150_1840)">
<circle cx="14.9238" cy="22.5352" r="14.4473" fill="#9EF4F9"/>
<path d="M23.995 21.296C25.3645 20.3832 25.1385 19.3613 25.7851 17.2465C26.0837 16.0506 26.9608 15.1653 28.1485 14.8586C29.1283 14.4334 32.6811 14.4369 32.6584 11.4416C32.6509 9.83411 31.3336 8.53308 29.7302 8.53778C26.735 8.54763 26.763 12.1005 26.354 13.0804C26.0554 14.2762 25.1783 15.1615 23.9906 15.4683C21.6764 16.0941 21.3833 16.069 20.7819 16.4828C19.4083 17.3996 19.6384 18.4175 18.9918 20.5324C18.439 22.7491 15.7787 23.3457 14.9241 23.352C11.5342 23.3814 10.8319 20.4213 10.4372 18.524C10.1493 17.1315 9.00344 16.0425 7.54244 16.0434C5.93494 16.0441 4.63955 17.3558 4.65112 18.9592C4.6624 20.4243 5.75955 21.5539 7.15196 21.8337C10.7999 22.5577 11.3872 23.145 12.1438 26.7849C12.1479 26.8053 12.152 26.8256 12.1602 26.8419C12.4115 28.2465 13.6671 29.2666 15.0426 29.2614C16.5036 29.2604 17.7262 28.1683 17.9104 26.7362C18.3427 25.2924 18.3255 22.9524 20.7862 22.3106C23.1005 21.6847 23.3936 21.7098 23.995 21.296Z" fill="#00ADB6"/>
</g>
<defs>
<clipPath id="clip0_150_1840">
<rect width="33.4766" height="36.9912" fill="white" transform="translate(0.476562 -0.00878906)"/>
</clipPath>
</defs>
</svg>
