<svg width="35" height="38" viewBox="0 0 35 38" fill="none" xmlns="http://www.w3.org/2000/svg">
<g clip-path="url(#clip0_150_1847)">
<circle cx="15.4004" cy="23.5176" r="14.4473" fill="#9EF4F9"/>
<path d="M24.4716 22.2784C25.8411 21.3657 25.615 20.3437 26.2616 18.2289C26.5602 17.033 27.4374 16.1478 28.625 15.841C29.6049 15.4158 33.1577 15.4193 33.135 12.4241C33.1275 10.8165 31.8102 9.5155 30.2068 9.5202C27.2116 9.53006 27.2395 13.0829 26.8306 14.0628C26.532 15.2586 25.6549 16.1439 24.4672 16.4507C22.1529 17.0765 21.8599 17.0515 21.2584 17.4653C19.8849 18.3821 20.115 19.4 19.4683 21.5148C18.9156 23.7315 16.2553 24.3281 15.4007 24.3344C12.0108 24.3638 11.3085 21.4037 10.9138 19.5064C10.6259 18.114 9.48 17.0249 8.019 17.0259C6.4115 17.0265 5.11611 18.3382 5.12768 19.9416C5.13897 21.4067 6.23612 22.5364 7.62853 22.8161C11.2765 23.5402 11.8637 24.1274 12.6204 27.7673C12.6245 27.7877 12.6286 27.808 12.6368 27.8243C12.888 29.2289 14.1437 30.249 15.5192 30.2438C16.9802 30.2429 18.2028 29.1507 18.3869 27.7186C18.8193 26.2748 18.802 23.9348 21.2628 23.293C23.5771 22.6672 23.8701 22.6922 24.4716 22.2784Z" fill="#00ADB6"/>
</g>
<defs>
<clipPath id="clip0_150_1847">
<rect width="33.4766" height="36.9912" fill="white" transform="translate(0.953125 0.973633)"/>
</clipPath>
</defs>
</svg>
