<svg width="34" height="38" viewBox="0 0 34 38" fill="none" xmlns="http://www.w3.org/2000/svg">
<g clip-path="url(#clip0_150_1852)">
<circle cx="14.877" cy="23.5176" r="14.4473" fill="#9EF4F9"/>
<path d="M23.9481 22.2784C25.3176 21.3657 25.0916 20.3437 25.7382 18.2289C26.0368 17.033 26.9139 16.1478 28.1016 15.841C29.0815 15.4158 32.6343 15.4193 32.6116 12.4241C32.604 10.8165 31.2868 9.5155 29.6833 9.5202C26.6881 9.53006 26.7161 13.0829 26.3072 14.0628C26.0086 15.2586 25.1314 16.1439 23.9438 16.4507C21.6295 17.0765 21.3364 17.0515 20.735 17.4653C19.3614 18.3821 19.5915 19.4 18.9449 21.5148C18.3921 23.7315 15.7319 24.3281 14.8773 24.3344C11.4873 24.3638 10.7851 21.4037 10.3903 19.5064C10.1025 18.114 8.95656 17.0249 7.49557 17.0259C5.88807 17.0265 4.59267 18.3382 4.60425 19.9416C4.61553 21.4067 5.71268 22.5364 7.10509 22.8161C10.753 23.5402 11.3403 24.1274 12.0969 27.7673C12.101 27.7877 12.1052 27.808 12.1133 27.8243C12.3646 29.2289 13.6202 30.249 14.9957 30.2438C16.4567 30.2429 17.6793 29.1507 17.8635 27.7186C18.2958 26.2748 18.2786 23.9348 20.7394 23.293C23.0536 22.6672 23.3467 22.6922 23.9481 22.2784Z" fill="#00ADB6"/>
</g>
<defs>
<clipPath id="clip0_150_1852">
<rect width="33.4766" height="36.9912" fill="white" transform="translate(0.429688 0.973633)"/>
</clipPath>
</defs>
</svg>
