<svg width="34" height="37" viewBox="0 0 34 37" fill="none" xmlns="http://www.w3.org/2000/svg">
<g clip-path="url(#clip0_150_1834)">
<circle cx="14.4473" cy="22.544" r="14.4473" fill="#9EF4F9"/>
<path d="M23.5184 21.3048C24.8879 20.392 24.6619 19.3701 25.3085 17.2552C25.6071 16.0594 26.4842 15.1741 27.6719 14.8674C28.6518 14.4422 32.2046 14.4457 32.1819 11.4504C32.1744 9.8429 30.8571 8.54187 29.2537 8.54657C26.2584 8.55642 26.2864 12.1093 25.8775 13.0892C25.5789 14.285 24.7017 15.1703 23.5141 15.477C21.1998 16.1029 20.9067 16.0778 20.3053 16.4916C18.9317 17.4084 19.1618 18.4263 18.5152 20.5411C17.9624 22.7579 15.3022 23.3545 14.4476 23.3608C11.0576 23.3902 10.3554 20.43 9.96063 18.5328C9.67277 17.1403 8.52687 16.0513 7.06588 16.0522C5.45838 16.0528 4.16298 17.3646 4.17456 18.968C4.18584 20.4331 5.28299 21.5627 6.6754 21.8425C10.3233 22.5665 10.9106 23.1538 11.6672 26.7937C11.6714 26.814 11.6755 26.8344 11.6836 26.8507C11.9349 28.2553 13.1905 29.2754 14.5661 29.2702C16.027 29.2692 17.2497 28.1771 17.4338 26.745C17.8661 25.3012 17.8489 22.9611 20.3097 22.3193C22.6239 21.6935 22.917 21.7186 23.5184 21.3048Z" fill="#00ADB6"/>
</g>
<defs>
<clipPath id="clip0_150_1834">
<rect width="33.4766" height="36.9912" fill="white"/>
</clipPath>
</defs>
</svg>
