<svg width="35" height="37" viewBox="0 0 35 37" fill="none" xmlns="http://www.w3.org/2000/svg">
<g clip-path="url(#clip0_150_1844)">
<circle cx="15.4004" cy="22.544" r="14.4473" fill="#9EF4F9"/>
<path d="M24.4716 21.3048C25.8411 20.392 25.615 19.3701 26.2616 17.2552C26.5602 16.0594 27.4374 15.1741 28.625 14.8674C29.6049 14.4422 33.1577 14.4457 33.135 11.4504C33.1275 9.8429 31.8102 8.54187 30.2068 8.54657C27.2116 8.55642 27.2395 12.1093 26.8306 13.0892C26.532 14.285 25.6549 15.1703 24.4672 15.477C22.1529 16.1029 21.8599 16.0778 21.2584 16.4916C19.8849 17.4084 20.115 18.4263 19.4683 20.5411C18.9156 22.7579 16.2553 23.3545 15.4007 23.3608C12.0108 23.3902 11.3085 20.43 10.9138 18.5328C10.6259 17.1403 9.48 16.0513 8.019 16.0522C6.4115 16.0528 5.11611 17.3646 5.12768 18.968C5.13897 20.4331 6.23612 21.5627 7.62853 21.8425C11.2765 22.5665 11.8637 23.1538 12.6204 26.7937C12.6245 26.814 12.6286 26.8344 12.6368 26.8507C12.888 28.2553 14.1437 29.2754 15.5192 29.2702C16.9802 29.2692 18.2028 28.1771 18.3869 26.745C18.8193 25.3012 18.802 22.9611 21.2628 22.3193C23.5771 21.6935 23.8701 21.7186 24.4716 21.3048Z" fill="#00ADB6"/>
</g>
<defs>
<clipPath id="clip0_150_1844">
<rect width="33.4766" height="36.9912" fill="white" transform="translate(0.953125)"/>
</clipPath>
</defs>
</svg>
