<svg width="34" height="38" viewBox="0 0 34 38" fill="none" xmlns="http://www.w3.org/2000/svg">
<g clip-path="url(#clip0_150_1836)">
<circle cx="14.4473" cy="23.5264" r="14.4473" fill="#9EF4F9"/>
<path d="M23.5184 22.2872C24.8879 21.3744 24.6619 20.3525 25.3085 18.2377C25.6071 17.0418 26.4842 16.1565 27.6719 15.8498C28.6518 15.4246 32.2046 15.4281 32.1819 12.4328C32.1744 10.8253 30.8571 9.52429 29.2537 9.52899C26.2584 9.53885 26.2864 13.0917 25.8775 14.0716C25.5789 15.2674 24.7017 16.1527 23.5141 16.4595C21.1998 17.0853 20.9067 17.0602 20.3053 17.4741C18.9317 18.3908 19.1618 19.4087 18.5152 21.5236C17.9624 23.7403 15.3022 24.3369 14.4476 24.3432C11.0576 24.3726 10.3554 21.4125 9.96063 19.5152C9.67277 18.1227 8.52687 17.0337 7.06588 17.0346C5.45838 17.0353 4.16298 18.347 4.17456 19.9504C4.18584 21.4155 5.28299 22.5452 6.6754 22.8249C10.3233 23.549 10.9106 24.1362 11.6672 27.7761C11.6714 27.7965 11.6755 27.8168 11.6836 27.8331C11.9349 29.2377 13.1905 30.2578 14.5661 30.2526C16.027 30.2516 17.2497 29.1595 17.4338 27.7274C17.8661 26.2836 17.8489 23.9436 20.3097 23.3018C22.6239 22.6759 22.917 22.701 23.5184 22.2872Z" fill="#00ADB6"/>
</g>
<defs>
<clipPath id="clip0_150_1836">
<rect width="33.4766" height="36.9912" fill="white" transform="translate(0 0.982422)"/>
</clipPath>
</defs>
</svg>
