<svg width="35" height="36" viewBox="0 0 35 36" fill="none" xmlns="http://www.w3.org/2000/svg">
<g clip-path="url(#clip0_2030_2325)">
<path fill-rule="evenodd" clip-rule="evenodd" d="M7.46484 5.15381H27.7539C29.3547 5.15381 30.6523 6.45148 30.6523 8.05225V28.3413C30.6523 29.9421 29.3547 31.2397 27.7539 31.2397H7.46484C5.86408 31.2397 4.56641 29.9421 4.56641 28.3413V8.05225C4.56641 6.45148 5.86408 5.15381 7.46484 5.15381ZM11.8125 26.8921C12.2127 26.8921 12.5371 26.5676 12.5371 26.1675V16.0229C12.5371 15.6228 12.2127 15.2983 11.8125 15.2983H9.63867C9.23848 15.2983 8.91406 15.6228 8.91406 16.0229V26.1675C8.91406 26.5676 9.23848 26.8921 9.63867 26.8921H11.8125ZM10.7256 13.8491C9.52501 13.8491 8.55176 12.8759 8.55176 11.6753C8.55176 10.4747 9.52501 9.50146 10.7256 9.50146C11.9262 9.50146 12.8994 10.4747 12.8994 11.6753C12.8994 12.8759 11.9262 13.8491 10.7256 13.8491ZM25.5801 26.8921C25.9802 26.8921 26.3047 26.5676 26.3047 26.1675V19.5011C26.3518 17.198 24.6491 15.2324 22.3628 14.9505C20.7643 14.8045 19.2155 15.5511 18.334 16.8925V16.0229C18.334 15.6228 18.0095 15.2983 17.6094 15.2983H15.4355C15.0354 15.2983 14.7109 15.6228 14.7109 16.0229V26.1675C14.7109 26.5676 15.0354 26.8921 15.4355 26.8921H17.6094C18.0095 26.8921 18.334 26.5676 18.334 26.1675V20.7329C18.334 19.5324 19.3073 18.5591 20.5078 18.5591C21.7083 18.5591 22.6816 19.5324 22.6816 20.7329V26.1675C22.6816 26.5676 23.0061 26.8921 23.4062 26.8921H25.5801Z" fill="white"/>
</g>
<defs>
<clipPath id="clip0_2030_2325">
<rect width="34.7812" height="34.7812" fill="white" transform="translate(0.21875 0.806152)"/>
</clipPath>
</defs>
</svg>
