<svg width="35" height="36" viewBox="0 0 35 36" fill="none" xmlns="http://www.w3.org/2000/svg">
<g clip-path="url(#clip0_2030_2323)">
<path fill-rule="evenodd" clip-rule="evenodd" d="M23.2598 4.76318H11.666C7.66411 4.76318 4.41992 8.00737 4.41992 12.0093V23.603C4.41992 27.6049 7.66411 30.8491 11.666 30.8491H23.2598C27.2616 30.8491 30.5059 27.6049 30.5059 23.603V12.0093C30.5059 8.00737 27.2616 4.76318 23.2598 4.76318ZM27.9697 23.603C27.9617 26.2009 25.8576 28.305 23.2598 28.313H11.666C9.06807 28.305 6.96401 26.2009 6.95605 23.603V12.0093C6.96401 9.41133 9.06807 7.30727 11.666 7.29932H23.2598C25.8576 7.30727 27.9617 9.41133 27.9697 12.0093V23.603ZM24.3467 12.3716C25.1471 12.3716 25.7959 11.7227 25.7959 10.9224C25.7959 10.122 25.1471 9.47314 24.3467 9.47314C23.5463 9.47314 22.8975 10.122 22.8975 10.9224C22.8975 11.7227 23.5463 12.3716 24.3467 12.3716ZM17.4629 11.2847C13.8612 11.2847 10.9414 14.2044 10.9414 17.8061C10.9414 21.4079 13.8612 24.3276 17.4629 24.3276C21.0646 24.3276 23.9844 21.4079 23.9844 17.8061C23.9883 16.0753 23.3024 14.4144 22.0785 13.1905C20.8546 11.9667 19.1937 11.2808 17.4629 11.2847ZM13.4775 17.8061C13.4775 20.0072 15.2618 21.7915 17.4629 21.7915C19.664 21.7915 21.4482 20.0072 21.4482 17.8061C21.4482 15.6051 19.664 13.8208 17.4629 13.8208C15.2618 13.8208 13.4775 15.6051 13.4775 17.8061Z" fill="white"/>
</g>
<defs>
<clipPath id="clip0_2030_2323">
<rect width="34.7812" height="34.7812" fill="white" transform="translate(0.0722656 0.806152)"/>
</clipPath>
</defs>
</svg>
