<svg width="27" height="27" viewBox="0 0 27 27" fill="none" xmlns="http://www.w3.org/2000/svg">
<g clip-path="url(#clip0_122_1606)">
<path d="M4.33998 3.021L6.97826 0.382717C7.10152 0.260458 7.2477 0.163731 7.40842 0.098085C7.56914 0.0324385 7.74124 -0.000836863 7.91484 0.000166861H19.7871C20.4868 0.000166861 21.1579 0.278127 21.6526 0.772901C22.1474 1.26767 22.4254 1.93873 22.4254 2.63845V11.8724C22.4243 12.0897 22.3695 12.3033 22.2659 12.4943C22.1624 12.6853 22.0132 12.8478 21.8318 12.9673L14.6556 17.7558C14.2221 18.045 13.7126 18.1994 13.1914 18.1994C12.6702 18.1994 12.1607 18.045 11.7272 17.7558L4.55104 12.9673C4.36958 12.8478 4.22044 12.6853 4.11688 12.4943C4.01332 12.3033 3.95855 12.0897 3.95743 11.8724V3.95759C3.95642 3.78398 3.9897 3.61188 4.05534 3.45116C4.12099 3.29044 4.21772 3.14426 4.33998 3.021Z" fill="#D9E7EF"/>
<path d="M1.3983 9.36606C1.81891 9.14167 2.29247 9.03545 2.76863 9.05868C3.24478 9.0819 3.70575 9.23371 4.10253 9.49797L13.1914 15.566L22.2803 9.49797C22.6782 9.2325 23.1407 9.0802 23.6185 9.05735C24.0963 9.0345 24.5713 9.14197 24.9927 9.36825C25.4141 9.59453 25.766 9.93112 26.0109 10.342C26.2558 10.7529 26.3843 11.2226 26.3828 11.7009V23.7447C26.3828 24.4444 26.1048 25.1154 25.6101 25.6102C25.1153 26.105 24.4442 26.383 23.7445 26.383H2.63829C1.93857 26.383 1.26751 26.105 0.772741 25.6102C0.277968 25.1154 7.17696e-06 24.4444 7.17696e-06 23.7447V11.7009C-0.00111112 11.2214 0.128479 10.7507 0.374846 10.3393C0.621213 9.92789 0.975041 9.59143 1.3983 9.36606ZM7.91484 0.000166861C7.56609 -0.00537719 7.22934 0.127426 6.97826 0.369526L4.33998 3.00781C4.21613 3.13263 4.11848 3.28096 4.05279 3.44406C3.98709 3.60717 3.95467 3.78177 3.95743 3.95759L6.59571 3.95759C6.94556 3.95759 7.28109 3.81861 7.52848 3.57122C7.77586 3.32383 7.91484 2.9883 7.91484 2.63845V0.000166861Z" fill="#00ADB6"/>
</g>
<defs>
<clipPath id="clip0_122_1606">
<rect width="26.3828" height="26.383" fill="white"/>
</clipPath>
</defs>
</svg>
