<svg width="35" height="38" viewBox="0 0 35 38" fill="none" xmlns="http://www.w3.org/2000/svg">
<g clip-path="url(#clip0_150_1846)">
<circle cx="15.4004" cy="23.5264" r="14.4473" fill="#9EF4F9"/>
<path d="M24.4716 22.2872C25.8411 21.3744 25.615 20.3525 26.2616 18.2377C26.5602 17.0418 27.4374 16.1565 28.625 15.8498C29.6049 15.4246 33.1577 15.4281 33.135 12.4328C33.1275 10.8253 31.8102 9.52429 30.2068 9.52899C27.2116 9.53885 27.2395 13.0917 26.8306 14.0716C26.532 15.2674 25.6549 16.1527 24.4672 16.4595C22.1529 17.0853 21.8599 17.0602 21.2584 17.4741C19.8849 18.3908 20.115 19.4087 19.4683 21.5236C18.9156 23.7403 16.2553 24.3369 15.4007 24.3432C12.0108 24.3726 11.3085 21.4125 10.9138 19.5152C10.6259 18.1227 9.48 17.0337 8.019 17.0346C6.4115 17.0353 5.11611 18.347 5.12768 19.9504C5.13897 21.4155 6.23612 22.5452 7.62853 22.8249C11.2765 23.549 11.8637 24.1362 12.6204 27.7761C12.6245 27.7965 12.6286 27.8168 12.6368 27.8331C12.888 29.2377 14.1437 30.2578 15.5192 30.2526C16.9802 30.2516 18.2028 29.1595 18.3869 27.7274C18.8193 26.2836 18.802 23.9436 21.2628 23.3018C23.5771 22.6759 23.8701 22.701 24.4716 22.2872Z" fill="#00ADB6"/>
</g>
<defs>
<clipPath id="clip0_150_1846">
<rect width="33.4766" height="36.9912" fill="white" transform="translate(0.953125 0.982422)"/>
</clipPath>
</defs>
</svg>
